<svg width="40" height="40" viewBox="0 0 40 40" fill="none" xmlns="http://www.w3.org/2000/svg">
<rect x="39.5" y="39.5" width="39" height="39" transform="rotate(180 39.5 39.5)" fill="#C1272D"/>
<rect x="39.5" y="39.5" width="39" height="39" transform="rotate(180 39.5 39.5)" stroke="#FEFCE6"/>
<path d="M11.6863 21.6863C12.211 21.1616 12.4761 19.8598 12.6091 18.6776C12.783 17.1544 12.7173 15.608 12.358 14.1188C12.0886 13.0023 11.6552 11.7557 10.9792 11.0797M10.9792 11.0797C11.6552 11.7557 12.9025 12.1898 14.0183 12.4585C15.5082 12.8171 17.0546 12.8828 18.5763 12.7103C19.7593 12.5766 21.0625 12.3101 21.5858 11.7868M10.9792 11.0797L27.9497 28.0503" stroke="#FEFCE6" stroke-width="2"/>
</svg>
