<svg width="47" height="54" viewBox="0 0 47 54" fill="none" xmlns="http://www.w3.org/2000/svg">
<rect x="0.199219" width="46.8" height="53.235" fill="#FEFCE6"/>
<rect x="0.699219" y="0.5" width="45.8" height="52.235" stroke="#F1DE0C" stroke-opacity="0.2"/>
<path d="M7.21875 24.7739C7.21875 24.7739 16.8302 28.2935 23.5987 24.7739C30.3673 21.2543 39.9787 24.7739 39.9787 24.7739V29.1058C39.9787 29.1058 30.6381 25.7216 23.5987 29.1058C16.5594 32.4901 7.21875 29.1058 7.21875 29.1058V24.7739Z" fill="#F1DE0C"/>
<path d="M36.7163 36.9495C36.7163 36.9495 30.1524 29.0957 22.5308 28.7595C14.9092 28.4233 8.34533 20.5695 8.34533 20.5695L10.5113 16.818C10.5113 16.818 16.9084 24.4191 24.6968 25.008C32.4851 25.5968 38.8823 33.198 38.8823 33.198L36.7163 36.9495Z" fill="#F1DE0C"/>
<path d="M29.939 42.1632C29.939 42.1632 28.1814 32.0797 21.749 27.9777C15.3166 23.8758 13.559 13.7922 13.559 13.7922L17.3105 11.6263C17.3105 11.6263 19.05 21.4076 25.5005 25.8118C31.9511 30.2159 33.6905 39.9973 33.6905 39.9973L29.939 42.1632Z" fill="#F1DE0C"/>
<path d="M21.4629 43.2898C21.4629 43.2898 24.9825 33.6784 21.4629 26.9098C17.9433 20.1412 21.4629 10.5298 21.4629 10.5298L25.7948 10.5298C25.7948 10.5298 22.4105 19.8704 25.7948 26.9098C29.179 33.9491 25.7948 43.2898 25.7948 43.2898H21.4629Z" fill="#F1DE0C"/>
<path d="M13.559 40.0274C13.559 40.0274 21.4128 33.4634 21.749 25.8419C22.0853 18.2203 29.939 11.6564 29.939 11.6564L33.6906 13.8223C33.6906 13.8223 26.0894 20.2194 25.5006 28.0078C24.9118 35.7962 17.3106 42.1933 17.3106 42.1933L13.559 40.0274Z" fill="#F1DE0C"/>
<path d="M8.34533 33.2501C8.34533 33.2501 18.4289 31.4925 22.5308 25.0601C26.6328 18.6277 36.7163 16.8701 36.7163 16.8701L38.8823 20.6216C38.8823 20.6216 29.1009 22.3611 24.6968 28.8116C20.2927 35.2621 10.5113 37.0016 10.5113 37.0016L8.34533 33.2501Z" fill="#F1DE0C"/>
<path d="M8.95709 20.5099L10.5997 17.6649C10.7786 17.8573 11.0064 18.0957 11.2789 18.3683C12.012 19.1018 13.0715 20.0857 14.379 21.0889C14.9112 21.4971 15.4866 21.9103 16.0998 22.3118C16.7479 23.4888 17.523 24.6625 18.4448 25.731C17.3901 25.8428 16.3333 25.8604 15.3117 25.8148C14.4404 25.2872 13.6264 24.7155 12.8858 24.1429C11.6103 23.1567 10.5682 22.18 9.84527 21.4501C9.48406 21.0854 9.20322 20.783 9.01348 20.5727C8.99368 20.5507 8.97488 20.5298 8.95709 20.5099ZM14.1186 14.0465L16.9636 12.4039C17.0224 12.66 17.1005 12.9804 17.2001 13.3527C17.4683 14.3545 17.8939 15.7363 18.5247 17.2589C18.7814 17.8785 19.0732 18.524 19.4034 19.1784C19.3772 20.4727 19.4546 21.8235 19.6965 23.1602C18.691 22.7083 17.7388 22.1761 16.8569 21.6108C16.4142 20.7862 16.0321 19.9563 15.7045 19.1571C15.093 17.6653 14.6788 16.2984 14.4177 15.3048C14.2873 14.8083 14.1952 14.406 14.1361 14.129C14.1299 14.1001 14.1241 14.0726 14.1186 14.0465ZM21.8204 11.0298L25.1055 11.0298C25.0284 11.281 24.9358 11.5974 24.8359 11.9697C24.5672 12.9714 24.2449 14.3809 24.03 16.0148C23.9424 16.6798 23.8724 17.3847 23.8312 18.1166C23.1614 19.2244 22.553 20.4329 22.0941 21.7115C21.4492 20.8174 20.8908 19.8804 20.4096 18.9499C20.4386 18.0143 20.5226 17.1046 20.6385 16.2487C20.8548 14.6509 21.1796 13.2601 21.4503 12.2691C21.5855 11.7739 21.707 11.3795 21.7942 11.11C21.8033 11.0819 21.812 11.0551 21.8204 11.0298ZM29.9986 12.2681L32.8436 13.9107C32.6513 14.0897 32.4129 14.3174 32.1402 14.5899C31.4067 15.323 30.4228 16.3825 29.4197 17.6901C29.0114 18.2222 28.5983 18.7977 28.1967 19.4109C27.0627 20.0353 25.9316 20.7777 24.8948 21.6556C24.7834 20.5588 24.7683 19.4682 24.8168 18.4218C25.3097 17.626 25.8373 16.8802 26.3657 16.1969C27.3519 14.9214 28.3286 13.8792 29.0585 13.1563C29.4232 12.7951 29.7256 12.5143 29.9359 12.3245C29.9578 12.3047 29.9787 12.2859 29.9986 12.2681ZM36.4621 17.4297L38.1046 20.2747C37.8485 20.3335 37.5282 20.4115 37.1558 20.5112C36.154 20.7794 34.7722 21.205 33.2497 21.8357C32.63 22.0925 31.9845 22.3842 31.3301 22.7145C30.0358 22.6883 28.6851 22.7657 27.3483 23.0076C27.8002 22.002 28.3325 21.0499 28.8977 20.168C29.7224 19.7253 30.5522 19.3432 31.3514 19.0156C32.8433 18.4041 34.2102 17.9899 35.2038 17.7288C35.7002 17.5983 36.1025 17.5063 36.3795 17.4471C36.4084 17.441 36.4359 17.4351 36.4621 17.4297ZM39.4787 25.1314V28.4165C39.2276 28.3394 38.9111 28.2469 38.5388 28.147C37.5371 27.8783 36.1277 27.556 34.4937 27.341C33.8302 27.2537 33.1269 27.1837 32.3968 27.1425C31.2888 26.4807 30.0779 25.8756 28.7913 25.4093C29.6872 24.7627 30.6262 24.2029 31.5587 23.7207C32.4942 23.7496 33.404 23.8336 34.2599 23.9495C35.8576 24.1659 37.2485 24.4907 38.2395 24.7613C38.7346 24.8965 39.1291 25.018 39.3985 25.1053C39.4266 25.1144 39.4534 25.1231 39.4787 25.1314ZM38.2697 33.2589L36.6295 36.0998C36.4453 35.8999 36.2095 35.6506 35.9269 35.3652C35.1809 34.6121 34.1057 33.6043 32.7875 32.585C32.2297 32.1537 31.6255 31.7181 30.9818 31.2979C30.3788 30.2417 29.6716 29.188 28.8458 28.2066C29.9477 28.0943 31.0435 28.0792 32.0945 28.1282C32.9263 28.6368 33.7011 29.1798 34.4058 29.7205C35.6711 30.6912 36.6977 31.6444 37.4074 32.3545C37.762 32.7094 38.0369 33.0029 38.2223 33.2067C38.2388 33.2248 38.2546 33.2423 38.2697 33.2589ZM33.1296 39.7438L30.2887 41.384C30.2291 41.1187 30.1496 40.785 30.0475 40.3965C29.778 39.3712 29.3508 37.9609 28.7188 36.4191C28.4514 35.7666 28.1459 35.0874 27.7986 34.4016C27.8047 33.1367 27.7119 31.8179 27.4669 30.505C28.4398 30.9368 29.3672 31.4518 30.2321 32.0042C30.7478 32.9296 31.185 33.8602 31.5526 34.7474C32.163 36.2208 32.5754 37.5596 32.835 38.5294C32.9647 39.014 33.056 39.4056 33.1147 39.6748C33.1199 39.6988 33.1249 39.7218 33.1296 39.7438ZM25.4357 42.7898H22.1553C22.2364 42.5303 22.3343 42.2015 22.4401 41.814C22.7194 40.7913 23.0546 39.3563 23.2782 37.7051C23.3728 37.0064 23.448 36.2654 23.49 35.4979C24.1278 34.4055 24.7068 33.2169 25.151 31.9575C25.7778 32.8179 26.3234 33.7276 26.7962 34.6384C26.7801 35.6976 26.6934 36.7221 26.5681 37.6743C26.3601 39.2555 26.0479 40.6211 25.7878 41.5908C25.6578 42.0753 25.5411 42.4601 25.4573 42.7226C25.4498 42.746 25.4426 42.7684 25.4357 42.7898ZM17.2496 41.5807L14.4087 39.9406C14.6087 39.7563 14.8579 39.5206 15.1433 39.2379C15.8965 38.4919 16.9043 37.4167 17.9235 36.0985C18.3548 35.5407 18.7904 34.9366 19.2106 34.2929C20.3091 33.6658 21.4048 32.926 22.4192 32.0573C22.5318 33.1158 22.5495 34.1765 22.5035 35.2017C21.96 36.111 21.3727 36.9549 20.7881 37.7168C19.8173 38.9821 18.8641 40.0087 18.154 40.7184C17.7992 41.073 17.5057 41.3479 17.3019 41.5334C17.2837 41.5499 17.2663 41.5657 17.2496 41.5807ZM10.7648 36.4406L9.12458 33.5998C9.38985 33.5402 9.72358 33.4606 10.1121 33.3585C11.1373 33.0891 12.5477 32.6618 14.0895 32.0299C14.7419 31.7624 15.4212 31.457 16.1069 31.1097C17.3718 31.1158 18.6907 31.023 20.0035 30.7779C19.5718 31.7509 19.0568 32.6783 18.5043 33.5431C17.579 34.0589 16.6484 34.496 15.7611 34.8636C14.2878 35.474 12.949 35.8864 11.9792 36.146C11.4946 36.2757 11.1029 36.3671 10.8337 36.4257C10.8097 36.431 10.7868 36.4359 10.7648 36.4406ZM7.71875 28.7467V25.4664C7.97827 25.5474 8.30707 25.6454 8.69456 25.7512C9.71719 26.0305 11.1522 26.3657 12.8034 26.5893C13.5028 26.684 14.2445 26.7591 15.0127 26.8012C16.1058 27.4471 17.293 28.0292 18.5459 28.4659C17.6871 29.091 16.7792 29.6354 15.8702 30.1072C14.8109 30.0912 13.7864 30.0045 12.8342 29.8792C11.2531 29.6711 9.88744 29.3589 8.91776 29.0988C8.43323 28.9688 8.0484 28.8521 7.78592 28.7683C7.76255 28.7609 7.74016 28.7537 7.71875 28.7467ZM19.4951 27.7229C18.6991 27.4835 17.924 27.1763 17.178 26.8228C17.8748 26.7966 18.5807 26.7362 19.2854 26.6326C19.5129 26.8577 19.748 27.076 19.9911 27.2863C19.8289 27.4354 19.6634 27.581 19.4951 27.7229ZM20.7055 26.5816C20.6384 26.5243 20.5718 26.4663 20.5059 26.4076C20.5552 26.3965 20.6045 26.3853 20.6537 26.3738C20.6797 26.4334 20.7062 26.4929 20.7331 26.5522C20.7239 26.562 20.7147 26.5718 20.7055 26.5816ZM20.6692 28.0213C20.7064 27.9871 20.7434 27.9527 20.7803 27.9181C20.8326 27.9568 20.8853 27.995 20.9383 28.0329C20.9352 28.046 20.9321 28.0591 20.929 28.0722C20.8422 28.0561 20.7556 28.0391 20.6692 28.0213ZM19.7248 28.8264C20.0343 28.9076 20.347 28.9791 20.6627 29.0396C20.597 29.2493 20.5267 29.4575 20.4521 29.664C19.642 29.8488 18.8217 29.9686 18.007 30.0371C18.5932 29.6682 19.1701 29.2654 19.7248 28.8264ZM21.6132 29.3507C21.6297 29.298 21.646 29.2451 21.662 29.1922C21.7267 29.1995 21.7914 29.2064 21.8562 29.2127C21.8617 29.2306 21.8671 29.2485 21.8724 29.2665C21.7862 29.2954 21.6998 29.3234 21.6132 29.3507ZM20.3198 32.414C20.6424 31.8024 20.9402 31.1663 21.2007 30.5099C21.5102 30.4286 21.8182 30.3377 22.1241 30.2366C22.1708 30.4464 22.2129 30.6571 22.2508 30.8684C21.6416 31.4334 20.9911 31.9474 20.3198 32.414ZM23.0996 30.0165C23.09 29.9735 23.0803 29.9305 23.0703 29.8875C23.1374 29.8601 23.2043 29.8321 23.271 29.8035C23.2747 29.807 23.2784 29.8104 23.282 29.8139C23.2219 29.8821 23.161 29.9496 23.0996 30.0165ZM23.3221 31.2266C23.5494 31.0014 23.7707 30.7687 23.9851 30.5282C24.1304 30.6865 24.2722 30.8479 24.4107 31.0121C24.1656 31.806 23.8593 32.5763 23.5112 33.3161C23.4848 32.6252 23.4246 31.9253 23.3221 31.2266ZM24.7198 29.8498C24.69 29.8174 24.6601 29.785 24.63 29.7528C24.6743 29.6955 24.7183 29.6378 24.7618 29.5797C24.7667 29.5808 24.7716 29.582 24.7765 29.5832C24.7585 29.6723 24.7396 29.7612 24.7198 29.8498ZM26.726 32.5016C26.3577 31.9164 25.9557 31.3404 25.5175 30.7866C25.6018 30.4779 25.6772 30.1657 25.7426 29.8502C25.9475 29.9147 26.1511 29.9835 26.353 30.0565C26.5377 30.8666 26.6576 31.6868 26.726 32.5016ZM26.0396 28.8954C25.9976 28.8822 25.9555 28.8691 25.9133 28.8563C25.9178 28.8236 25.9221 28.7909 25.9263 28.7582C25.9475 28.7521 25.9687 28.7461 25.9898 28.7401C26.0067 28.7918 26.0233 28.8435 26.0396 28.8954ZM27.1989 29.3078C27.1277 29.0372 27.0493 28.7676 26.9631 28.4996C27.194 28.4503 27.4256 28.4062 27.6576 28.3669C28.1833 28.9444 28.664 29.5573 29.1029 30.1887C28.4914 29.8661 27.8553 29.5683 27.1989 29.3078ZM26.8134 27.5091C26.7495 27.5225 26.6857 27.5363 26.6219 27.5504C26.5947 27.4824 26.567 27.4145 26.5387 27.3468C26.554 27.3309 26.5693 27.3151 26.5846 27.2993C26.6617 27.3685 26.7379 27.4384 26.8134 27.5091ZM30.2464 27.1129C29.5155 27.1358 28.7715 27.1943 28.0254 27.2984C27.7942 27.0605 27.5549 26.8287 27.3073 26.6044C27.4826 26.4463 27.6611 26.2922 27.8424 26.1422C28.6729 26.4071 29.4769 26.7382 30.2464 27.1129ZM26.6824 25.8215C26.6338 25.865 26.5853 25.9089 26.5372 25.953C26.4796 25.9077 26.4216 25.8628 26.3633 25.8183C26.3686 25.7969 26.374 25.7755 26.3794 25.7542C26.4807 25.7755 26.5817 25.798 26.6824 25.8215ZM27.6267 25.033C27.3075 24.9426 26.9844 24.8615 26.6577 24.791C26.7308 24.5654 26.8088 24.3418 26.8912 24.1203C27.7409 23.9291 28.6068 23.813 29.4684 23.7551C28.8431 24.1421 28.2243 24.5671 27.6267 25.033ZM25.7215 24.4365C25.7024 24.4949 25.6836 24.5534 25.6651 24.612C25.5926 24.6015 25.5199 24.5916 25.4471 24.5822C25.4423 24.5656 25.4376 24.5489 25.4328 24.5322C25.5287 24.4992 25.6249 24.4673 25.7215 24.4365ZM27.1046 21.243C26.7564 21.8912 26.4327 22.5692 26.148 23.2721C25.8266 23.3563 25.5074 23.4514 25.1912 23.558C25.1406 23.3219 25.0954 23.0851 25.0553 22.8479C25.6956 22.2574 26.3874 21.7239 27.1046 21.243ZM24.2004 23.7065C24.2152 23.7767 24.2304 23.8468 24.2461 23.9169C24.1849 23.9429 24.1239 23.9693 24.0631 23.9963C24.0415 23.9755 24.0199 23.9546 23.9983 23.9337C24.0648 23.8572 24.1322 23.7815 24.2004 23.7065ZM23.9876 22.4849C23.7514 22.7185 23.5224 22.9604 23.302 23.2109C23.1401 23.0317 22.9826 22.8492 22.8292 22.6638C23.0885 21.8323 23.4208 21.0244 23.8015 20.2493C23.824 20.9848 23.8827 21.7338 23.9876 22.4849ZM22.5182 23.8349C22.5661 23.8882 22.6143 23.9414 22.6629 23.9942C22.623 24.0473 22.5834 24.1007 22.5442 24.1544C22.515 24.1472 22.4859 24.14 22.4568 24.1326C22.4761 24.0331 22.4966 23.9339 22.5182 23.8349ZM20.444 21.0402C20.8313 21.666 21.2567 22.2852 21.7231 22.8833C21.6353 23.2037 21.558 23.5277 21.4923 23.8548C21.2625 23.7805 21.0348 23.7013 20.8093 23.6174C20.6181 22.7677 20.5019 21.9018 20.444 21.0402ZM21.1255 24.7871C21.1936 24.8094 21.262 24.8313 21.3305 24.8527C21.3177 24.9573 21.3061 25.0622 21.2958 25.1673C21.283 25.1712 21.2701 25.1751 21.2572 25.1789C21.2112 25.049 21.1673 24.9184 21.1255 24.7871ZM22.2163 26.3622C22.375 26.1614 22.5282 25.9555 22.6753 25.7443C22.9607 25.6309 23.2428 25.5072 23.521 25.3724C23.7489 25.4088 23.9782 25.4397 24.209 25.4649C24.4171 25.6367 24.6306 25.8031 24.8497 25.9637C24.944 26.2164 25.0457 26.4673 25.1552 26.7159C25.1105 26.982 25.0731 27.2501 25.0436 27.5201C24.8719 27.7281 24.7055 27.9416 24.5449 28.1607C24.3436 28.2359 24.1435 28.3156 23.9447 28.4003C23.6491 28.3541 23.3511 28.3178 23.0511 28.2922C22.8503 28.1335 22.6444 27.9803 22.4333 27.8332C22.3388 27.5954 22.237 27.3598 22.1277 27.1268C22.1648 26.8735 22.1945 26.6186 22.2163 26.3622ZM19.9611 24.3606C20.0555 24.7208 20.1635 25.0784 20.2862 25.432C20.0712 25.4801 19.8551 25.5234 19.6383 25.5621C19.0073 24.8917 18.4402 24.162 17.9319 23.4039C18.5802 23.7522 19.2581 24.0758 19.9611 24.3606Z" stroke="#F1DE0C" stroke-opacity="0.2"/>
</svg>
