<svg width="47" height="54" viewBox="0 0 47 54" fill="none" xmlns="http://www.w3.org/2000/svg">
<rect y="0.235352" width="46.8" height="53.235" fill="white"/>
<rect x="0.5" y="0.735352" width="45.8" height="52.235" stroke="#34548D" stroke-opacity="0.1"/>
<path d="M21.0595 25.3254H30.4195V28.9654H21.0595V25.3254Z" fill="#375291"/>
<path d="M39.7795 27.1454C39.7795 31.0224 36.6366 34.1654 32.7595 34.1654C28.8825 34.1654 25.7395 31.0224 25.7395 27.1454C25.7395 23.2683 28.8825 20.1254 32.7595 20.1254C36.6366 20.1254 39.7795 23.2683 39.7795 27.1454Z" fill="#375291"/>
<path d="M25.2195 24.8054V34.1654H21.5795V24.8054H25.2195Z" fill="#375291"/>
<path d="M23.3995 43.5254C19.5225 43.5254 16.3795 40.3824 16.3795 36.5054C16.3795 32.6283 19.5225 29.4854 23.3995 29.4854C27.2766 29.4854 30.4195 32.6283 30.4195 36.5054C30.4195 40.3824 27.2766 43.5254 23.3995 43.5254Z" fill="#375291"/>
<path d="M25.7395 25.3254H16.3795V28.9654H25.7395V25.3254Z" fill="#375291"/>
<path d="M7.01953 27.1454C7.01953 31.0224 10.1625 34.1654 14.0395 34.1654C17.9166 34.1654 21.0595 31.0224 21.0595 27.1454C21.0595 23.2683 17.9166 20.1254 14.0395 20.1254C10.1625 20.1254 7.01953 23.2683 7.01953 27.1454Z" fill="#375291"/>
<path d="M25.2195 29.4854V20.1254H21.5795V29.4854H25.2195Z" fill="#375291"/>
<path d="M23.3995 10.7654C19.5225 10.7654 16.3795 13.9083 16.3795 17.7854C16.3795 21.6624 19.5225 24.8054 23.3995 24.8054C27.2766 24.8054 30.4195 21.6624 30.4195 17.7854C30.4195 13.9083 27.2766 10.7654 23.3995 10.7654Z" fill="#375291"/>
<path d="M20.1347 24.8254H16.3795H15.8795V25.3254V28.9654V29.4654H16.3795H20.1347C20.092 29.5774 20.0463 29.688 19.9978 29.797C18.5755 30.5196 17.4138 31.6813 16.6911 33.1036C15.881 33.4647 14.9837 33.6654 14.0395 33.6654C10.4386 33.6654 7.51953 30.7463 7.51953 27.1454C7.51953 23.5445 10.4386 20.6254 14.0395 20.6254C14.9837 20.6254 15.881 20.8261 16.6911 21.1871C17.4138 22.6094 18.5755 23.7711 19.9978 24.4938C20.0463 24.6028 20.092 24.7133 20.1347 24.8254ZM20.5595 27.1454C20.5595 27.5976 20.5135 28.0391 20.4258 28.4654H16.8795V25.8254H20.4258C20.5135 26.2517 20.5595 26.6931 20.5595 27.1454ZM20.7479 30.5471C20.8569 30.4986 20.9675 30.4529 21.0795 30.4102V34.1654V34.6654H21.5795H25.2195H25.7195V34.1654V30.4102C25.8316 30.4529 25.9421 30.4986 26.0511 30.5471C26.7738 31.9694 27.9355 33.1311 29.3578 33.8538C29.7188 34.6639 29.9195 35.5612 29.9195 36.5054C29.9195 40.1063 27.0004 43.0254 23.3995 43.0254C19.7986 43.0254 16.8795 40.1063 16.8795 36.5054C16.8795 35.5612 17.0802 34.6639 17.4413 33.8538C18.8636 33.1311 20.0253 31.9694 20.7479 30.5471ZM22.0795 30.1191C22.5058 30.0314 22.9473 29.9854 23.3995 29.9854C23.8518 29.9854 24.2932 30.0314 24.7195 30.1191V33.6654H22.0795V30.1191ZM30.1079 33.1036C29.3853 31.6813 28.2236 30.5196 26.8013 29.797C26.7527 29.688 26.707 29.5774 26.6644 29.4654H30.4195H30.9195V28.9654V25.3254V24.8254H30.4195H26.6644C26.707 24.7133 26.7527 24.6028 26.8013 24.4938C28.2236 23.7711 29.3853 22.6094 30.1079 21.1871C30.918 20.8261 31.8153 20.6254 32.7595 20.6254C36.3604 20.6254 39.2795 23.5445 39.2795 27.1454C39.2795 30.7463 36.3604 33.6654 32.7595 33.6654C31.8153 33.6654 30.918 33.4647 30.1079 33.1036ZM20.7479 23.7436C20.0253 22.3213 18.8636 21.1596 17.4413 20.437C17.0802 19.6269 16.8795 18.7296 16.8795 17.7854C16.8795 14.1845 19.7986 11.2654 23.3995 11.2654C27.0004 11.2654 29.9195 14.1845 29.9195 17.7854C29.9195 18.7296 29.7188 19.6269 29.3578 20.437C27.9355 21.1596 26.7738 22.3213 26.0511 23.7436C25.9421 23.7922 25.8316 23.8379 25.7195 23.8805V20.1254V19.6254H25.2195H21.5795H21.0795V20.1254V23.8805C20.9675 23.8379 20.8569 23.7922 20.7479 23.7436ZM22.0795 28.4654V25.8254H24.7195V28.4654H22.0795ZM26.3732 28.4654C26.2856 28.0391 26.2395 27.5976 26.2395 27.1454C26.2395 26.6931 26.2856 26.2517 26.3732 25.8254H29.9195V28.4654H26.3732ZM24.7195 24.1717C24.2932 24.2593 23.8518 24.3054 23.3995 24.3054C22.9473 24.3054 22.5058 24.2593 22.0795 24.1717V20.6254H24.7195V24.1717Z" stroke="#34548D" stroke-opacity="0.1"/>
</svg>
