<svg width="32" height="33" viewBox="0 0 32 33" fill="none" xmlns="http://www.w3.org/2000/svg">
<path d="M8.83999 21.1735V21.7735H9.43999H12.904V31.7C5.88798 30.2591 0.6 24.005 0.6 16.5148C0.6 7.96002 7.53402 1.01846 16 1.01846C24.4659 1.01846 31.4 7.96002 31.4 16.5148L31.4 16.5162C31.4082 20.2061 30.1023 23.777 27.7185 26.5844C25.4876 29.2117 22.4504 31.0082 19.096 31.6994V21.7735H22.224H22.7384L22.8169 21.2651L23.5369 16.6065L23.6438 15.9148H22.944H19.096V13.4948C19.096 12.9479 19.2314 12.4807 19.5101 12.158C19.7746 11.8516 20.2432 11.5887 21.104 11.5887H23.12H23.72V10.9887V7.02087V6.51293L23.219 6.4291L23.12 7.02087C23.219 6.4291 23.2189 6.42909 23.2189 6.42908L23.2187 6.42905L23.2183 6.42898L23.2169 6.42875L23.2122 6.42798L23.1951 6.42518L23.131 6.41498C23.0756 6.40629 22.9951 6.39401 22.8934 6.37933C22.6902 6.34999 22.4015 6.31102 22.0575 6.27207C21.3719 6.19445 20.4553 6.11565 19.552 6.11565C17.5989 6.11565 15.92 6.70877 14.7289 7.90468C13.5374 9.10095 12.904 10.83 12.904 12.9646V15.9148H9.43999H8.83999V16.5148V21.1735Z" fill="#C1272D" stroke="#C1272D" stroke-width="1.2"/>
</svg>
