<svg width="47" height="54" viewBox="0 0 47 54" fill="none" xmlns="http://www.w3.org/2000/svg">
<rect x="0.199219" y="0.418457" width="46.8" height="53.235" fill="#FEFCE6"/>
<rect x="0.699219" y="0.918457" width="45.8" height="52.235" stroke="#F1DE0C" stroke-opacity="0.2"/>
<path d="M7.21875 25.1926C7.21875 25.1926 16.8302 28.7122 23.5987 25.1926C30.3673 21.673 39.9787 25.1926 39.9787 25.1926V29.5245C39.9787 29.5245 30.6381 26.1403 23.5987 29.5245C16.5594 32.9088 7.21875 29.5245 7.21875 29.5245V25.1926Z" fill="#F1DE0C"/>
<path d="M36.7163 37.3682C36.7163 37.3682 30.1524 29.5144 22.5308 29.1782C14.9092 28.842 8.34533 20.9882 8.34533 20.9882L10.5113 17.2367C10.5113 17.2367 16.9084 24.8378 24.6968 25.4267C32.4851 26.0155 38.8823 33.6167 38.8823 33.6167L36.7163 37.3682Z" fill="#F1DE0C"/>
<path d="M29.939 42.5819C29.939 42.5819 28.1814 32.4984 21.749 28.3964C15.3166 24.2945 13.559 14.2109 13.559 14.2109L17.3105 12.045C17.3105 12.045 19.05 21.8264 25.5005 26.2305C31.9511 30.6346 33.6905 40.416 33.6905 40.416L29.939 42.5819Z" fill="#F1DE0C"/>
<path d="M21.4629 43.7085C21.4629 43.7085 24.9825 34.0971 21.4629 27.3285C17.9433 20.5599 21.4629 10.9485 21.4629 10.9485L25.7948 10.9485C25.7948 10.9485 22.4105 20.2891 25.7948 27.3285C29.179 34.3678 25.7948 43.7085 25.7948 43.7085H21.4629Z" fill="#F1DE0C"/>
<path d="M13.559 40.4461C13.559 40.4461 21.4128 33.8821 21.749 26.2606C22.0853 18.639 29.939 12.0751 29.939 12.0751L33.6906 14.241C33.6906 14.241 26.0894 20.6381 25.5006 28.4265C24.9118 36.2149 17.3106 42.612 17.3106 42.612L13.559 40.4461Z" fill="#F1DE0C"/>
<path d="M8.34533 33.6688C8.34533 33.6688 18.4289 31.9112 22.5308 25.4788C26.6328 19.0464 36.7163 17.2888 36.7163 17.2888L38.8823 21.0403C38.8823 21.0403 29.1009 22.7798 24.6968 29.2303C20.2927 35.6808 10.5113 37.4203 10.5113 37.4203L8.34533 33.6688Z" fill="#F1DE0C"/>
<path d="M8.95709 20.9286L10.5997 18.0836C10.7786 18.276 11.0064 18.5144 11.2789 18.787C12.012 19.5205 13.0715 20.5044 14.379 21.5076C14.9112 21.9158 15.4866 22.329 16.0998 22.7305C16.7479 23.9075 17.523 25.0813 18.4448 26.1497C17.3901 26.2615 16.3333 26.2791 15.3117 26.2335C14.4404 25.7059 13.6264 25.1342 12.8858 24.5616C11.6103 23.5754 10.5682 22.5987 9.84527 21.8688C9.48406 21.5041 9.20322 21.2017 9.01348 20.9914C8.99368 20.9694 8.97488 20.9485 8.95709 20.9286ZM14.1186 14.4652L16.9636 12.8226C17.0224 13.0787 17.1005 13.3991 17.2001 13.7714C17.4683 14.7732 17.8939 16.155 18.5247 17.6776C18.7814 18.2972 19.0732 18.9427 19.4034 19.5971C19.3772 20.8914 19.4546 22.2422 19.6965 23.5789C18.691 23.127 17.7388 22.5948 16.8569 22.0295C16.4142 21.2049 16.0321 20.375 15.7045 19.5758C15.093 18.084 14.6788 16.7171 14.4177 15.7235C14.2873 15.227 14.1952 14.8247 14.1361 14.5477C14.1299 14.5188 14.1241 14.4913 14.1186 14.4652ZM21.8204 11.4485L25.1055 11.4485C25.0284 11.6997 24.9358 12.0161 24.8359 12.3884C24.5672 13.3901 24.2449 14.7996 24.03 16.4335C23.9424 17.0985 23.8724 17.8034 23.8312 18.5353C23.1614 19.6431 22.553 20.8516 22.0941 22.1302C21.4492 21.2361 20.8908 20.2991 20.4096 19.3686C20.4386 18.433 20.5226 17.5233 20.6385 16.6674C20.8548 15.0697 21.1796 13.6788 21.4503 12.6878C21.5855 12.1926 21.707 11.7982 21.7942 11.5287C21.8033 11.5006 21.812 11.4738 21.8204 11.4485ZM29.9986 12.6868L32.8436 14.3294C32.6513 14.5084 32.4129 14.7361 32.1402 15.0086C31.4067 15.7417 30.4228 16.8012 29.4197 18.1088C29.0114 18.6409 28.5983 19.2164 28.1967 19.8296C27.0627 20.454 25.9316 21.1964 24.8948 22.0743C24.7834 20.9775 24.7683 19.8869 24.8168 18.8405C25.3097 18.0447 25.8373 17.2989 26.3657 16.6156C27.3519 15.3401 28.3286 14.2979 29.0585 13.575C29.4232 13.2138 29.7256 12.933 29.9359 12.7432C29.9578 12.7234 29.9787 12.7046 29.9986 12.6868ZM36.4621 17.8484L38.1046 20.6934C37.8485 20.7522 37.5282 20.8302 37.1558 20.9299C36.154 21.1981 34.7722 21.6237 33.2497 22.2544C32.63 22.5112 31.9845 22.8029 31.3301 23.1332C30.0358 23.107 28.6851 23.1844 27.3483 23.4263C27.8002 22.4207 28.3325 21.4686 28.8977 20.5867C29.7224 20.144 30.5522 19.7619 31.3514 19.4343C32.8433 18.8228 34.2102 18.4086 35.2038 18.1475C35.7002 18.017 36.1025 17.925 36.3795 17.8658C36.4084 17.8597 36.4359 17.8538 36.4621 17.8484ZM39.4787 25.5501V28.8352C39.2276 28.7581 38.9111 28.6656 38.5388 28.5657C37.5371 28.297 36.1277 27.9747 34.4937 27.7597C33.8302 27.6724 33.1269 27.6024 32.3968 27.5612C31.2888 26.8994 30.0779 26.2943 28.7913 25.828C29.6872 25.1814 30.6262 24.6216 31.5587 24.1394C32.4942 24.1683 33.404 24.2523 34.2599 24.3682C35.8576 24.5846 37.2485 24.9094 38.2395 25.18C38.7346 25.3152 39.1291 25.4367 39.3985 25.524C39.4266 25.5331 39.4534 25.5418 39.4787 25.5501ZM38.2697 33.6777L36.6295 36.5185C36.4453 36.3186 36.2095 36.0693 35.9269 35.784C35.1809 35.0308 34.1057 34.023 32.7875 33.0037C32.2297 32.5724 31.6255 32.1368 30.9818 31.7166C30.3788 30.6604 29.6716 29.6067 28.8458 28.6253C29.9477 28.513 31.0435 28.4979 32.0945 28.5469C32.9263 29.0555 33.7011 29.5985 34.4058 30.1392C35.6711 31.1099 36.6977 32.0631 37.4074 32.7732C37.762 33.1281 38.0369 33.4216 38.2223 33.6254C38.2388 33.6435 38.2546 33.661 38.2697 33.6777ZM33.1296 40.1625L30.2887 41.8027C30.2291 41.5374 30.1496 41.2037 30.0475 40.8152C29.778 39.7899 29.3508 38.3796 28.7188 36.8378C28.4514 36.1853 28.1459 35.5061 27.7986 34.8203C27.8047 33.5554 27.7119 32.2366 27.4669 30.9237C28.4398 31.3555 29.3672 31.8705 30.2321 32.4229C30.7478 33.3483 31.185 34.2789 31.5526 35.1661C32.163 36.6395 32.5754 37.9783 32.835 38.9481C32.9647 39.4327 33.056 39.8243 33.1147 40.0935C33.1199 40.1175 33.1249 40.1405 33.1296 40.1625ZM25.4357 43.2085H22.1553C22.2364 42.949 22.3343 42.6202 22.4401 42.2327C22.7194 41.21 23.0546 39.775 23.2782 38.1238C23.3728 37.4251 23.448 36.6841 23.49 35.9166C24.1278 34.8242 24.7068 33.6356 25.151 32.3762C25.7778 33.2366 26.3234 34.1463 26.7962 35.0571C26.7801 36.1163 26.6934 37.1408 26.5681 38.093C26.3601 39.6742 26.0479 41.0398 25.7878 42.0095C25.6578 42.494 25.5411 42.8788 25.4573 43.1413C25.4498 43.1647 25.4426 43.1871 25.4357 43.2085ZM17.2496 41.9994L14.4087 40.3593C14.6087 40.175 14.8579 39.9393 15.1433 39.6566C15.8965 38.9106 16.9043 37.8354 17.9235 36.5172C18.3548 35.9594 18.7904 35.3553 19.2106 34.7116C20.3091 34.0845 21.4048 33.3447 22.4192 32.476C22.5318 33.5345 22.5495 34.5952 22.5035 35.6204C21.96 36.5297 21.3727 37.3736 20.7881 38.1355C19.8173 39.4008 18.8641 40.4274 18.154 41.1371C17.7992 41.4917 17.5057 41.7667 17.3019 41.9521C17.2837 41.9686 17.2663 41.9844 17.2496 41.9994ZM10.7648 36.8593L9.12458 34.0185C9.38985 33.9589 9.72358 33.8793 10.1121 33.7772C11.1373 33.5078 12.5477 33.0805 14.0895 32.4486C14.7419 32.1811 15.4212 31.8757 16.1069 31.5284C17.3718 31.5345 18.6907 31.4417 20.0035 31.1966C19.5718 32.1696 19.0568 33.097 18.5043 33.9618C17.579 34.4776 16.6484 34.9147 15.7611 35.2823C14.2878 35.8927 12.949 36.3051 11.9792 36.5647C11.4946 36.6944 11.1029 36.7858 10.8337 36.8444C10.8097 36.8497 10.7868 36.8546 10.7648 36.8593ZM7.71875 29.1654V25.8851C7.97827 25.9661 8.30707 26.0641 8.69456 26.1699C9.71719 26.4492 11.1522 26.7844 12.8034 27.008C13.5028 27.1027 14.2445 27.1778 15.0127 27.2199C16.1058 27.8658 17.293 28.4479 18.5459 28.8846C17.6871 29.5097 16.7792 30.0541 15.8702 30.5259C14.8109 30.5099 13.7864 30.4232 12.8342 30.2979C11.2531 30.0898 9.88744 29.7776 8.91776 29.5175C8.43323 29.3875 8.0484 29.2708 7.78592 29.187C7.76255 29.1796 7.74016 29.1724 7.71875 29.1654ZM19.4951 28.1416C18.6991 27.9022 17.924 27.595 17.178 27.2415C17.8748 27.2153 18.5807 27.1549 19.2854 27.0513C19.5129 27.2764 19.748 27.4947 19.9911 27.705C19.8289 27.8541 19.6634 27.9997 19.4951 28.1416ZM20.7055 27.0003C20.6384 26.943 20.5718 26.885 20.5059 26.8263C20.5552 26.8152 20.6045 26.804 20.6537 26.7925C20.6797 26.8521 20.7062 26.9116 20.7331 26.9709C20.7239 26.9807 20.7147 26.9905 20.7055 27.0003ZM20.6692 28.44C20.7064 28.4058 20.7434 28.3714 20.7803 28.3368C20.8326 28.3755 20.8853 28.4137 20.9383 28.4516C20.9352 28.4647 20.9321 28.4778 20.929 28.4909C20.8422 28.4748 20.7556 28.4578 20.6692 28.44ZM19.7248 29.2451C20.0343 29.3263 20.347 29.3978 20.6627 29.4583C20.597 29.668 20.5267 29.8762 20.4521 30.0827C19.642 30.2675 18.8217 30.3873 18.007 30.4558C18.5932 30.0869 19.1701 29.6841 19.7248 29.2451ZM21.6132 29.7694C21.6297 29.7167 21.646 29.6638 21.662 29.6109C21.7267 29.6182 21.7914 29.6251 21.8562 29.6314C21.8617 29.6493 21.8671 29.6672 21.8724 29.6852C21.7862 29.7141 21.6998 29.7421 21.6132 29.7694ZM20.3198 32.8327C20.6424 32.2211 20.9402 31.585 21.2007 30.9286C21.5102 30.8473 21.8182 30.7564 22.1241 30.6553C22.1708 30.8651 22.2129 31.0758 22.2508 31.2871C21.6416 31.8521 20.9911 32.3661 20.3198 32.8327ZM23.0996 30.4352C23.09 30.3922 23.0803 30.3492 23.0703 30.3062C23.1374 30.2788 23.2043 30.2508 23.271 30.2222C23.2747 30.2257 23.2784 30.2291 23.282 30.2326C23.2219 30.3008 23.161 30.3683 23.0996 30.4352ZM23.3221 31.6453C23.5494 31.4201 23.7707 31.1874 23.9851 30.9469C24.1304 31.1052 24.2722 31.2666 24.4107 31.4308C24.1656 32.2247 23.8593 32.995 23.5112 33.7348C23.4848 33.0439 23.4246 32.344 23.3221 31.6453ZM24.7198 30.2685C24.69 30.2361 24.6601 30.2037 24.63 30.1715C24.6743 30.1142 24.7183 30.0565 24.7618 29.9984C24.7667 29.9995 24.7716 30.0007 24.7765 30.0019C24.7585 30.091 24.7396 30.1799 24.7198 30.2685ZM26.726 32.9203C26.3577 32.3351 25.9557 31.7591 25.5175 31.2053C25.6018 30.8967 25.6772 30.5844 25.7426 30.2689C25.9475 30.3334 26.1511 30.4022 26.353 30.4752C26.5377 31.2853 26.6576 32.1055 26.726 32.9203ZM26.0396 29.3141C25.9976 29.3009 25.9555 29.2878 25.9133 29.275C25.9178 29.2423 25.9221 29.2096 25.9263 29.1769C25.9475 29.1708 25.9687 29.1648 25.9898 29.1588C26.0067 29.2105 26.0233 29.2622 26.0396 29.3141ZM27.1989 29.7265C27.1277 29.4559 27.0493 29.1863 26.9631 28.9183C27.194 28.869 27.4256 28.8249 27.6576 28.7856C28.1833 29.3631 28.664 29.976 29.1029 30.6074C28.4914 30.2848 27.8553 29.987 27.1989 29.7265ZM26.8134 27.9278C26.7495 27.9412 26.6857 27.955 26.6219 27.9691C26.5947 27.9011 26.567 27.8332 26.5387 27.7655C26.554 27.7496 26.5693 27.7338 26.5846 27.718C26.6617 27.7872 26.7379 27.8571 26.8134 27.9278ZM30.2464 27.5317C29.5155 27.5545 28.7715 27.613 28.0254 27.7171C27.7942 27.4792 27.5549 27.2474 27.3073 27.0231C27.4826 26.865 27.6611 26.7109 27.8424 26.5609C28.6729 26.8258 29.4769 27.1569 30.2464 27.5317ZM26.6824 26.2402C26.6338 26.2837 26.5853 26.3276 26.5372 26.3717C26.4796 26.3264 26.4216 26.2815 26.3633 26.237C26.3686 26.2156 26.374 26.1942 26.3794 26.1729C26.4807 26.1942 26.5817 26.2167 26.6824 26.2402ZM27.6267 25.4517C27.3075 25.3613 26.9844 25.2802 26.6577 25.2097C26.7308 24.9841 26.8088 24.7605 26.8912 24.539C27.7409 24.3478 28.6068 24.2317 29.4684 24.1738C28.8431 24.5608 28.2243 24.9858 27.6267 25.4517ZM25.7215 24.8552C25.7024 24.9136 25.6836 24.9721 25.6651 25.0307C25.5926 25.0202 25.5199 25.0103 25.4471 25.0009C25.4423 24.9843 25.4376 24.9676 25.4328 24.9509C25.5287 24.9179 25.6249 24.886 25.7215 24.8552ZM27.1046 21.6617C26.7564 22.3099 26.4327 22.9879 26.148 23.6908C25.8266 23.775 25.5074 23.8701 25.1912 23.9767C25.1406 23.7406 25.0954 23.5038 25.0553 23.2666C25.6956 22.6761 26.3874 22.1426 27.1046 21.6617ZM24.2004 24.1252C24.2152 24.1954 24.2304 24.2655 24.2461 24.3356C24.1849 24.3616 24.1239 24.388 24.0631 24.415C24.0415 24.3942 24.0199 24.3733 23.9983 24.3524C24.0648 24.2759 24.1322 24.2002 24.2004 24.1252ZM23.9876 22.9036C23.7514 23.1372 23.5224 23.3791 23.302 23.6296C23.1401 23.4504 22.9826 23.2679 22.8292 23.0825C23.0885 22.251 23.4208 21.4431 23.8015 20.668C23.824 21.4035 23.8827 22.1525 23.9876 22.9036ZM22.5182 24.2536C22.5661 24.3069 22.6143 24.3601 22.6629 24.4129C22.623 24.466 22.5834 24.5194 22.5442 24.5731C22.515 24.5659 22.4859 24.5587 22.4568 24.5513C22.4761 24.4518 22.4966 24.3526 22.5182 24.2536ZM20.444 21.4589C20.8313 22.0847 21.2567 22.7039 21.7231 23.302C21.6353 23.6224 21.558 23.9464 21.4923 24.2735C21.2625 24.1992 21.0348 24.12 20.8093 24.0361C20.6181 23.1864 20.5019 22.3205 20.444 21.4589ZM21.1255 25.2058C21.1936 25.2281 21.262 25.25 21.3305 25.2714C21.3177 25.376 21.3061 25.4809 21.2958 25.586C21.283 25.5899 21.2701 25.5938 21.2572 25.5976C21.2112 25.4677 21.1673 25.3371 21.1255 25.2058ZM22.2163 26.7809C22.375 26.5801 22.5282 26.3742 22.6753 26.163C22.9607 26.0496 23.2428 25.9259 23.521 25.7911C23.7489 25.8275 23.9782 25.8584 24.209 25.8836C24.4171 26.0554 24.6306 26.2218 24.8497 26.3824C24.944 26.6351 25.0457 26.886 25.1552 27.1346C25.1105 27.4007 25.0731 27.6688 25.0436 27.9388C24.8719 28.1468 24.7055 28.3603 24.5449 28.5794C24.3436 28.6546 24.1435 28.7343 23.9447 28.819C23.6491 28.7728 23.3511 28.7365 23.0511 28.7109C22.8503 28.5522 22.6444 28.399 22.4333 28.2519C22.3388 28.0141 22.237 27.7785 22.1277 27.5455C22.1648 27.2922 22.1945 27.0373 22.2163 26.7809ZM19.9611 24.7793C20.0555 25.1395 20.1635 25.4971 20.2862 25.8507C20.0712 25.8988 19.8551 25.9421 19.6383 25.9808C19.0073 25.3104 18.4402 24.5807 17.9319 23.8226C18.5802 24.1709 19.2581 24.4945 19.9611 24.7793Z" stroke="#F1DE0C" stroke-opacity="0.2"/>
</svg>
