<svg width="47" height="54" viewBox="0 0 47 54" fill="none" xmlns="http://www.w3.org/2000/svg">
<rect y="0.418457" width="46.8" height="53.235" fill="#D52802"/>
<path d="M21.077 12.1065C22.046 10.5625 24.2958 10.5625 25.2647 12.1065L27.598 15.8246C28.1033 16.6297 29.0255 17.0739 29.97 16.9669L34.3318 16.4729C36.143 16.2678 37.5458 18.0268 36.9427 19.747L35.4906 23.8895C35.1762 24.7865 35.4039 25.7844 36.0764 26.4562L39.1821 29.5584C40.4718 30.8466 39.9712 33.04 38.2503 33.6411L34.1062 35.0885C33.2088 35.402 32.5706 36.2022 32.4647 37.1469L31.9757 41.5092C31.7726 43.3207 29.7456 44.2968 28.2027 43.3261L24.4872 40.9886C23.6826 40.4824 22.6591 40.4824 21.8545 40.9886L18.139 43.3261C16.5961 44.2968 14.5691 43.3207 14.366 41.5092L13.877 37.1469C13.7711 36.2022 13.133 35.402 12.2355 35.0885L8.09146 33.6411C6.37056 33.04 5.86993 30.8466 7.15961 29.5584L10.2653 26.4562C10.9378 25.7844 11.1656 24.7865 10.8511 23.8895L9.39898 19.747C8.79596 18.0268 10.1987 16.2678 12.01 16.4729L16.3717 16.9669C17.3162 17.0739 18.2384 16.6297 18.7437 15.8246L21.077 12.1065Z" fill="white"/>
</svg>
