<svg width="47" height="54" viewBox="0 0 47 54" fill="none" xmlns="http://www.w3.org/2000/svg">
<rect y="0.653564" width="46.8" height="53.235" fill="white"/>
<rect x="0.5" y="1.15356" width="45.8" height="52.235" stroke="#34548D" stroke-opacity="0.1"/>
<path d="M21.0595 25.7436H30.4195V29.3836H21.0595V25.7436Z" fill="#375291"/>
<path d="M39.7795 27.5636C39.7795 31.4406 36.6366 34.5836 32.7595 34.5836C28.8825 34.5836 25.7395 31.4406 25.7395 27.5636C25.7395 23.6866 28.8825 20.5436 32.7595 20.5436C36.6366 20.5436 39.7795 23.6866 39.7795 27.5636Z" fill="#375291"/>
<path d="M25.2195 25.2236V34.5836H21.5795V25.2236H25.2195Z" fill="#375291"/>
<path d="M23.3995 43.9436C19.5225 43.9436 16.3795 40.8006 16.3795 36.9236C16.3795 33.0466 19.5225 29.9036 23.3995 29.9036C27.2766 29.9036 30.4195 33.0466 30.4195 36.9236C30.4195 40.8006 27.2766 43.9436 23.3995 43.9436Z" fill="#375291"/>
<path d="M25.7395 25.7436H16.3795V29.3836H25.7395V25.7436Z" fill="#375291"/>
<path d="M7.01953 27.5636C7.01953 31.4406 10.1625 34.5836 14.0395 34.5836C17.9166 34.5836 21.0595 31.4406 21.0595 27.5636C21.0595 23.6866 17.9166 20.5436 14.0395 20.5436C10.1625 20.5436 7.01953 23.6866 7.01953 27.5636Z" fill="#375291"/>
<path d="M25.2195 29.9036V20.5436H21.5795V29.9036H25.2195Z" fill="#375291"/>
<path d="M23.3995 11.1836C19.5225 11.1836 16.3795 14.3266 16.3795 18.2036C16.3795 22.0806 19.5225 25.2236 23.3995 25.2236C27.2766 25.2236 30.4195 22.0806 30.4195 18.2036C30.4195 14.3266 27.2766 11.1836 23.3995 11.1836Z" fill="#375291"/>
<path d="M20.1347 25.2436H16.3795H15.8795V25.7436V29.3836V29.8836H16.3795H20.1347C20.092 29.9956 20.0463 30.1062 19.9978 30.2152C18.5755 30.9379 17.4138 32.0995 16.6911 33.5218C15.881 33.8829 14.9837 34.0836 14.0395 34.0836C10.4386 34.0836 7.51953 31.1645 7.51953 27.5636C7.51953 23.9627 10.4386 21.0436 14.0395 21.0436C14.9837 21.0436 15.881 21.2443 16.6911 21.6054C17.4138 23.0276 18.5755 24.1893 19.9978 24.912C20.0463 25.021 20.092 25.1315 20.1347 25.2436ZM20.5595 27.5636C20.5595 28.0158 20.5135 28.4573 20.4258 28.8836H16.8795V26.2436H20.4258C20.5135 26.6699 20.5595 27.1114 20.5595 27.5636ZM20.7479 30.9654C20.8569 30.9168 20.9675 30.8711 21.0795 30.8284V34.5836V35.0836H21.5795H25.2195H25.7195V34.5836V30.8284C25.8316 30.8711 25.9421 30.9168 26.0511 30.9654C26.7738 32.3876 27.9355 33.5493 29.3578 34.272C29.7188 35.0821 29.9195 35.9794 29.9195 36.9236C29.9195 40.5245 27.0004 43.4436 23.3995 43.4436C19.7986 43.4436 16.8795 40.5245 16.8795 36.9236C16.8795 35.9794 17.0802 35.0821 17.4413 34.272C18.8636 33.5493 20.0253 32.3876 20.7479 30.9654ZM22.0795 30.5373C22.5058 30.4496 22.9473 30.4036 23.3995 30.4036C23.8518 30.4036 24.2932 30.4496 24.7195 30.5373V34.0836H22.0795V30.5373ZM30.1079 33.5218C29.3853 32.0995 28.2236 30.9379 26.8013 30.2152C26.7527 30.1062 26.707 29.9956 26.6644 29.8836H30.4195H30.9195V29.3836V25.7436V25.2436H30.4195H26.6644C26.707 25.1315 26.7527 25.021 26.8013 24.912C28.2236 24.1893 29.3853 23.0276 30.1079 21.6054C30.918 21.2443 31.8153 21.0436 32.7595 21.0436C36.3604 21.0436 39.2795 23.9627 39.2795 27.5636C39.2795 31.1645 36.3604 34.0836 32.7595 34.0836C31.8153 34.0836 30.918 33.8829 30.1079 33.5218ZM20.7479 24.1618C20.0253 22.7395 18.8636 21.5779 17.4413 20.8552C17.0802 20.0451 16.8795 19.1478 16.8795 18.2036C16.8795 14.6027 19.7986 11.6836 23.3995 11.6836C27.0004 11.6836 29.9195 14.6027 29.9195 18.2036C29.9195 19.1478 29.7188 20.0451 29.3578 20.8552C27.9355 21.5779 26.7738 22.7395 26.0511 24.1618C25.9421 24.2104 25.8316 24.2561 25.7195 24.2988V20.5436V20.0436H25.2195H21.5795H21.0795V20.5436V24.2988C20.9675 24.2561 20.8569 24.2104 20.7479 24.1618ZM22.0795 28.8836V26.2436H24.7195V28.8836H22.0795ZM26.3732 28.8836C26.2856 28.4573 26.2395 28.0158 26.2395 27.5636C26.2395 27.1114 26.2856 26.6699 26.3732 26.2436H29.9195V28.8836H26.3732ZM24.7195 24.5899C24.2932 24.6776 23.8518 24.7236 23.3995 24.7236C22.9473 24.7236 22.5058 24.6776 22.0795 24.5899V21.0436H24.7195V24.5899Z" stroke="#34548D" stroke-opacity="0.1"/>
</svg>
