<svg width="24" height="24" viewBox="0 0 24 24" fill="none" xmlns="http://www.w3.org/2000/svg">
<path d="M11.998 12.4175C10.9503 12.4175 10.0932 11.5603 10.0932 10.5127C10.0932 9.46511 10.9503 8.60796 11.998 8.60796C13.0456 8.60796 13.9027 9.46511 13.9027 10.5127C13.9027 11.5603 13.0456 12.4175 11.998 12.4175ZM17.7122 10.7032C17.7122 7.24606 15.1884 4.79844 11.998 4.79844C8.80748 4.79844 6.28367 7.24606 6.28367 10.7032C6.28367 12.9318 8.14081 15.8842 11.998 19.408C15.8551 15.8842 17.7122 12.9318 17.7122 10.7032ZM11.998 2.89368C15.998 2.89368 19.617 5.96034 19.617 10.7032C19.617 13.8651 17.0741 17.608 11.998 21.9413C6.92176 17.608 4.37891 13.8651 4.37891 10.7032C4.37891 5.96034 7.99795 2.89368 11.998 2.89368Z" fill="#C1272D"/>
</svg>
