<svg width="32" height="33" viewBox="0 0 32 33" fill="none" xmlns="http://www.w3.org/2000/svg">
<circle cx="16" cy="16.4185" r="15.4" fill="#C1272D" stroke="#C1272D" stroke-width="1.2"/>
<path d="M11.8 6.41846H20.2C23.4 6.41846 26 9.01846 26 12.2185V20.6185C26 22.1567 25.3889 23.632 24.3012 24.7197C23.2135 25.8074 21.7383 26.4185 20.2 26.4185H11.8C8.6 26.4185 6 23.8185 6 20.6185V12.2185C6 10.6802 6.61107 9.20495 7.69878 8.11724C8.78649 7.02953 10.2617 6.41846 11.8 6.41846ZM11.6 8.41846C10.6452 8.41846 9.72955 8.79774 9.05442 9.47287C8.37928 10.148 8 11.0637 8 12.0185V20.8185C8 22.8085 9.61 24.4185 11.6 24.4185H20.4C21.3548 24.4185 22.2705 24.0392 22.9456 23.364C23.6207 22.6889 24 21.7732 24 20.8185V12.0185C24 10.0285 22.39 8.41846 20.4 8.41846H11.6ZM21.25 9.91846C21.5815 9.91846 21.8995 10.0502 22.1339 10.2846C22.3683 10.519 22.5 10.8369 22.5 11.1685C22.5 11.5 22.3683 11.8179 22.1339 12.0523C21.8995 12.2868 21.5815 12.4185 21.25 12.4185C20.9185 12.4185 20.6005 12.2868 20.3661 12.0523C20.1317 11.8179 20 11.5 20 11.1685C20 10.8369 20.1317 10.519 20.3661 10.2846C20.6005 10.0502 20.9185 9.91846 21.25 9.91846ZM16 11.4185C17.3261 11.4185 18.5979 11.9452 19.5355 12.8829C20.4732 13.8206 21 15.0924 21 16.4185C21 17.7445 20.4732 19.0163 19.5355 19.954C18.5979 20.8917 17.3261 21.4185 16 21.4185C14.6739 21.4185 13.4021 20.8917 12.4645 19.954C11.5268 19.0163 11 17.7445 11 16.4185C11 15.0924 11.5268 13.8206 12.4645 12.8829C13.4021 11.9452 14.6739 11.4185 16 11.4185ZM16 13.4185C15.2044 13.4185 14.4413 13.7345 13.8787 14.2971C13.3161 14.8597 13 15.6228 13 16.4185C13 17.2141 13.3161 17.9772 13.8787 18.5398C14.4413 19.1024 15.2044 19.4185 16 19.4185C16.7956 19.4185 17.5587 19.1024 18.1213 18.5398C18.6839 17.9772 19 17.2141 19 16.4185C19 15.6228 18.6839 14.8597 18.1213 14.2971C17.5587 13.7345 16.7956 13.4185 16 13.4185Z" fill="#F7F7F7"/>
</svg>
