<svg width="32" height="32" viewBox="0 0 32 32" fill="none" xmlns="http://www.w3.org/2000/svg">
<path d="M8.83999 20.755V21.355H9.43999H12.904V31.2816C5.88798 29.8407 0.6 23.5866 0.6 16.0964C0.6 7.54156 7.53402 0.6 16 0.6C24.4659 0.6 31.4 7.54156 31.4 16.0964L31.4 16.0977C31.4082 19.7876 30.1023 23.3586 27.7185 26.166C25.4876 28.7932 22.4504 30.5897 19.096 31.281V21.355H22.224H22.7384L22.8169 20.8467L23.5369 16.188L23.6438 15.4964H22.944H19.096V13.0763C19.096 12.5294 19.2314 12.0622 19.5101 11.7395C19.7746 11.4332 20.2432 11.1703 21.104 11.1703H23.12H23.72V10.5703V6.60241V6.09447L23.219 6.01064L23.12 6.60241C23.219 6.01064 23.2189 6.01063 23.2189 6.01062L23.2187 6.01059L23.2183 6.01052L23.2169 6.0103L23.2122 6.00952L23.1951 6.00672L23.131 5.99652C23.0756 5.98783 22.9951 5.97555 22.8934 5.96087C22.6902 5.93154 22.4015 5.89256 22.0575 5.85361C21.3719 5.77599 20.4553 5.69719 19.552 5.69719C17.5989 5.69719 15.92 6.29032 14.7289 7.48623C13.5374 8.6825 12.904 10.4116 12.904 12.5462V15.4964H9.43999H8.83999V16.0964V20.755Z" fill="#C1272D" stroke="#C1272D" stroke-width="1.2"/>
</svg>
