<svg width="47" height="54" viewBox="0 0 47 54" fill="none" xmlns="http://www.w3.org/2000/svg">
<rect y="0.234863" width="46.8" height="53.235" fill="white"/>
<rect x="0.5" y="0.734863" width="45.8" height="52.235" stroke="#34548D" stroke-opacity="0.1"/>
<path d="M21.0595 25.3246H30.4195V28.9646H21.0595V25.3246Z" fill="#375291"/>
<path d="M39.7795 27.1446C39.7795 31.0217 36.6366 34.1646 32.7595 34.1646C28.8825 34.1646 25.7395 31.0217 25.7395 27.1446C25.7395 23.2676 28.8825 20.1246 32.7595 20.1246C36.6366 20.1246 39.7795 23.2676 39.7795 27.1446Z" fill="#375291"/>
<path d="M25.2195 24.8046V34.1646H21.5795V24.8046H25.2195Z" fill="#375291"/>
<path d="M23.3995 43.5246C19.5225 43.5246 16.3795 40.3817 16.3795 36.5046C16.3795 32.6276 19.5225 29.4846 23.3995 29.4846C27.2766 29.4846 30.4195 32.6276 30.4195 36.5046C30.4195 40.3817 27.2766 43.5246 23.3995 43.5246Z" fill="#375291"/>
<path d="M25.7395 25.3246H16.3795V28.9646H25.7395V25.3246Z" fill="#375291"/>
<path d="M7.01953 27.1446C7.01953 31.0217 10.1625 34.1646 14.0395 34.1646C17.9166 34.1646 21.0595 31.0217 21.0595 27.1446C21.0595 23.2676 17.9166 20.1246 14.0395 20.1246C10.1625 20.1246 7.01953 23.2676 7.01953 27.1446Z" fill="#375291"/>
<path d="M25.2195 29.4846V20.1246H21.5795V29.4846H25.2195Z" fill="#375291"/>
<path d="M23.3995 10.7646C19.5225 10.7646 16.3795 13.9076 16.3795 17.7846C16.3795 21.6617 19.5225 24.8046 23.3995 24.8046C27.2766 24.8046 30.4195 21.6617 30.4195 17.7846C30.4195 13.9076 27.2766 10.7646 23.3995 10.7646Z" fill="#375291"/>
<path d="M20.1347 24.8246H16.3795H15.8795V25.3246V28.9646V29.4646H16.3795H20.1347C20.092 29.5767 20.0463 29.6873 19.9978 29.7962C18.5755 30.5189 17.4138 31.6806 16.6911 33.1029C15.881 33.4639 14.9837 33.6646 14.0395 33.6646C10.4386 33.6646 7.51953 30.7455 7.51953 27.1446C7.51953 23.5438 10.4386 20.6246 14.0395 20.6246C14.9837 20.6246 15.881 20.8253 16.6911 21.1864C17.4138 22.6087 18.5755 23.7704 19.9978 24.493C20.0463 24.602 20.092 24.7126 20.1347 24.8246ZM20.5595 27.1446C20.5595 27.5969 20.5135 28.0384 20.4258 28.4646H16.8795V25.8246H20.4258C20.5135 26.2509 20.5595 26.6924 20.5595 27.1446ZM20.7479 30.5464C20.8569 30.4978 20.9675 30.4522 21.0795 30.4095V34.1646V34.6646H21.5795H25.2195H25.7195V34.1646V30.4095C25.8316 30.4522 25.9421 30.4978 26.0511 30.5464C26.7738 31.9687 27.9355 33.1304 29.3578 33.853C29.7188 34.6632 29.9195 35.5605 29.9195 36.5046C29.9195 40.1055 27.0004 43.0246 23.3995 43.0246C19.7986 43.0246 16.8795 40.1055 16.8795 36.5046C16.8795 35.5605 17.0802 34.6632 17.4413 33.853C18.8636 33.1304 20.0253 31.9687 20.7479 30.5464ZM22.0795 30.1183C22.5058 30.0307 22.9473 29.9846 23.3995 29.9846C23.8518 29.9846 24.2932 30.0307 24.7195 30.1183V33.6646H22.0795V30.1183ZM30.1079 33.1029C29.3853 31.6806 28.2236 30.5189 26.8013 29.7962C26.7527 29.6873 26.707 29.5767 26.6644 29.4646H30.4195H30.9195V28.9646V25.3246V24.8246H30.4195H26.6644C26.707 24.7126 26.7527 24.602 26.8013 24.493C28.2236 23.7704 29.3853 22.6087 30.1079 21.1864C30.918 20.8253 31.8153 20.6246 32.7595 20.6246C36.3604 20.6246 39.2795 23.5438 39.2795 27.1446C39.2795 30.7455 36.3604 33.6646 32.7595 33.6646C31.8153 33.6646 30.918 33.4639 30.1079 33.1029ZM20.7479 23.7429C20.0253 22.3206 18.8636 21.1589 17.4413 20.4362C17.0802 19.6261 16.8795 18.7288 16.8795 17.7846C16.8795 14.1838 19.7986 11.2646 23.3995 11.2646C27.0004 11.2646 29.9195 14.1838 29.9195 17.7846C29.9195 18.7288 29.7188 19.6261 29.3578 20.4362C27.9355 21.1589 26.7738 22.3206 26.0511 23.7429C25.9421 23.7915 25.8316 23.8371 25.7195 23.8798V20.1246V19.6246H25.2195H21.5795H21.0795V20.1246V23.8798C20.9675 23.8371 20.8569 23.7915 20.7479 23.7429ZM22.0795 28.4646V25.8246H24.7195V28.4646H22.0795ZM26.3732 28.4646C26.2856 28.0384 26.2395 27.5969 26.2395 27.1446C26.2395 26.6924 26.2856 26.2509 26.3732 25.8246H29.9195V28.4646H26.3732ZM24.7195 24.171C24.2932 24.2586 23.8518 24.3046 23.3995 24.3046C22.9473 24.3046 22.5058 24.2586 22.0795 24.171V20.6246H24.7195V24.171Z" stroke="#34548D" stroke-opacity="0.1"/>
</svg>
