<svg width="40" height="40" viewBox="0 0 40 40" fill="none" xmlns="http://www.w3.org/2000/svg">
<rect width="40" height="40" fill="#D52802"/>
<path d="M18.0157 6.98974C18.8439 5.67009 20.7668 5.67009 21.595 6.98974L23.5893 10.1676C24.0211 10.8558 24.8093 11.2354 25.6166 11.1439L29.3446 10.7218C30.8927 10.5464 32.0916 12.0498 31.5762 13.5201L30.3351 17.0607C30.0663 17.8274 30.261 18.6803 30.8358 19.2545L33.4902 21.9059C34.5925 23.0069 34.1646 24.8816 32.6937 25.3954L29.1518 26.6325C28.3848 26.9004 27.8393 27.5844 27.7488 28.3918L27.3308 32.1202C27.1573 33.6685 25.4248 34.5028 24.1061 33.6732L20.9305 31.6753C20.2428 31.2427 19.3679 31.2427 18.6803 31.6753L15.5046 33.6732C14.1859 34.5028 12.4534 33.6685 12.2799 32.1202L11.8619 28.3918C11.7714 27.5844 11.2259 26.9004 10.4589 26.6325L6.91698 25.3954C5.44612 24.8816 5.01823 23.0069 6.12052 21.9059L8.77494 19.2545C9.34976 18.6803 9.54443 17.8274 9.27566 17.0607L8.03452 13.5201C7.51912 12.0498 8.71803 10.5464 10.2661 10.7218L13.9941 11.1439C14.8014 11.2354 15.5896 10.8558 16.0215 10.1676L18.0157 6.98974Z" fill="#FDD3CB"/>
</svg>
