<svg width="40" height="40" viewBox="0 0 40 40" fill="none" xmlns="http://www.w3.org/2000/svg">
<rect width="40" height="40" fill="white"/>
<rect x="0.5" y="0.5" width="39" height="39" stroke="#34548D" stroke-opacity="0.1"/>
<path d="M18 18.4446H26V21.5557H18V18.4446Z" fill="#34548D"/>
<path d="M34 20.0002C34 23.3139 31.3137 26.0002 28 26.0002C24.6863 26.0002 22 23.3139 22 20.0002C22 16.6865 24.6863 14.0002 28 14.0002C31.3137 14.0002 34 16.6865 34 20.0002Z" fill="#34548D"/>
<path d="M21.5556 18.0002V26.0002H18.4444V18.0002H21.5556Z" fill="#34548D"/>
<path d="M20 34.0002C16.6863 34.0002 14 31.3139 14 28.0002C14 24.6865 16.6863 22.0002 20 22.0002C23.3137 22.0002 26 24.6865 26 28.0002C26 31.3139 23.3137 34.0002 20 34.0002Z" fill="#34548D"/>
<path d="M22 18.4446H14V21.5557H22V18.4446Z" fill="#34548D"/>
<path d="M6 20.0002C6 23.3139 8.68629 26.0002 12 26.0002C15.3137 26.0002 18 23.3139 18 20.0002C18 16.6865 15.3137 14.0002 12 14.0002C8.68629 14.0002 6 16.6865 6 20.0002Z" fill="#34548D"/>
<path d="M21.5556 22.0002V14.0002H18.4444V22.0002H21.5556Z" fill="#34548D"/>
<path d="M20 6.00018C16.6863 6.00018 14 8.68647 14 12.0002C14 15.3139 16.6863 18.0002 20 18.0002C23.3137 18.0002 26 15.3139 26 12.0002C26 8.68648 23.3137 6.00018 20 6.00018Z" fill="#34548D"/>
</svg>
