<svg width="32" height="33" viewBox="0 0 32 33" fill="none" xmlns="http://www.w3.org/2000/svg">
<path d="M8.83999 21.173V21.773H9.43999H12.904V31.6995C5.88798 30.2586 0.6 24.0045 0.6 16.5144C0.6 7.95953 7.53402 1.01797 16 1.01797C24.4659 1.01797 31.4 7.95953 31.4 16.5144L31.4 16.5157C31.4082 20.2056 30.1023 23.7765 27.7185 26.5839C25.4876 29.2112 22.4504 31.0077 19.096 31.6989V21.773H22.224H22.7384L22.8169 21.2646L23.5369 16.606L23.6438 15.9144H22.944H19.096V13.4943C19.096 12.9474 19.2314 12.4802 19.5101 12.1575C19.7746 11.8511 20.2432 11.5883 21.104 11.5883H23.12H23.72V10.9883V7.02038V6.51244L23.219 6.42861L23.12 7.02038C23.219 6.42861 23.2189 6.4286 23.2189 6.42859L23.2187 6.42856L23.2183 6.42849L23.2169 6.42827L23.2122 6.42749L23.1951 6.42469L23.131 6.41449C23.0756 6.4058 22.9951 6.39352 22.8934 6.37884C22.6902 6.3495 22.4015 6.31053 22.0575 6.27158C21.3719 6.19396 20.4553 6.11516 19.552 6.11516C17.5989 6.11516 15.92 6.70828 14.7289 7.9042C13.5374 9.10046 12.904 10.8296 12.904 12.9642V15.9144H9.43999H8.83999V16.5144V21.173Z" fill="#C1272D" stroke="#C1272D" stroke-width="1.2"/>
</svg>
