<svg width="47" height="54" viewBox="0 0 47 54" fill="none" xmlns="http://www.w3.org/2000/svg">
<rect y="0.652832" width="46.8" height="53.235" fill="white"/>
<rect x="0.5" y="1.15283" width="45.8" height="52.235" stroke="#34548D" stroke-opacity="0.1"/>
<path d="M21.0595 25.7426H30.4195V29.3826H21.0595V25.7426Z" fill="#375291"/>
<path d="M39.7795 27.5626C39.7795 31.4397 36.6366 34.5826 32.7595 34.5826C28.8825 34.5826 25.7395 31.4397 25.7395 27.5626C25.7395 23.6856 28.8825 20.5426 32.7595 20.5426C36.6366 20.5426 39.7795 23.6856 39.7795 27.5626Z" fill="#375291"/>
<path d="M25.2195 25.2226V34.5826H21.5795V25.2226H25.2195Z" fill="#375291"/>
<path d="M23.3995 43.9426C19.5225 43.9426 16.3795 40.7997 16.3795 36.9226C16.3795 33.0456 19.5225 29.9026 23.3995 29.9026C27.2766 29.9026 30.4195 33.0456 30.4195 36.9226C30.4195 40.7997 27.2766 43.9426 23.3995 43.9426Z" fill="#375291"/>
<path d="M25.7395 25.7426H16.3795V29.3826H25.7395V25.7426Z" fill="#375291"/>
<path d="M7.01953 27.5626C7.01953 31.4397 10.1625 34.5826 14.0395 34.5826C17.9166 34.5826 21.0595 31.4397 21.0595 27.5626C21.0595 23.6856 17.9166 20.5426 14.0395 20.5426C10.1625 20.5426 7.01953 23.6856 7.01953 27.5626Z" fill="#375291"/>
<path d="M25.2195 29.9026V20.5426H21.5795V29.9026H25.2195Z" fill="#375291"/>
<path d="M23.3995 11.1826C19.5225 11.1826 16.3795 14.3256 16.3795 18.2026C16.3795 22.0797 19.5225 25.2226 23.3995 25.2226C27.2766 25.2226 30.4195 22.0797 30.4195 18.2026C30.4195 14.3256 27.2766 11.1826 23.3995 11.1826Z" fill="#375291"/>
<path d="M20.1347 25.2426H16.3795H15.8795V25.7426V29.3826V29.8826H16.3795H20.1347C20.092 29.9947 20.0463 30.1052 19.9978 30.2142C18.5755 30.9369 17.4138 32.0986 16.6911 33.5209C15.881 33.8819 14.9837 34.0826 14.0395 34.0826C10.4386 34.0826 7.51953 31.1635 7.51953 27.5626C7.51953 23.9617 10.4386 21.0426 14.0395 21.0426C14.9837 21.0426 15.881 21.2433 16.6911 21.6044C17.4138 23.0267 18.5755 24.1884 19.9978 24.911C20.0463 25.02 20.092 25.1306 20.1347 25.2426ZM20.5595 27.5626C20.5595 28.0148 20.5135 28.4563 20.4258 28.8826H16.8795V26.2426H20.4258C20.5135 26.6689 20.5595 27.1104 20.5595 27.5626ZM20.7479 30.9644C20.8569 30.9158 20.9675 30.8701 21.0795 30.8275V34.5826V35.0826H21.5795H25.2195H25.7195V34.5826V30.8275C25.8316 30.8701 25.9421 30.9158 26.0511 30.9644C26.7738 32.3867 27.9355 33.5484 29.3578 34.271C29.7188 35.0811 29.9195 35.9784 29.9195 36.9226C29.9195 40.5235 27.0004 43.4426 23.3995 43.4426C19.7986 43.4426 16.8795 40.5235 16.8795 36.9226C16.8795 35.9784 17.0802 35.0811 17.4413 34.271C18.8636 33.5484 20.0253 32.3867 20.7479 30.9644ZM22.0795 30.5363C22.5058 30.4487 22.9473 30.4026 23.3995 30.4026C23.8518 30.4026 24.2932 30.4487 24.7195 30.5363V34.0826H22.0795V30.5363ZM30.1079 33.5209C29.3853 32.0986 28.2236 30.9369 26.8013 30.2142C26.7527 30.1052 26.707 29.9947 26.6644 29.8826H30.4195H30.9195V29.3826V25.7426V25.2426H30.4195H26.6644C26.707 25.1306 26.7527 25.02 26.8013 24.911C28.2236 24.1884 29.3853 23.0267 30.1079 21.6044C30.918 21.2433 31.8153 21.0426 32.7595 21.0426C36.3604 21.0426 39.2795 23.9617 39.2795 27.5626C39.2795 31.1635 36.3604 34.0826 32.7595 34.0826C31.8153 34.0826 30.918 33.8819 30.1079 33.5209ZM20.7479 24.1609C20.0253 22.7386 18.8636 21.5769 17.4413 20.8542C17.0802 20.0441 16.8795 19.1468 16.8795 18.2026C16.8795 14.6017 19.7986 11.6826 23.3995 11.6826C27.0004 11.6826 29.9195 14.6017 29.9195 18.2026C29.9195 19.1468 29.7188 20.0441 29.3578 20.8542C27.9355 21.5769 26.7738 22.7386 26.0511 24.1609C25.9421 24.2094 25.8316 24.2551 25.7195 24.2978V20.5426V20.0426H25.2195H21.5795H21.0795V20.5426V24.2978C20.9675 24.2551 20.8569 24.2094 20.7479 24.1609ZM22.0795 28.8826V26.2426H24.7195V28.8826H22.0795ZM26.3732 28.8826C26.2856 28.4563 26.2395 28.0148 26.2395 27.5626C26.2395 27.1104 26.2856 26.6689 26.3732 26.2426H29.9195V28.8826H26.3732ZM24.7195 24.5889C24.2932 24.6766 23.8518 24.7226 23.3995 24.7226C22.9473 24.7226 22.5058 24.6766 22.0795 24.5889V21.0426H24.7195V24.5889Z" stroke="#34548D" stroke-opacity="0.1"/>
</svg>
