<svg width="42" height="43" viewBox="0 0 42 43" fill="none" xmlns="http://www.w3.org/2000/svg">
<circle cx="21" cy="21.418" r="20" fill="#FEFCE6" stroke="#C1272D" stroke-width="2"/>
<path d="M15.2047 30.034C12.5198 30.034 11 27.9063 11 24.1576C11 19.345 13.3303 15.8496 17.7376 13.418L19.2573 16.1029C16.1672 17.9266 14.6474 19.9529 14.6474 23.2964L15.2047 27.4504L12.6717 24.2082C13.4316 23.5497 14.1915 23.1444 15.2047 23.1444C17.0284 23.1444 18.5988 24.3602 18.5988 26.4372C18.5988 28.6662 17.1803 30.034 15.2047 30.034ZM26.2989 30.034C23.6646 30.034 22.1449 27.9063 22.1449 24.1576C22.1449 19.345 24.4752 15.8496 28.8825 13.418L30.3516 16.1029C27.312 17.9266 25.843 19.9529 25.843 23.2964L26.2989 27.4504L23.8166 24.2082C24.5765 23.5497 25.3364 23.1444 26.2989 23.1444C28.1226 23.1444 29.7437 24.3602 29.7437 26.4372C29.7437 28.6662 28.3252 30.034 26.2989 30.034Z" fill="#C1272D"/>
</svg>
