<svg width="47" height="54" viewBox="0 0 47 54" fill="none" xmlns="http://www.w3.org/2000/svg">
<rect y="0.417969" width="46.8" height="53.235" fill="#D52802"/>
<path d="M21.077 12.1058C22.046 10.5618 24.2958 10.5618 25.2647 12.1058L27.598 15.8239C28.1033 16.629 29.0255 17.0731 29.97 16.9662L34.3318 16.4722C36.143 16.2671 37.5458 18.0261 36.9427 19.7463L35.4906 23.8887C35.1762 24.7858 35.4039 25.7837 36.0764 26.4555L39.1821 29.5576C40.4718 30.8459 39.9712 33.0392 38.2503 33.6403L34.1062 35.0878C33.2088 35.4012 32.5706 36.2015 32.4647 37.1461L31.9757 41.5084C31.7726 43.3199 29.7456 44.2961 28.2027 43.3254L24.4872 40.9879C23.6826 40.4817 22.6591 40.4817 21.8545 40.9879L18.139 43.3254C16.5961 44.2961 14.5691 43.3199 14.366 41.5084L13.877 37.1461C13.7711 36.2015 13.133 35.4012 12.2355 35.0878L8.09146 33.6403C6.37056 33.0393 5.86993 30.8459 7.15961 29.5576L10.2653 26.4555C10.9378 25.7837 11.1656 24.7858 10.8511 23.8887L9.39898 19.7463C8.79596 18.0261 10.1987 16.2671 12.01 16.4722L16.3717 16.9662C17.3162 17.0731 18.2384 16.629 18.7437 15.8239L21.077 12.1058Z" fill="white"/>
</svg>
