<svg width="47" height="54" viewBox="0 0 47 54" fill="none" xmlns="http://www.w3.org/2000/svg">
<rect x="0.199219" y="0.417969" width="46.8" height="53.235" fill="#FEFCE6"/>
<rect x="0.699219" y="0.917969" width="45.8" height="52.235" stroke="#F1DE0C" stroke-opacity="0.2"/>
<path d="M7.21875 25.1919C7.21875 25.1919 16.8302 28.7115 23.5987 25.1919C30.3673 21.6723 39.9787 25.1919 39.9787 25.1919V29.5238C39.9787 29.5238 30.6381 26.1395 23.5987 29.5238C16.5594 32.908 7.21875 29.5238 7.21875 29.5238V25.1919Z" fill="#F1DE0C"/>
<path d="M36.7163 37.3675C36.7163 37.3675 30.1524 29.5137 22.5308 29.1775C14.9092 28.8413 8.34533 20.9875 8.34533 20.9875L10.5113 17.2359C10.5113 17.2359 16.9084 24.8371 24.6968 25.4259C32.4851 26.0148 38.8823 33.6159 38.8823 33.6159L36.7163 37.3675Z" fill="#F1DE0C"/>
<path d="M29.939 42.5812C29.939 42.5812 28.1814 32.4977 21.749 28.3957C15.3166 24.2937 13.559 14.2102 13.559 14.2102L17.3105 12.0442C17.3105 12.0442 19.05 21.8256 25.5005 26.2297C31.9511 30.6339 33.6905 40.4152 33.6905 40.4152L29.939 42.5812Z" fill="#F1DE0C"/>
<path d="M21.4629 43.7078C21.4629 43.7078 24.9825 34.0963 21.4629 27.3278C17.9433 20.5592 21.4629 10.9478 21.4629 10.9478L25.7948 10.9478C25.7948 10.9478 22.4105 20.2884 25.7948 27.3278C29.179 34.3671 25.7948 43.7078 25.7948 43.7078H21.4629Z" fill="#F1DE0C"/>
<path d="M13.559 40.4453C13.559 40.4453 21.4128 33.8814 21.749 26.2598C22.0853 18.6382 29.939 12.0743 29.939 12.0743L33.6906 14.2403C33.6906 14.2403 26.0894 20.6374 25.5006 28.4258C24.9118 36.2141 17.3106 42.6113 17.3106 42.6113L13.559 40.4453Z" fill="#F1DE0C"/>
<path d="M8.34533 33.668C8.34533 33.668 18.4289 31.9104 22.5308 25.478C26.6328 19.0457 36.7163 17.288 36.7163 17.288L38.8823 21.0396C38.8823 21.0396 29.1009 22.7791 24.6968 29.2296C20.2927 35.6801 10.5113 37.4196 10.5113 37.4196L8.34533 33.668Z" fill="#F1DE0C"/>
<path d="M8.95709 20.9279L10.5997 18.0829C10.7786 18.2752 11.0064 18.5136 11.2789 18.7863C12.012 19.5198 13.0715 20.5037 14.379 21.5068C14.9112 21.9151 15.4866 22.3282 16.0998 22.7298C16.7479 23.9067 17.523 25.0805 18.4448 26.1489C17.3901 26.2607 16.3333 26.2784 15.3117 26.2328C14.4404 25.7052 13.6264 25.1334 12.8858 24.5608C11.6103 23.5746 10.5682 22.5979 9.84527 21.868C9.48406 21.5033 9.20322 21.2009 9.01348 20.9906C8.99368 20.9687 8.97488 20.9478 8.95709 20.9279ZM14.1186 14.4645L16.9636 12.8219C17.0224 13.078 17.1005 13.3983 17.2001 13.7707C17.4683 14.7725 17.8939 16.1543 18.5247 17.6768C18.7814 18.2965 19.0732 18.942 19.4034 19.5964C19.3772 20.8907 19.4546 22.2414 19.6965 23.5782C18.691 23.1263 17.7388 22.594 16.8569 22.0288C16.4142 21.2041 16.0321 20.3743 15.7045 19.5751C15.093 18.0832 14.6788 16.7163 14.4177 15.7228C14.2873 15.2263 14.1952 14.824 14.1361 14.547C14.1299 14.5181 14.1241 14.4906 14.1186 14.4645ZM21.8204 11.4478L25.1055 11.4478C25.0284 11.6989 24.9358 12.0154 24.8359 12.3877C24.5672 13.3894 24.2449 14.7988 24.03 16.4328C23.9424 17.0978 23.8724 17.8027 23.8312 18.5346C23.1614 19.6424 22.553 20.8508 22.0941 22.1295C21.4492 21.2353 20.8908 20.2983 20.4096 19.3679C20.4386 18.4323 20.5226 17.5226 20.6385 16.6666C20.8548 15.0689 21.1796 13.6781 21.4503 12.687C21.5855 12.1919 21.707 11.7974 21.7942 11.528C21.8033 11.4999 21.812 11.4731 21.8204 11.4478ZM29.9986 12.6861L32.8436 14.3287C32.6513 14.5076 32.4129 14.7354 32.1402 15.0079C31.4067 15.741 30.4228 16.8005 29.4197 18.108C29.0114 18.6402 28.5983 19.2156 28.1967 19.8288C27.0627 20.4533 25.9316 21.1957 24.8948 22.0736C24.7834 20.9768 24.7683 19.8861 24.8168 18.8398C25.3097 18.044 25.8373 17.2981 26.3657 16.6148C27.3519 15.3394 28.3286 14.2972 29.0585 13.5743C29.4232 13.2131 29.7256 12.9322 29.9359 12.7425C29.9578 12.7227 29.9787 12.7039 29.9986 12.6861ZM36.4621 17.8476L38.1046 20.6927C37.8485 20.7515 37.5282 20.8295 37.1558 20.9292C36.154 21.1973 34.7722 21.6229 33.2497 22.2537C32.63 22.5104 31.9845 22.8022 31.3301 23.1325C30.0358 23.1063 28.6851 23.1836 27.3483 23.4256C27.8002 22.42 28.3325 21.4679 28.8977 20.586C29.7224 20.1433 30.5522 19.7611 31.3514 19.4335C32.8433 18.8221 34.2102 18.4079 35.2038 18.1468C35.7002 18.0163 36.1025 17.9243 36.3795 17.8651C36.4084 17.8589 36.4359 17.8531 36.4621 17.8476ZM39.4787 25.5494V28.8345C39.2276 28.7574 38.9111 28.6648 38.5388 28.565C37.5371 28.2963 36.1277 27.974 34.4937 27.759C33.8302 27.6717 33.1269 27.6017 32.3968 27.5605C31.2888 26.8987 30.0779 26.2936 28.7913 25.8273C29.6872 25.1806 30.6262 24.6208 31.5587 24.1386C32.4942 24.1676 33.404 24.2516 34.2599 24.3675C35.8576 24.5839 37.2485 24.9086 38.2395 25.1793C38.7346 25.3145 39.1291 25.436 39.3985 25.5232C39.4266 25.5323 39.4534 25.541 39.4787 25.5494ZM38.2697 33.6769L36.6295 36.5178C36.4453 36.3178 36.2095 36.0686 35.9269 35.7832C35.1809 35.03 34.1057 34.0223 32.7875 33.003C32.2297 32.5717 31.6255 32.1361 30.9818 31.7159C30.3788 30.6596 29.6716 29.6059 28.8458 28.6246C29.9477 28.5122 31.0435 28.4971 32.0945 28.5462C32.9263 29.0548 33.7011 29.5978 34.4058 30.1384C35.6711 31.1092 36.6977 32.0624 37.4074 32.7725C37.762 33.1273 38.0369 33.4208 38.2223 33.6246C38.2388 33.6428 38.2546 33.6602 38.2697 33.6769ZM33.1296 40.1618L30.2887 41.8019C30.2291 41.5367 30.1496 41.2029 30.0475 40.8145C29.778 39.7892 29.3508 38.3788 28.7188 36.837C28.4514 36.1846 28.1459 35.5053 27.7986 34.8196C27.8047 33.5547 27.7119 32.2358 27.4669 30.923C28.4398 31.3547 29.3672 31.8697 30.2321 32.4221C30.7478 33.3475 31.185 34.2781 31.5526 35.1654C32.163 36.6387 32.5754 37.9775 32.835 38.9474C32.9647 39.432 33.056 39.8236 33.1147 40.0928C33.1199 40.1168 33.1249 40.1398 33.1296 40.1618ZM25.4357 43.2078H22.1553C22.2364 42.9482 22.3343 42.6194 22.4401 42.2319C22.7194 41.2093 23.0546 39.7743 23.2782 38.1231C23.3728 37.4243 23.448 36.6834 23.49 35.9158C24.1278 34.8235 24.7068 33.6349 25.151 32.3754C25.7778 33.2358 26.3234 34.1455 26.7962 35.0564C26.7801 36.1156 26.6934 37.1401 26.5681 38.0923C26.3601 39.6734 26.0479 41.0391 25.7878 42.0087C25.6578 42.4933 25.5411 42.8781 25.4573 43.1406C25.4498 43.1639 25.4426 43.1863 25.4357 43.2078ZM17.2496 41.9987L14.4087 40.3585C14.6087 40.1743 14.8579 39.9385 15.1433 39.6559C15.8965 38.9099 16.9043 37.8347 17.9235 36.5165C18.3548 35.9587 18.7904 35.3545 19.2106 34.7109C20.3091 34.0837 21.4048 33.3439 22.4192 32.4753C22.5318 33.5338 22.5495 34.5945 22.5035 35.6197C21.96 36.529 21.3727 37.3728 20.7881 38.1348C19.8173 39.4001 18.8641 40.4267 18.154 41.1364C17.7992 41.491 17.5057 41.7659 17.3019 41.9513C17.2837 41.9678 17.2663 41.9836 17.2496 41.9987ZM10.7648 36.8586L9.12458 34.0177C9.38985 33.9582 9.72358 33.8786 10.1121 33.7765C11.1373 33.507 12.5477 33.0798 14.0895 32.4478C14.7419 32.1804 15.4212 31.875 16.1069 31.5276C17.3718 31.5337 18.6907 31.4409 20.0035 31.1959C19.5718 32.1689 19.0568 33.0963 18.5043 33.9611C17.579 34.4768 16.6484 34.914 15.7611 35.2816C14.2878 35.892 12.949 36.3044 11.9792 36.564C11.4946 36.6937 11.1029 36.785 10.8337 36.8437C10.8097 36.8489 10.7868 36.8539 10.7648 36.8586ZM7.71875 29.1647V25.8844C7.97827 25.9654 8.30707 26.0633 8.69456 26.1692C9.71719 26.4485 11.1522 26.7836 12.8034 27.0072C13.5028 27.1019 14.2445 27.1771 15.0127 27.2191C16.1058 27.865 17.293 28.4472 18.5459 28.8838C17.6871 29.509 16.7792 30.0534 15.8702 30.5252C14.8109 30.5091 13.7864 30.4224 12.8342 30.2972C11.2531 30.0891 9.88744 29.7769 8.91776 29.5168C8.43323 29.3868 8.0484 29.2701 7.78592 29.1863C7.76255 29.1788 7.74016 29.1716 7.71875 29.1647ZM19.4951 28.1409C18.6991 27.9015 17.924 27.5943 17.178 27.2407C17.8748 27.2146 18.5807 27.1542 19.2854 27.0506C19.5129 27.2757 19.748 27.494 19.9911 27.7042C19.8289 27.8534 19.6634 27.9989 19.4951 28.1409ZM20.7055 26.9996C20.6384 26.9422 20.5718 26.8842 20.5059 26.8255C20.5552 26.8145 20.6045 26.8032 20.6537 26.7917C20.6797 26.8514 20.7062 26.9109 20.7331 26.9702C20.7239 26.98 20.7147 26.9898 20.7055 26.9996ZM20.6692 28.4392C20.7064 28.405 20.7434 28.3706 20.7803 28.3361C20.8326 28.3747 20.8853 28.413 20.9383 28.4509C20.9352 28.464 20.9321 28.4771 20.929 28.4901C20.8422 28.4741 20.7556 28.4571 20.6692 28.4392ZM19.7248 29.2443C20.0343 29.3256 20.347 29.3971 20.6627 29.4576C20.597 29.6673 20.5267 29.8755 20.4521 30.082C19.642 30.2667 18.8217 30.3866 18.007 30.455C18.5932 30.0861 19.1701 29.6834 19.7248 29.2443ZM21.6132 29.7686C21.6297 29.7159 21.646 29.6631 21.662 29.6102C21.7267 29.6175 21.7914 29.6243 21.8562 29.6307C21.8617 29.6486 21.8671 29.6665 21.8724 29.6844C21.7862 29.7134 21.6998 29.7414 21.6132 29.7686ZM20.3198 32.8319C20.6424 32.2204 20.9402 31.5843 21.2007 30.9279C21.5102 30.8465 21.8182 30.7557 22.1241 30.6546C22.1708 30.8643 22.2129 31.075 22.2508 31.2864C21.6416 31.8514 20.9911 32.3653 20.3198 32.8319ZM23.0996 30.4344C23.09 30.3914 23.0803 30.3484 23.0703 30.3055C23.1374 30.278 23.2043 30.25 23.271 30.2215C23.2747 30.225 23.2784 30.2284 23.282 30.2319C23.2219 30.3 23.161 30.3675 23.0996 30.4344ZM23.3221 31.6446C23.5494 31.4194 23.7707 31.1867 23.9851 30.9462C24.1304 31.1045 24.2722 31.2659 24.4107 31.43C24.1656 32.224 23.8593 32.9943 23.5112 33.734C23.4848 33.0431 23.4246 32.3433 23.3221 31.6446ZM24.7198 30.2678C24.69 30.2353 24.6601 30.203 24.63 30.1708C24.6743 30.1135 24.7183 30.0558 24.7618 29.9976C24.7667 29.9988 24.7716 30 24.7765 30.0011C24.7585 30.0903 24.7396 30.1791 24.7198 30.2678ZM26.726 32.9195C26.3577 32.3344 25.9557 31.7584 25.5175 31.2046C25.6018 30.8959 25.6772 30.5837 25.7426 30.2682C25.9475 30.3326 26.1511 30.4015 26.353 30.4744C26.5377 31.2845 26.6576 32.1048 26.726 32.9195ZM26.0396 29.3133C25.9976 29.3001 25.9555 29.2871 25.9133 29.2742C25.9178 29.2416 25.9221 29.2089 25.9263 29.1761C25.9475 29.1701 25.9687 29.164 25.9898 29.158C26.0067 29.2097 26.0233 29.2615 26.0396 29.3133ZM27.1989 29.7258C27.1277 29.4551 27.0493 29.1855 26.9631 28.9175C27.194 28.8683 27.4256 28.8241 27.6576 28.7849C28.1833 29.3624 28.664 29.9753 29.1029 30.6067C28.4914 30.2841 27.8553 29.9863 27.1989 29.7258ZM26.8134 27.9271C26.7495 27.9405 26.6857 27.9542 26.6219 27.9684C26.5947 27.9004 26.567 27.8325 26.5387 27.7647C26.554 27.7489 26.5693 27.7331 26.5846 27.7173C26.6617 27.7864 26.7379 27.8564 26.8134 27.9271ZM30.2464 27.5309C29.5155 27.5537 28.7715 27.6123 28.0254 27.7164C27.7942 27.4784 27.5549 27.2467 27.3073 27.0224C27.4826 26.8642 27.6611 26.7102 27.8424 26.5602C28.6729 26.8251 29.4769 27.1561 30.2464 27.5309ZM26.6824 26.2395C26.6338 26.283 26.5853 26.3268 26.5372 26.371C26.4796 26.3257 26.4216 26.2808 26.3633 26.2362C26.3686 26.2149 26.374 26.1935 26.3794 26.1721C26.4807 26.1935 26.5817 26.2159 26.6824 26.2395ZM27.6267 25.451C27.3075 25.3605 26.9844 25.2795 26.6577 25.209C26.7308 24.9834 26.8088 24.7598 26.8912 24.5383C27.7409 24.3471 28.6068 24.2309 29.4684 24.1731C28.8431 24.5601 28.2243 24.985 27.6267 25.451ZM25.7215 24.8545C25.7024 24.9128 25.6836 24.9713 25.6651 25.03C25.5926 25.0195 25.5199 25.0096 25.4471 25.0002C25.4423 24.9835 25.4376 24.9668 25.4328 24.9502C25.5287 24.9171 25.6249 24.8853 25.7215 24.8545ZM27.1046 21.6609C26.7564 22.3092 26.4327 22.9872 26.148 23.6901C25.8266 23.7743 25.5074 23.8693 25.1912 23.976C25.1406 23.7399 25.0954 23.5031 25.0553 23.2659C25.6956 22.6754 26.3874 22.1418 27.1046 21.6609ZM24.2004 24.1245C24.2152 24.1947 24.2304 24.2648 24.2461 24.3349C24.1849 24.3608 24.1239 24.3873 24.0631 24.4142C24.0415 24.3934 24.0199 24.3726 23.9983 24.3517C24.0648 24.2751 24.1322 24.1994 24.2004 24.1245ZM23.9876 22.9029C23.7514 23.1365 23.5224 23.3784 23.302 23.6288C23.1401 23.4497 22.9826 23.2671 22.8292 23.0818C23.0885 22.2503 23.4208 21.4423 23.8015 20.6672C23.824 21.4028 23.8827 22.1518 23.9876 22.9029ZM22.5182 24.2528C22.5661 24.3062 22.6143 24.3593 22.6629 24.4122C22.623 24.4652 22.5834 24.5186 22.5442 24.5724C22.515 24.5652 22.4859 24.5579 22.4568 24.5506C22.4761 24.4511 22.4966 24.3518 22.5182 24.2528ZM20.444 21.4582C20.8313 22.0839 21.2567 22.7032 21.7231 23.3013C21.6353 23.6216 21.558 23.9456 21.4923 24.2728C21.2625 24.1985 21.0348 24.1192 20.8093 24.0354C20.6181 23.1856 20.5019 22.3198 20.444 21.4582ZM21.1255 25.205C21.1936 25.2273 21.262 25.2492 21.3305 25.2707C21.3177 25.3753 21.3061 25.4801 21.2958 25.5853C21.283 25.5892 21.2701 25.593 21.2572 25.5969C21.2112 25.467 21.1673 25.3363 21.1255 25.205ZM22.2163 26.7802C22.375 26.5794 22.5282 26.3734 22.6753 26.1623C22.9607 26.0489 23.2428 25.9251 23.521 25.7904C23.7489 25.8267 23.9782 25.8577 24.209 25.8829C24.4171 26.0546 24.6306 26.2211 24.8497 26.3816C24.944 26.6344 25.0457 26.8853 25.1552 27.1339C25.1105 27.3999 25.0731 27.668 25.0436 27.9381C24.8719 28.1461 24.7055 28.3596 24.5449 28.5787C24.3436 28.6538 24.1435 28.7336 23.9447 28.8183C23.6491 28.7721 23.3511 28.7357 23.0511 28.7102C22.8503 28.5515 22.6444 28.3983 22.4333 28.2512C22.3388 28.0134 22.237 27.7777 22.1277 27.5448C22.1648 27.2915 22.1945 27.0366 22.2163 26.7802ZM19.9611 24.7785C20.0555 25.1388 20.1635 25.4964 20.2862 25.85C20.0712 25.8981 19.8551 25.9414 19.6383 25.9801C19.0073 25.3096 18.4402 24.58 17.9319 23.8218C18.5802 24.1701 19.2581 24.4938 19.9611 24.7785Z" stroke="#F1DE0C" stroke-opacity="0.2"/>
</svg>
