<svg width="42" height="43" viewBox="0 0 42 43" fill="none" xmlns="http://www.w3.org/2000/svg">
<circle cx="21" cy="21.709" r="20" fill="#FEFCE6" stroke="#C1272D" stroke-width="2"/>
<path d="M15.2047 30.325C12.5198 30.325 11 28.1973 11 24.4486C11 19.636 13.3303 16.1406 17.7376 13.709L19.2573 16.3939C16.1672 18.2176 14.6474 20.2439 14.6474 23.5874L15.2047 27.7414L12.6717 24.4993C13.4316 23.8407 14.1915 23.4354 15.2047 23.4354C17.0284 23.4354 18.5988 24.6512 18.5988 26.7282C18.5988 28.9572 17.1803 30.325 15.2047 30.325ZM26.2989 30.325C23.6646 30.325 22.1449 28.1973 22.1449 24.4486C22.1449 19.636 24.4752 16.1406 28.8825 13.709L30.3516 16.3939C27.312 18.2176 25.843 20.2439 25.843 23.5874L26.2989 27.7414L23.8166 24.4993C24.5765 23.8407 25.3364 23.4354 26.2989 23.4354C28.1226 23.4354 29.7437 24.6512 29.7437 26.7282C29.7437 28.9572 28.3252 30.325 26.2989 30.325Z" fill="#C1272D"/>
</svg>
