<svg width="32" height="33" viewBox="0 0 32 33" fill="none" xmlns="http://www.w3.org/2000/svg">
<circle cx="16" cy="16.418" r="15.4" fill="#C1272D" stroke="#C1272D" stroke-width="1.2"/>
<path d="M11.8 6.41797H20.2C23.4 6.41797 26 9.01797 26 12.218V20.618C26 22.1562 25.3889 23.6315 24.3012 24.7192C23.2135 25.8069 21.7383 26.418 20.2 26.418H11.8C8.6 26.418 6 23.818 6 20.618V12.218C6 10.6797 6.61107 9.20446 7.69878 8.11675C8.78649 7.02904 10.2617 6.41797 11.8 6.41797ZM11.6 8.41797C10.6452 8.41797 9.72955 8.79725 9.05442 9.47238C8.37928 10.1475 8 11.0632 8 12.018V20.818C8 22.808 9.61 24.418 11.6 24.418H20.4C21.3548 24.418 22.2705 24.0387 22.9456 23.3636C23.6207 22.6884 24 21.7727 24 20.818V12.018C24 10.028 22.39 8.41797 20.4 8.41797H11.6ZM21.25 9.91797C21.5815 9.91797 21.8995 10.0497 22.1339 10.2841C22.3683 10.5185 22.5 10.8364 22.5 11.168C22.5 11.4995 22.3683 11.8174 22.1339 12.0519C21.8995 12.2863 21.5815 12.418 21.25 12.418C20.9185 12.418 20.6005 12.2863 20.3661 12.0519C20.1317 11.8174 20 11.4995 20 11.168C20 10.8364 20.1317 10.5185 20.3661 10.2841C20.6005 10.0497 20.9185 9.91797 21.25 9.91797ZM16 11.418C17.3261 11.418 18.5979 11.9448 19.5355 12.8824C20.4732 13.8201 21 15.0919 21 16.418C21 17.7441 20.4732 19.0158 19.5355 19.9535C18.5979 20.8912 17.3261 21.418 16 21.418C14.6739 21.418 13.4021 20.8912 12.4645 19.9535C11.5268 19.0158 11 17.7441 11 16.418C11 15.0919 11.5268 13.8201 12.4645 12.8824C13.4021 11.9448 14.6739 11.418 16 11.418ZM16 13.418C15.2044 13.418 14.4413 13.734 13.8787 14.2966C13.3161 14.8593 13 15.6223 13 16.418C13 17.2136 13.3161 17.9767 13.8787 18.5393C14.4413 19.1019 15.2044 19.418 16 19.418C16.7956 19.418 17.5587 19.1019 18.1213 18.5393C18.6839 17.9767 19 17.2136 19 16.418C19 15.6223 18.6839 14.8593 18.1213 14.2966C17.5587 13.734 16.7956 13.418 16 13.418Z" fill="#F7F7F7"/>
</svg>
