<svg width="32" height="32" viewBox="0 0 32 32" fill="none" xmlns="http://www.w3.org/2000/svg">
<path d="M8.83999 20.7555V21.3555H9.43999H12.904V31.2821C5.88798 29.8411 0.6 23.5871 0.6 16.0969C0.6 7.54205 7.53402 0.600488 16 0.600488C24.4659 0.600488 31.4 7.54205 31.4 16.0969L31.4 16.0982C31.4082 19.7881 30.1023 23.3591 27.7185 26.1665C25.4876 28.7937 22.4504 30.5902 19.096 31.2814V21.3555H22.224H22.7384L22.8169 20.8472L23.5369 16.1885L23.6438 15.4969H22.944H19.096V13.0768C19.096 12.5299 19.2314 12.0627 19.5101 11.74C19.7746 11.4337 20.2432 11.1708 21.104 11.1708H23.12H23.72V10.5708V6.6029V6.09496L23.219 6.01113L23.12 6.6029C23.219 6.01113 23.2189 6.01112 23.2189 6.01111L23.2187 6.01108L23.2183 6.01101L23.2169 6.01079L23.2122 6.01001L23.1951 6.00721L23.131 5.99701C23.0756 5.98832 22.9951 5.97604 22.8934 5.96136C22.6902 5.93202 22.4015 5.89305 22.0575 5.8541C21.3719 5.77648 20.4553 5.69768 19.552 5.69768C17.5989 5.69768 15.92 6.2908 14.7289 7.48672C13.5374 8.68298 12.904 10.4121 12.904 12.5467V15.4969H9.43999H8.83999V16.0969V20.7555Z" fill="#C1272D" stroke="#C1272D" stroke-width="1.2"/>
</svg>
