<svg width="40" height="40" viewBox="0 0 40 40" fill="none" xmlns="http://www.w3.org/2000/svg">
<rect x="39.5" y="39.5002" width="39" height="39" transform="rotate(180 39.5 39.5002)" fill="#C1272D"/>
<rect x="39.5" y="39.5002" width="39" height="39" transform="rotate(180 39.5 39.5002)" stroke="#FEFCE6"/>
<path d="M11.6863 21.6865C12.211 21.1619 12.4761 19.8601 12.6091 18.6778C12.783 17.1547 12.7173 15.6082 12.358 14.1191C12.0886 13.0026 11.6552 11.7559 10.9792 11.0799M10.9792 11.0799C11.6552 11.7559 12.9025 12.1901 14.0183 12.4588C15.5082 12.8173 17.0546 12.8831 18.5763 12.7105C19.7593 12.5769 21.0625 12.3103 21.5858 11.787M10.9792 11.0799L27.9497 28.0505" stroke="#FEFCE6" stroke-width="2"/>
</svg>
