<svg width="32" height="32" viewBox="0 0 32 32" fill="none" xmlns="http://www.w3.org/2000/svg">
<circle cx="16" cy="16.0005" r="15.4" fill="#C1272D" stroke="#C1272D" stroke-width="1.2"/>
<path d="M11.8 6.00049H20.2C23.4 6.00049 26 8.60049 26 11.8005V20.2005C26 21.7387 25.3889 23.214 24.3012 24.3017C23.2135 25.3894 21.7383 26.0005 20.2 26.0005H11.8C8.6 26.0005 6 23.4005 6 20.2005V11.8005C6 10.2622 6.61107 8.78698 7.69878 7.69927C8.78649 6.61156 10.2617 6.00049 11.8 6.00049ZM11.6 8.00049C10.6452 8.00049 9.72955 8.37977 9.05442 9.0549C8.37928 9.73003 8 10.6457 8 11.6005V20.4005C8 22.3905 9.61 24.0005 11.6 24.0005H20.4C21.3548 24.0005 22.2705 23.6212 22.9456 22.9461C23.6207 22.2709 24 21.3553 24 20.4005V11.6005C24 9.61049 22.39 8.00049 20.4 8.00049H11.6ZM21.25 9.50049C21.5815 9.50049 21.8995 9.63218 22.1339 9.8666C22.3683 10.101 22.5 10.419 22.5 10.7505C22.5 11.082 22.3683 11.4 22.1339 11.6344C21.8995 11.8688 21.5815 12.0005 21.25 12.0005C20.9185 12.0005 20.6005 11.8688 20.3661 11.6344C20.1317 11.4 20 11.082 20 10.7505C20 10.419 20.1317 10.101 20.3661 9.8666C20.6005 9.63218 20.9185 9.50049 21.25 9.50049ZM16 11.0005C17.3261 11.0005 18.5979 11.5273 19.5355 12.465C20.4732 13.4026 21 14.6744 21 16.0005C21 17.3266 20.4732 18.5983 19.5355 19.536C18.5979 20.4737 17.3261 21.0005 16 21.0005C14.6739 21.0005 13.4021 20.4737 12.4645 19.536C11.5268 18.5983 11 17.3266 11 16.0005C11 14.6744 11.5268 13.4026 12.4645 12.465C13.4021 11.5273 14.6739 11.0005 16 11.0005ZM16 13.0005C15.2044 13.0005 14.4413 13.3166 13.8787 13.8792C13.3161 14.4418 13 15.2048 13 16.0005C13 16.7961 13.3161 17.5592 13.8787 18.1218C14.4413 18.6844 15.2044 19.0005 16 19.0005C16.7956 19.0005 17.5587 18.6844 18.1213 18.1218C18.6839 17.5592 19 16.7961 19 16.0005C19 15.2048 18.6839 14.4418 18.1213 13.8792C17.5587 13.3166 16.7956 13.0005 16 13.0005Z" fill="#F7F7F7"/>
</svg>
