<svg width="40" height="40" viewBox="0 0 40 40" fill="none" xmlns="http://www.w3.org/2000/svg">
<rect width="40" height="40" fill="#D52802"/>
<path d="M18.0157 6.98993C18.8439 5.67027 20.7668 5.67027 21.595 6.98993L23.5893 10.1678C24.0211 10.856 24.8093 11.2355 25.6166 11.1441L29.3446 10.7219C30.8927 10.5466 32.0916 12.05 31.5762 13.5203L30.3351 17.0609C30.0663 17.8276 30.261 18.6805 30.8358 19.2546L33.4902 21.9061C34.5925 23.0071 34.1646 24.8818 32.6937 25.3955L29.1518 26.6327C28.3848 26.9006 27.8393 27.5846 27.7488 28.392L27.3308 32.1204C27.1573 33.6687 25.4248 34.503 24.1061 33.6734L20.9305 31.6755C20.2428 31.2429 19.3679 31.2429 18.6803 31.6755L15.5046 33.6734C14.1859 34.503 12.4534 33.6687 12.2799 32.1204L11.8619 28.392C11.7714 27.5846 11.2259 26.9006 10.4589 26.6327L6.91698 25.3955C5.44612 24.8818 5.01823 23.0071 6.12052 21.9061L8.77494 19.2546C9.34976 18.6805 9.54443 17.8276 9.27566 17.0609L8.03452 13.5203C7.51912 12.05 8.71803 10.5466 10.2661 10.7219L13.9941 11.1441C14.8014 11.2355 15.5896 10.856 16.0215 10.1678L18.0157 6.98993Z" fill="#FDD3CB"/>
</svg>
