<svg width="32" height="32" viewBox="0 0 32 32" fill="none" xmlns="http://www.w3.org/2000/svg">
<path d="M8.83999 20.7553V21.3553H9.43999H12.904V31.2818C5.88798 29.8409 0.6 23.5868 0.6 16.0966C0.6 7.54181 7.53402 0.600244 16 0.600244C24.4659 0.600244 31.4 7.54181 31.4 16.0966L31.4 16.098C31.4082 19.7879 30.1023 23.3588 27.7185 26.1662C25.4876 28.7935 22.4504 30.59 19.096 31.2812V21.3553H22.224H22.7384L22.8169 20.8469L23.5369 16.1883L23.6438 15.4966H22.944H19.096V13.0766C19.096 12.5297 19.2314 12.0625 19.5101 11.7398C19.7746 11.4334 20.2432 11.1705 21.104 11.1705H23.12H23.72V10.5705V6.60265V6.09471L23.219 6.01088L23.12 6.60265C23.219 6.01088 23.2189 6.01087 23.2189 6.01086L23.2187 6.01084L23.2183 6.01077L23.2169 6.01054L23.2122 6.00976L23.1951 6.00696L23.131 5.99677C23.0756 5.98808 22.9951 5.97579 22.8934 5.96112C22.6902 5.93178 22.4015 5.8928 22.0575 5.85385C21.3719 5.77624 20.4553 5.69743 19.552 5.69743C17.5989 5.69743 15.92 6.29056 14.7289 7.48647C13.5374 8.68274 12.904 10.4118 12.904 12.5464V15.4966H9.43999H8.83999V16.0966V20.7553Z" fill="#C1272D" stroke="#C1272D" stroke-width="1.2"/>
</svg>
