<svg width="40" height="41" viewBox="0 0 40 41" fill="none" xmlns="http://www.w3.org/2000/svg">
<rect x="39.5" y="40.0001" width="39" height="39" transform="rotate(180 39.5 40.0001)" fill="#C1272D"/>
<rect x="39.5" y="40.0001" width="39" height="39" transform="rotate(180 39.5 40.0001)" stroke="#FEFCE6"/>
<path d="M11.6863 22.1864C12.211 21.6617 12.4761 20.36 12.6091 19.1777C12.783 17.6546 12.7173 16.1081 12.358 14.619C12.0886 13.5024 11.6552 12.2558 10.9792 11.5798M10.9792 11.5798C11.6552 12.2558 12.9025 12.69 14.0183 12.9587C15.5082 13.3172 17.0546 13.3829 18.5763 13.2104C19.7593 13.0768 21.0625 12.8102 21.5858 12.2869M10.9792 11.5798L27.9497 28.5504" stroke="#FEFCE6" stroke-width="2"/>
</svg>
