<svg width="47" height="54" viewBox="0 0 47 54" fill="none" xmlns="http://www.w3.org/2000/svg">
<rect y="0.000244141" width="46.8" height="53.235" fill="#D52802"/>
<path d="M21.079 11.6883C22.0479 10.1443 24.2977 10.1443 25.2667 11.6883L27.6 15.4064C28.1053 16.2115 29.0275 16.6556 29.972 16.5487L34.3337 16.0547C36.145 15.8496 37.5477 17.6086 36.9447 19.3288L35.4926 23.4713C35.1781 24.3683 35.4059 25.3662 36.0784 26.038L39.1841 29.1401C40.4737 30.4284 39.9731 32.6218 38.2522 33.2228L34.1081 34.6703C33.2107 34.9838 32.5725 35.784 32.4666 36.7287L31.9776 41.0909C31.7746 42.9024 29.7476 43.8786 28.2046 42.9079L24.4892 40.5704C23.6846 40.0642 22.661 40.0642 21.8564 40.5704L18.141 42.9079C16.5981 43.8786 14.5711 42.9024 14.368 41.0909L13.879 36.7287C13.7731 35.784 13.1349 34.9838 12.2375 34.6703L8.09341 33.2229C6.37251 32.6218 5.87188 30.4284 7.16156 29.1402L10.2672 26.038C10.9398 25.3662 11.1675 24.3683 10.8531 23.4713L9.40093 19.3288C8.79791 17.6086 10.2006 15.8496 12.0119 16.0547L16.3736 16.5487C17.3182 16.6556 18.2404 16.2115 18.7457 15.4064L21.079 11.6883Z" fill="white"/>
</svg>
