<svg width="47" height="54" viewBox="0 0 47 54" fill="none" xmlns="http://www.w3.org/2000/svg">
<rect y="0.235352" width="46.8" height="53.235" fill="white"/>
<rect x="0.5" y="0.735352" width="45.8" height="52.235" stroke="#34548D" stroke-opacity="0.1"/>
<path d="M21.0595 25.3251H30.4195V28.9651H21.0595V25.3251Z" fill="#375291"/>
<path d="M39.7795 27.1451C39.7795 31.0222 36.6366 34.1651 32.7595 34.1651C28.8825 34.1651 25.7395 31.0222 25.7395 27.1451C25.7395 23.2681 28.8825 20.1251 32.7595 20.1251C36.6366 20.1251 39.7795 23.2681 39.7795 27.1451Z" fill="#375291"/>
<path d="M25.2195 24.8051V34.1651H21.5795V24.8051H25.2195Z" fill="#375291"/>
<path d="M23.3995 43.5251C19.5225 43.5251 16.3795 40.3822 16.3795 36.5051C16.3795 32.6281 19.5225 29.4851 23.3995 29.4851C27.2766 29.4851 30.4195 32.6281 30.4195 36.5051C30.4195 40.3822 27.2766 43.5251 23.3995 43.5251Z" fill="#375291"/>
<path d="M25.7395 25.3251H16.3795V28.9651H25.7395V25.3251Z" fill="#375291"/>
<path d="M7.01953 27.1451C7.01953 31.0222 10.1625 34.1651 14.0395 34.1651C17.9166 34.1651 21.0595 31.0222 21.0595 27.1451C21.0595 23.2681 17.9166 20.1251 14.0395 20.1251C10.1625 20.1251 7.01953 23.2681 7.01953 27.1451Z" fill="#375291"/>
<path d="M25.2195 29.4851V20.1251H21.5795V29.4851H25.2195Z" fill="#375291"/>
<path d="M23.3995 10.7651C19.5225 10.7651 16.3795 13.9081 16.3795 17.7851C16.3795 21.6622 19.5225 24.8051 23.3995 24.8051C27.2766 24.8051 30.4195 21.6622 30.4195 17.7851C30.4195 13.9081 27.2766 10.7651 23.3995 10.7651Z" fill="#375291"/>
<path d="M20.1347 24.8251H16.3795H15.8795V25.3251V28.9651V29.4651H16.3795H20.1347C20.092 29.5772 20.0463 29.6877 19.9978 29.7967C18.5755 30.5194 17.4138 31.6811 16.6911 33.1034C15.881 33.4644 14.9837 33.6651 14.0395 33.6651C10.4386 33.6651 7.51953 30.746 7.51953 27.1451C7.51953 23.5442 10.4386 20.6251 14.0395 20.6251C14.9837 20.6251 15.881 20.8258 16.6911 21.1869C17.4138 22.6092 18.5755 23.7709 19.9978 24.4935C20.0463 24.6025 20.092 24.7131 20.1347 24.8251ZM20.5595 27.1451C20.5595 27.5974 20.5135 28.0388 20.4258 28.4651H16.8795V25.8251H20.4258C20.5135 26.2514 20.5595 26.6929 20.5595 27.1451ZM20.7479 30.5469C20.8569 30.4983 20.9675 30.4527 21.0795 30.41V34.1651V34.6651H21.5795H25.2195H25.7195V34.1651V30.41C25.8316 30.4526 25.9421 30.4983 26.0511 30.5469C26.7738 31.9692 27.9355 33.1309 29.3578 33.8535C29.7188 34.6636 29.9195 35.5609 29.9195 36.5051C29.9195 40.106 27.0004 43.0251 23.3995 43.0251C19.7986 43.0251 16.8795 40.106 16.8795 36.5051C16.8795 35.5609 17.0802 34.6636 17.4413 33.8535C18.8636 33.1309 20.0253 31.9692 20.7479 30.5469ZM22.0795 30.1188C22.5058 30.0312 22.9473 29.9851 23.3995 29.9851C23.8518 29.9851 24.2932 30.0312 24.7195 30.1188V33.6651H22.0795V30.1188ZM30.1079 33.1034C29.3853 31.6811 28.2236 30.5194 26.8013 29.7967C26.7527 29.6877 26.707 29.5772 26.6644 29.4651H30.4195H30.9195V28.9651V25.3251V24.8251H30.4195H26.6644C26.707 24.7131 26.7527 24.6025 26.8013 24.4935C28.2236 23.7709 29.3853 22.6092 30.1079 21.1869C30.918 20.8258 31.8153 20.6251 32.7595 20.6251C36.3604 20.6251 39.2795 23.5442 39.2795 27.1451C39.2795 30.746 36.3604 33.6651 32.7595 33.6651C31.8153 33.6651 30.918 33.4644 30.1079 33.1034ZM20.7479 23.7434C20.0253 22.3211 18.8636 21.1594 17.4413 20.4367C17.0802 19.6266 16.8795 18.7293 16.8795 17.7851C16.8795 14.1842 19.7986 11.2651 23.3995 11.2651C27.0004 11.2651 29.9195 14.1842 29.9195 17.7851C29.9195 18.7293 29.7188 19.6266 29.3578 20.4367C27.9355 21.1594 26.7738 22.3211 26.0511 23.7434C25.9421 23.7919 25.8316 23.8376 25.7195 23.8803V20.1251V19.6251H25.2195H21.5795H21.0795V20.1251V23.8803C20.9675 23.8376 20.8569 23.7919 20.7479 23.7434ZM22.0795 28.4651V25.8251H24.7195V28.4651H22.0795ZM26.3732 28.4651C26.2856 28.0388 26.2395 27.5974 26.2395 27.1451C26.2395 26.6929 26.2856 26.2514 26.3732 25.8251H29.9195V28.4651H26.3732ZM24.7195 24.1714C24.2932 24.2591 23.8518 24.3051 23.3995 24.3051C22.9473 24.3051 22.5058 24.2591 22.0795 24.1714V20.6251H24.7195V24.1714Z" stroke="#34548D" stroke-opacity="0.1"/>
</svg>
