<svg width="47" height="54" viewBox="0 0 47 54" fill="none" xmlns="http://www.w3.org/2000/svg">
<rect x="0.199219" y="0.000244141" width="46.8" height="53.235" fill="#FEFCE6"/>
<rect x="0.699219" y="0.500244" width="45.8" height="52.235" stroke="#F1DE0C" stroke-opacity="0.2"/>
<path d="M7.21875 24.7744C7.21875 24.7744 16.8302 28.294 23.5987 24.7744C30.3673 21.2548 39.9787 24.7744 39.9787 24.7744V29.1063C39.9787 29.1063 30.6381 25.7221 23.5987 29.1063C16.5594 32.4906 7.21875 29.1063 7.21875 29.1063V24.7744Z" fill="#F1DE0C"/>
<path d="M36.7163 36.95C36.7163 36.95 30.1524 29.0962 22.5308 28.76C14.9092 28.4238 8.34533 20.57 8.34533 20.57L10.5113 16.8185C10.5113 16.8185 16.9084 24.4196 24.6968 25.0085C32.4851 25.5973 38.8823 33.1985 38.8823 33.1985L36.7163 36.95Z" fill="#F1DE0C"/>
<path d="M29.939 42.1637C29.939 42.1637 28.1814 32.0802 21.749 27.9782C15.3166 23.8762 13.559 13.7927 13.559 13.7927L17.3105 11.6268C17.3105 11.6268 19.05 21.4081 25.5005 25.8123C31.9511 30.2164 33.6905 39.9978 33.6905 39.9978L29.939 42.1637Z" fill="#F1DE0C"/>
<path d="M21.4629 43.2903C21.4629 43.2903 24.9825 33.6789 21.4629 26.9103C17.9433 20.1417 21.4629 10.5303 21.4629 10.5303L25.7948 10.5303C25.7948 10.5303 22.4105 19.8709 25.7948 26.9103C29.179 33.9496 25.7948 43.2903 25.7948 43.2903H21.4629Z" fill="#F1DE0C"/>
<path d="M13.559 40.0278C13.559 40.0278 21.4128 33.4639 21.749 25.8423C22.0853 18.2208 29.939 11.6569 29.939 11.6569L33.6906 13.8228C33.6906 13.8228 26.0894 20.2199 25.5006 28.0083C24.9118 35.7967 17.3106 42.1938 17.3106 42.1938L13.559 40.0278Z" fill="#F1DE0C"/>
<path d="M8.34533 33.2506C8.34533 33.2506 18.4289 31.4929 22.5308 25.0606C26.6328 18.6282 36.7163 16.8706 36.7163 16.8706L38.8823 20.6221C38.8823 20.6221 29.1009 22.3616 24.6968 28.8121C20.2927 35.2626 10.5113 37.0021 10.5113 37.0021L8.34533 33.2506Z" fill="#F1DE0C"/>
<path d="M8.95709 20.5104L10.5997 17.6654C10.7786 17.8578 11.0064 18.0962 11.2789 18.3688C12.012 19.1023 13.0715 20.0862 14.379 21.0893C14.9112 21.4976 15.4866 21.9108 16.0998 22.3123C16.7479 23.4892 17.523 24.663 18.4448 25.7315C17.3901 25.8432 16.3333 25.8609 15.3117 25.8153C14.4404 25.2877 13.6264 24.716 12.8858 24.1434C11.6103 23.1571 10.5682 22.1805 9.84527 21.4506C9.48406 21.0859 9.20322 20.7834 9.01348 20.5732C8.99368 20.5512 8.97488 20.5303 8.95709 20.5104ZM14.1186 14.047L16.9636 12.4044C17.0224 12.6605 17.1005 12.9808 17.2001 13.3532C17.4683 14.355 17.8939 15.7368 18.5247 17.2593C18.7814 17.879 19.0732 18.5245 19.4034 19.1789C19.3772 20.4732 19.4546 21.824 19.6965 23.1607C18.691 22.7088 17.7388 22.1765 16.8569 21.6113C16.4142 20.7866 16.0321 19.9568 15.7045 19.1576C15.093 17.6658 14.6788 16.2989 14.4177 15.3053C14.2873 14.8088 14.1952 14.4065 14.1361 14.1295C14.1299 14.1006 14.1241 14.0731 14.1186 14.047ZM21.8204 11.0303L25.1055 11.0303C25.0284 11.2815 24.9358 11.5979 24.8359 11.9702C24.5672 12.9719 24.2449 14.3814 24.03 16.0153C23.9424 16.6803 23.8724 17.3852 23.8312 18.1171C23.1614 19.2249 22.553 20.4334 22.0941 21.712C21.4492 20.8179 20.8908 19.8808 20.4096 18.9504C20.4386 18.0148 20.5226 17.1051 20.6385 16.2491C20.8548 14.6514 21.1796 13.2606 21.4503 12.2695C21.5855 11.7744 21.707 11.3799 21.7942 11.1105C21.8033 11.0824 21.812 11.0556 21.8204 11.0303ZM29.9986 12.2686L32.8436 13.9112C32.6513 14.0902 32.4129 14.3179 32.1402 14.5904C31.4067 15.3235 30.4228 16.383 29.4197 17.6906C29.0114 18.2227 28.5983 18.7981 28.1967 19.4114C27.0627 20.0358 25.9316 20.7782 24.8948 21.6561C24.7834 20.5593 24.7683 19.4686 24.8168 18.4223C25.3097 17.6265 25.8373 16.8807 26.3657 16.1974C27.3519 14.9219 28.3286 13.8797 29.0585 13.1568C29.4232 12.7956 29.7256 12.5147 29.9359 12.325C29.9578 12.3052 29.9787 12.2864 29.9986 12.2686ZM36.4621 17.4302L38.1046 20.2752C37.8485 20.334 37.5282 20.412 37.1558 20.5117C36.154 20.7798 34.7722 21.2055 33.2497 21.8362C32.63 22.093 31.9845 22.3847 31.3301 22.715C30.0358 22.6888 28.6851 22.7662 27.3483 23.0081C27.8002 22.0025 28.3325 21.0504 28.8977 20.1685C29.7224 19.7258 30.5522 19.3437 31.3514 19.0161C32.8433 18.4046 34.2102 17.9904 35.2038 17.7293C35.7002 17.5988 36.1025 17.5068 36.3795 17.4476C36.4084 17.4414 36.4359 17.4356 36.4621 17.4302ZM39.4787 25.1319V28.417C39.2276 28.3399 38.9111 28.2473 38.5388 28.1475C37.5371 27.8788 36.1277 27.5565 34.4937 27.3415C33.8302 27.2542 33.1269 27.1842 32.3968 27.143C31.2888 26.4812 30.0779 25.8761 28.7913 25.4098C29.6872 24.7632 30.6262 24.2034 31.5587 23.7212C32.4942 23.7501 33.404 23.8341 34.2599 23.95C35.8576 24.1664 37.2485 24.4911 38.2395 24.7618C38.7346 24.897 39.1291 25.0185 39.3985 25.1057C39.4266 25.1148 39.4534 25.1236 39.4787 25.1319ZM38.2697 33.2594L36.6295 36.1003C36.4453 35.9004 36.2095 35.6511 35.9269 35.3657C35.1809 34.6126 34.1057 33.6048 32.7875 32.5855C32.2297 32.1542 31.6255 31.7186 30.9818 31.2984C30.3788 30.2422 29.6716 29.1884 28.8458 28.2071C29.9477 28.0948 31.0435 28.0797 32.0945 28.1287C32.9263 28.6373 33.7011 29.1803 34.4058 29.721C35.6711 30.6917 36.6977 31.6449 37.4074 32.355C37.762 32.7099 38.0369 33.0034 38.2223 33.2072C38.2388 33.2253 38.2546 33.2427 38.2697 33.2594ZM33.1296 39.7443L30.2887 41.3845C30.2291 41.1192 30.1496 40.7855 30.0475 40.397C29.778 39.3717 29.3508 37.9614 28.7188 36.4196C28.4514 35.7671 28.1459 35.0878 27.7986 34.4021C27.8047 33.1372 27.7119 31.8184 27.4669 30.5055C28.4398 30.9373 29.3672 31.4523 30.2321 32.0047C30.7478 32.9301 31.185 33.8607 31.5526 34.7479C32.163 36.2213 32.5754 37.5601 32.835 38.5299C32.9647 39.0145 33.056 39.4061 33.1147 39.6753C33.1199 39.6993 33.1249 39.7223 33.1296 39.7443ZM25.4357 42.7903H22.1553C22.2364 42.5308 22.3343 42.2019 22.4401 41.8145C22.7194 40.7918 23.0546 39.3568 23.2782 37.7056C23.3728 37.0069 23.448 36.2659 23.49 35.4984C24.1278 34.406 24.7068 33.2174 25.151 31.9579C25.7778 32.8183 26.3234 33.728 26.7962 34.6389C26.7801 35.6981 26.6934 36.7226 26.5681 37.6748C26.3601 39.2559 26.0479 40.6216 25.7878 41.5913C25.6578 42.0758 25.5411 42.4606 25.4573 42.7231C25.4498 42.7465 25.4426 42.7689 25.4357 42.7903ZM17.2496 41.5812L14.4087 39.9411C14.6087 39.7568 14.8579 39.5211 15.1433 39.2384C15.8965 38.4924 16.9043 37.4172 17.9235 36.099C18.3548 35.5412 18.7904 34.9371 19.2106 34.2934C20.3091 33.6662 21.4048 32.9264 22.4192 32.0578C22.5318 33.1163 22.5495 34.177 22.5035 35.2022C21.96 36.1115 21.3727 36.9554 20.7881 37.7173C19.8173 38.9826 18.8641 40.0092 18.154 40.7189C17.7992 41.0735 17.5057 41.3484 17.3019 41.5339C17.2837 41.5504 17.2663 41.5662 17.2496 41.5812ZM10.7648 36.4411L9.12458 33.6003C9.38985 33.5407 9.72358 33.4611 10.1121 33.359C11.1373 33.0896 12.5477 32.6623 14.0895 32.0303C14.7419 31.7629 15.4212 31.4575 16.1069 31.1101C17.3718 31.1163 18.6907 31.0234 20.0035 30.7784C19.5718 31.7514 19.0568 32.6788 18.5043 33.5436C17.579 34.0594 16.6484 34.4965 15.7611 34.8641C14.2878 35.4745 12.949 35.8869 11.9792 36.1465C11.4946 36.2762 11.1029 36.3676 10.8337 36.4262C10.8097 36.4314 10.7868 36.4364 10.7648 36.4411ZM7.71875 28.7472V25.4669C7.97827 25.5479 8.30707 25.6459 8.69456 25.7517C9.71719 26.031 11.1522 26.3661 12.8034 26.5897C13.5028 26.6844 14.2445 26.7596 15.0127 26.8017C16.1058 27.4476 17.293 28.0297 18.5459 28.4664C17.6871 29.0915 16.7792 29.6359 15.8702 30.1077C14.8109 30.0917 13.7864 30.005 12.8342 29.8797C11.2531 29.6716 9.88744 29.3594 8.91776 29.0993C8.43323 28.9693 8.0484 28.8526 7.78592 28.7688C7.76255 28.7613 7.74016 28.7541 7.71875 28.7472ZM19.4951 27.7234C18.6991 27.484 17.924 27.1768 17.178 26.8232C17.8748 26.7971 18.5807 26.7367 19.2854 26.6331C19.5129 26.8582 19.748 27.0765 19.9911 27.2867C19.8289 27.4359 19.6634 27.5814 19.4951 27.7234ZM20.7055 26.5821C20.6384 26.5248 20.5718 26.4667 20.5059 26.4081C20.5552 26.397 20.6045 26.3858 20.6537 26.3743C20.6797 26.4339 20.7062 26.4934 20.7331 26.5527C20.7239 26.5625 20.7147 26.5723 20.7055 26.5821ZM20.6692 28.0217C20.7064 27.9876 20.7434 27.9532 20.7803 27.9186C20.8326 27.9572 20.8853 27.9955 20.9383 28.0334C20.9352 28.0465 20.9321 28.0596 20.929 28.0727C20.8422 28.0566 20.7556 28.0396 20.6692 28.0217ZM19.7248 28.8269C20.0343 28.9081 20.347 28.9796 20.6627 29.0401C20.597 29.2498 20.5267 29.458 20.4521 29.6645C19.642 29.8493 18.8217 29.9691 18.007 30.0375C18.5932 29.6686 19.1701 29.2659 19.7248 28.8269ZM21.6132 29.3512C21.6297 29.2984 21.646 29.2456 21.662 29.1927C21.7267 29.2 21.7914 29.2069 21.8562 29.2132C21.8617 29.2311 21.8671 29.249 21.8724 29.267C21.7862 29.2959 21.6998 29.3239 21.6132 29.3512ZM20.3198 32.4145C20.6424 31.8029 20.9402 31.1668 21.2007 30.5104C21.5102 30.429 21.8182 30.3382 22.1241 30.2371C22.1708 30.4469 22.2129 30.6575 22.2508 30.8689C21.6416 31.4339 20.9911 31.9478 20.3198 32.4145ZM23.0996 30.017C23.09 29.9739 23.0803 29.931 23.0703 29.888C23.1374 29.8606 23.2043 29.8326 23.271 29.804C23.2747 29.8075 23.2784 29.8109 23.282 29.8144C23.2219 29.8825 23.161 29.9501 23.0996 30.017ZM23.3221 31.2271C23.5494 31.0019 23.7707 30.7692 23.9851 30.5287C24.1304 30.687 24.2722 30.8484 24.4107 31.0125C24.1656 31.8065 23.8593 32.5768 23.5112 33.3166C23.4848 32.6256 23.4246 31.9258 23.3221 31.2271ZM24.7198 29.8503C24.69 29.8179 24.6601 29.7855 24.63 29.7533C24.6743 29.696 24.7183 29.6383 24.7618 29.5802C24.7667 29.5813 24.7716 29.5825 24.7765 29.5837C24.7585 29.6728 24.7396 29.7617 24.7198 29.8503ZM26.726 32.502C26.3577 31.9169 25.9557 31.3409 25.5175 30.7871C25.6018 30.4784 25.6772 30.1662 25.7426 29.8507C25.9475 29.9152 26.1511 29.984 26.353 30.0569C26.5377 30.8671 26.6576 31.6873 26.726 32.502ZM26.0396 28.8959C25.9976 28.8827 25.9555 28.8696 25.9133 28.8568C25.9178 28.8241 25.9221 28.7914 25.9263 28.7587C25.9475 28.7526 25.9687 28.7465 25.9898 28.7406C26.0067 28.7922 26.0233 28.844 26.0396 28.8959ZM27.1989 29.3083C27.1277 29.0376 27.0493 28.7681 26.9631 28.5C27.194 28.4508 27.4256 28.4067 27.6576 28.3674C28.1833 28.9449 28.664 29.5578 29.1029 30.1892C28.4914 29.8666 27.8553 29.5688 27.1989 29.3083ZM26.8134 27.5096C26.7495 27.523 26.6857 27.5368 26.6219 27.5509C26.5947 27.4829 26.567 27.415 26.5387 27.3473C26.554 27.3314 26.5693 27.3156 26.5846 27.2998C26.6617 27.3689 26.7379 27.4389 26.8134 27.5096ZM30.2464 27.1134C29.5155 27.1362 28.7715 27.1948 28.0254 27.2989C27.7942 27.061 27.5549 26.8292 27.3073 26.6049C27.4826 26.4468 27.6611 26.2927 27.8424 26.1427C28.6729 26.4076 29.4769 26.7387 30.2464 27.1134ZM26.6824 25.822C26.6338 25.8655 26.5853 25.9094 26.5372 25.9535C26.4796 25.9082 26.4216 25.8633 26.3633 25.8188C26.3686 25.7974 26.374 25.776 26.3794 25.7547C26.4807 25.776 26.5817 25.7985 26.6824 25.822ZM27.6267 25.0335C27.3075 24.9431 26.9844 24.862 26.6577 24.7915C26.7308 24.5659 26.8088 24.3423 26.8912 24.1208C27.7409 23.9296 28.6068 23.8135 29.4684 23.7556C28.8431 24.1426 28.2243 24.5675 27.6267 25.0335ZM25.7215 24.437C25.7024 24.4954 25.6836 24.5539 25.6651 24.6125C25.5926 24.602 25.5199 24.5921 25.4471 24.5827C25.4423 24.566 25.4376 24.5494 25.4328 24.5327C25.5287 24.4997 25.6249 24.4678 25.7215 24.437ZM27.1046 21.2434C26.7564 21.8917 26.4327 22.5697 26.148 23.2726C25.8266 23.3568 25.5074 23.4518 25.1912 23.5585C25.1406 23.3224 25.0954 23.0856 25.0553 22.8484C25.6956 22.2579 26.3874 21.7244 27.1046 21.2434ZM24.2004 23.707C24.2152 23.7772 24.2304 23.8473 24.2461 23.9174C24.1849 23.9434 24.1239 23.9698 24.0631 23.9968C24.0415 23.976 24.0199 23.9551 23.9983 23.9342C24.0648 23.8577 24.1322 23.7819 24.2004 23.707ZM23.9876 22.4854C23.7514 22.719 23.5224 22.9609 23.302 23.2114C23.1401 23.0322 22.9826 22.8497 22.8292 22.6643C23.0885 21.8328 23.4208 21.0249 23.8015 20.2497C23.824 20.9853 23.8827 21.7343 23.9876 22.4854ZM22.5182 23.8353C22.5661 23.8887 22.6143 23.9419 22.6629 23.9947C22.623 24.0478 22.5834 24.1012 22.5442 24.1549C22.515 24.1477 22.4859 24.1405 22.4568 24.1331C22.4761 24.0336 22.4966 23.9343 22.5182 23.8353ZM20.444 21.0407C20.8313 21.6664 21.2567 22.2857 21.7231 22.8838C21.6353 23.2042 21.558 23.5281 21.4923 23.8553C21.2625 23.781 21.0348 23.7017 20.8093 23.6179C20.6181 22.7681 20.5019 21.9023 20.444 21.0407ZM21.1255 24.7875C21.1936 24.8099 21.262 24.8317 21.3305 24.8532C21.3177 24.9578 21.3061 25.0627 21.2958 25.1678C21.283 25.1717 21.2701 25.1756 21.2572 25.1794C21.2112 25.0495 21.1673 24.9188 21.1255 24.7875ZM22.2163 26.3627C22.375 26.1619 22.5282 25.956 22.6753 25.7448C22.9607 25.6314 23.2428 25.5076 23.521 25.3729C23.7489 25.4092 23.9782 25.4402 24.209 25.4654C24.4171 25.6372 24.6306 25.8036 24.8497 25.9642C24.944 26.2169 25.0457 26.4678 25.1552 26.7164C25.1105 26.9824 25.0731 27.2506 25.0436 27.5206C24.8719 27.7286 24.7055 27.9421 24.5449 28.1612C24.3436 28.2363 24.1435 28.3161 23.9447 28.4008C23.6491 28.3546 23.3511 28.3182 23.0511 28.2927C22.8503 28.134 22.6444 27.9808 22.4333 27.8337C22.3388 27.5959 22.237 27.3602 22.1277 27.1273C22.1648 26.874 22.1945 26.6191 22.2163 26.3627ZM19.9611 24.361C20.0555 24.7213 20.1635 25.0789 20.2862 25.4325C20.0712 25.4806 19.8551 25.5239 19.6383 25.5626C19.0073 24.8922 18.4402 24.1625 17.9319 23.4044C18.5802 23.7526 19.2581 24.0763 19.9611 24.361Z" stroke="#F1DE0C" stroke-opacity="0.2"/>
</svg>
