<svg width="32" height="32" viewBox="0 0 32 32" fill="none" xmlns="http://www.w3.org/2000/svg">
<circle cx="16" cy="16.0002" r="15.4" fill="#C1272D" stroke="#C1272D" stroke-width="1.2"/>
<path d="M11.8 6.00024H20.2C23.4 6.00024 26 8.60024 26 11.8002V20.2002C26 21.7385 25.3889 23.2138 24.3012 24.3015C23.2135 25.3892 21.7383 26.0002 20.2 26.0002H11.8C8.6 26.0002 6 23.4002 6 20.2002V11.8002C6 10.262 6.61107 8.78674 7.69878 7.69902C8.78649 6.61131 10.2617 6.00024 11.8 6.00024ZM11.6 8.00024C10.6452 8.00024 9.72955 8.37953 9.05442 9.05466C8.37928 9.72979 8 10.6455 8 11.6002V20.4002C8 22.3902 9.61 24.0002 11.6 24.0002H20.4C21.3548 24.0002 22.2705 23.621 22.9456 22.9458C23.6207 22.2707 24 21.355 24 20.4002V11.6002C24 9.61024 22.39 8.00024 20.4 8.00024H11.6ZM21.25 9.50024C21.5815 9.50024 21.8995 9.63194 22.1339 9.86636C22.3683 10.1008 22.5 10.4187 22.5 10.7502C22.5 11.0818 22.3683 11.3997 22.1339 11.6341C21.8995 11.8685 21.5815 12.0002 21.25 12.0002C20.9185 12.0002 20.6005 11.8685 20.3661 11.6341C20.1317 11.3997 20 11.0818 20 10.7502C20 10.4187 20.1317 10.1008 20.3661 9.86636C20.6005 9.63194 20.9185 9.50024 21.25 9.50024ZM16 11.0002C17.3261 11.0002 18.5979 11.527 19.5355 12.4647C20.4732 13.4024 21 14.6742 21 16.0002C21 17.3263 20.4732 18.5981 19.5355 19.5358C18.5979 20.4735 17.3261 21.0002 16 21.0002C14.6739 21.0002 13.4021 20.4735 12.4645 19.5358C11.5268 18.5981 11 17.3263 11 16.0002C11 14.6742 11.5268 13.4024 12.4645 12.4647C13.4021 11.527 14.6739 11.0002 16 11.0002ZM16 13.0002C15.2044 13.0002 14.4413 13.3163 13.8787 13.8789C13.3161 14.4415 13 15.2046 13 16.0002C13 16.7959 13.3161 17.559 13.8787 18.1216C14.4413 18.6842 15.2044 19.0002 16 19.0002C16.7956 19.0002 17.5587 18.6842 18.1213 18.1216C18.6839 17.559 19 16.7959 19 16.0002C19 15.2046 18.6839 14.4415 18.1213 13.8789C17.5587 13.3163 16.7956 13.0002 16 13.0002Z" fill="#F7F7F7"/>
</svg>
