<svg width="14" height="13" viewBox="0 0 14 13" fill="none" xmlns="http://www.w3.org/2000/svg">
<rect x="0.916992" y="0.340271" width="12.3611" height="12.3611" fill="white"/>
<rect x="1.07151" y="0.494785" width="12.0521" height="12.0521" stroke="#34548D" stroke-opacity="0.1" stroke-width="0.309028"/>
<path d="M6.47884 6.04148H8.95106V7.0029H6.47884V6.04148Z" fill="#34548D"/>
<path d="M11.4233 6.52219C11.4233 7.54622 10.5931 8.37636 9.56912 8.37636C8.54509 8.37636 7.71495 7.54622 7.71495 6.52219C7.71495 5.49816 8.54509 4.66802 9.56912 4.66802C10.5931 4.66802 11.4233 5.49816 11.4233 6.52219Z" fill="#34548D"/>
<path d="M7.57761 5.90413V8.37636H6.61619V5.90413H7.57761Z" fill="#34548D"/>
<path d="M7.0969 10.8486C6.07287 10.8486 5.24273 10.0184 5.24273 8.99441C5.24273 7.97038 6.07287 7.14024 7.0969 7.14024C8.12092 7.14024 8.95106 7.97038 8.95106 8.99441C8.95106 10.0184 8.12092 10.8486 7.0969 10.8486Z" fill="#34548D"/>
<path d="M7.71495 6.04148H5.24273V7.0029H7.71495V6.04148Z" fill="#34548D"/>
<path d="M2.77051 6.52219C2.77051 7.54622 3.60065 8.37636 4.62467 8.37636C5.6487 8.37636 6.47884 7.54622 6.47884 6.52219C6.47884 5.49816 5.6487 4.66802 4.62467 4.66802C3.60065 4.66802 2.77051 5.49816 2.77051 6.52219Z" fill="#34548D"/>
<path d="M7.57761 7.14024V4.66802H6.61619V7.14024H7.57761Z" fill="#34548D"/>
<path d="M7.0969 2.1958C6.07287 2.1958 5.24273 3.02594 5.24273 4.04997C5.24273 5.074 6.07287 5.90413 7.0969 5.90413C8.12092 5.90413 8.95106 5.074 8.95106 4.04997C8.95106 3.02594 8.12092 2.1958 7.0969 2.1958Z" fill="#34548D"/>
</svg>
