<svg width="13" height="13" viewBox="0 0 13 13" fill="none" xmlns="http://www.w3.org/2000/svg">
<rect x="0.553711" y="0.381958" width="12.3611" height="12.3611" fill="white"/>
<rect x="0.708225" y="0.536472" width="12.0521" height="12.0521" stroke="#34548D" stroke-opacity="0.1" stroke-width="0.309028"/>
<path d="M6.11654 6.08317H8.58876V7.04459H6.11654V6.08317Z" fill="#34548D"/>
<path d="M11.061 6.56388C11.061 7.5879 10.2308 8.41804 9.20681 8.41804C8.18279 8.41804 7.35265 7.5879 7.35265 6.56388C7.35265 5.53985 8.18279 4.70971 9.20681 4.70971C10.2308 4.70971 11.061 5.53985 11.061 6.56388Z" fill="#34548D"/>
<path d="M7.2153 5.94582V8.41804H6.25388V5.94582H7.2153Z" fill="#34548D"/>
<path d="M6.73459 10.8903C5.71056 10.8903 4.88042 10.0601 4.88042 9.0361C4.88042 8.01207 5.71056 7.18193 6.73459 7.18193C7.75862 7.18193 8.58876 8.01207 8.58876 9.0361C8.58876 10.0601 7.75862 10.8903 6.73459 10.8903Z" fill="#34548D"/>
<path d="M7.35265 6.08317H4.88043V7.04459H7.35265V6.08317Z" fill="#34548D"/>
<path d="M2.4082 6.56388C2.4082 7.5879 3.23834 8.41804 4.26237 8.41804C5.2864 8.41804 6.11654 7.5879 6.11654 6.56388C6.11654 5.53985 5.2864 4.70971 4.26237 4.70971C3.23834 4.70971 2.4082 5.53985 2.4082 6.56388Z" fill="#34548D"/>
<path d="M7.2153 7.18193V4.70971H6.25388V7.18193H7.2153Z" fill="#34548D"/>
<path d="M6.73459 2.23749C5.71056 2.23749 4.88043 3.06763 4.88043 4.09165C4.88043 5.11568 5.71056 5.94582 6.73459 5.94582C7.75862 5.94582 8.58876 5.11568 8.58876 4.09165C8.58876 3.06763 7.75862 2.23749 6.73459 2.23749Z" fill="#34548D"/>
</svg>
