<svg width="32" height="33" viewBox="0 0 32 33" fill="none" xmlns="http://www.w3.org/2000/svg">
<path d="M8.83999 21.547V22.147H9.43999H12.904V32.0736C5.88798 30.6327 0.6 24.3786 0.6 16.8884C0.6 8.33355 7.53402 1.39199 16 1.39199C24.4659 1.39199 31.4 8.33355 31.4 16.8884L31.4 16.8897C31.4082 20.5796 30.1023 24.1506 27.7185 26.958C25.4876 29.5852 22.4504 31.3817 19.096 32.0729V22.147H22.224H22.7384L22.8169 21.6387L23.5369 16.98L23.6438 16.2884H22.944H19.096V13.8683C19.096 13.3214 19.2314 12.8542 19.5101 12.5315C19.7746 12.2252 20.2432 11.9623 21.104 11.9623H23.12H23.72V11.3623V7.3944V6.88646L23.219 6.80263L23.12 7.3944C23.219 6.80263 23.2189 6.80262 23.2189 6.80261L23.2187 6.80259L23.2183 6.80252L23.2169 6.80229L23.2122 6.80151L23.1951 6.79871L23.131 6.78852C23.0756 6.77983 22.9951 6.76754 22.8934 6.75287C22.6902 6.72353 22.4015 6.68455 22.0575 6.6456C21.3719 6.56798 20.4553 6.48918 19.552 6.48918C17.5989 6.48918 15.92 7.08231 14.7289 8.27822C13.5374 9.47449 12.904 11.2036 12.904 13.3382V16.2884H9.43999H8.83999V16.8884V21.547Z" fill="#C1272D" stroke="#C1272D" stroke-width="1.2"/>
</svg>
