<svg width="47" height="55" viewBox="0 0 47 55" fill="none" xmlns="http://www.w3.org/2000/svg">
<rect y="0.791992" width="46.8" height="53.235" fill="#D52802"/>
<path d="M21.078 12.4798C22.0469 10.9358 24.2967 10.9358 25.2657 12.4798L27.599 16.1979C28.1043 17.003 29.0265 17.4471 29.971 17.3402L34.3327 16.8462C36.144 16.6411 37.5467 18.4001 36.9437 20.1203L35.4916 24.2628C35.1771 25.1598 35.4049 26.1577 36.0774 26.8295L39.1831 29.9317C40.4728 31.2199 39.9721 33.4133 38.2512 34.0144L34.1072 35.4618C33.2097 35.7753 32.5716 36.5755 32.4657 37.5202L31.9767 41.8824C31.7736 43.6939 29.7466 44.6701 28.2037 43.6994L24.4882 41.3619C23.6836 40.8557 22.6601 40.8557 21.8555 41.3619L18.14 43.6994C16.5971 44.6701 14.5701 43.6939 14.367 41.8824L13.878 37.5202C13.7721 36.5755 13.1339 35.7753 12.2365 35.4618L8.09243 34.0144C6.37153 33.4133 5.8709 31.2199 7.16058 29.9317L10.2663 26.8295C10.9388 26.1577 11.1666 25.1598 10.8521 24.2628L9.39996 20.1203C8.79694 18.4001 10.1997 16.6411 12.0109 16.8462L16.3727 17.3402C17.3172 17.4471 18.2394 17.003 18.7447 16.1979L21.078 12.4798Z" fill="white"/>
</svg>
