<svg width="47" height="54" viewBox="0 0 47 54" fill="none" xmlns="http://www.w3.org/2000/svg">
<rect y="0.0268555" width="46.8" height="53.235" fill="white"/>
<rect x="0.5" y="0.526855" width="45.8" height="52.235" stroke="#34548D" stroke-opacity="0.1"/>
<path d="M21.0595 25.1166H30.4195V28.7566H21.0595V25.1166Z" fill="#375291"/>
<path d="M39.7795 26.9366C39.7795 30.8137 36.6366 33.9566 32.7595 33.9566C28.8825 33.9566 25.7395 30.8137 25.7395 26.9366C25.7395 23.0596 28.8825 19.9166 32.7595 19.9166C36.6366 19.9166 39.7795 23.0596 39.7795 26.9366Z" fill="#375291"/>
<path d="M25.2195 24.5966V33.9566H21.5795V24.5966H25.2195Z" fill="#375291"/>
<path d="M23.3995 43.3166C19.5225 43.3166 16.3795 40.1737 16.3795 36.2966C16.3795 32.4196 19.5225 29.2766 23.3995 29.2766C27.2766 29.2766 30.4195 32.4196 30.4195 36.2966C30.4195 40.1737 27.2766 43.3166 23.3995 43.3166Z" fill="#375291"/>
<path d="M25.7395 25.1166H16.3795V28.7566H25.7395V25.1166Z" fill="#375291"/>
<path d="M7.01953 26.9366C7.01953 30.8137 10.1625 33.9566 14.0395 33.9566C17.9166 33.9566 21.0595 30.8137 21.0595 26.9366C21.0595 23.0596 17.9166 19.9166 14.0395 19.9166C10.1625 19.9166 7.01953 23.0596 7.01953 26.9366Z" fill="#375291"/>
<path d="M25.2195 29.2766V19.9166H21.5795V29.2766H25.2195Z" fill="#375291"/>
<path d="M23.3995 10.5566C19.5225 10.5566 16.3795 13.6996 16.3795 17.5766C16.3795 21.4537 19.5225 24.5966 23.3995 24.5966C27.2766 24.5966 30.4195 21.4537 30.4195 17.5766C30.4195 13.6996 27.2766 10.5566 23.3995 10.5566Z" fill="#375291"/>
<path d="M20.1347 24.6166H16.3795H15.8795V25.1166V28.7566V29.2566H16.3795H20.1347C20.092 29.3687 20.0463 29.4793 19.9978 29.5882C18.5755 30.3109 17.4138 31.4726 16.6911 32.8949C15.881 33.2559 14.9837 33.4566 14.0395 33.4566C10.4386 33.4566 7.51953 30.5375 7.51953 26.9366C7.51953 23.3357 10.4386 20.4166 14.0395 20.4166C14.9837 20.4166 15.881 20.6173 16.6911 20.9784C17.4138 22.4007 18.5755 23.5624 19.9978 24.285C20.0463 24.394 20.092 24.5046 20.1347 24.6166ZM20.5595 26.9366C20.5595 27.3889 20.5135 27.8303 20.4258 28.2566H16.8795V25.6166H20.4258C20.5135 26.0429 20.5595 26.4844 20.5595 26.9366ZM20.7479 30.3384C20.8569 30.2898 20.9675 30.2442 21.0795 30.2015V33.9566V34.4566H21.5795H25.2195H25.7195V33.9566V30.2015C25.8316 30.2442 25.9421 30.2898 26.0511 30.3384C26.7738 31.7607 27.9355 32.9224 29.3578 33.645C29.7188 34.4551 29.9195 35.3525 29.9195 36.2966C29.9195 39.8975 27.0004 42.8166 23.3995 42.8166C19.7986 42.8166 16.8795 39.8975 16.8795 36.2966C16.8795 35.3525 17.0802 34.4551 17.4413 33.645C18.8636 32.9224 20.0253 31.7607 20.7479 30.3384ZM22.0795 29.9103C22.5058 29.8227 22.9473 29.7766 23.3995 29.7766C23.8518 29.7766 24.2932 29.8227 24.7195 29.9103V33.4566H22.0795V29.9103ZM30.1079 32.8949C29.3853 31.4726 28.2236 30.3109 26.8013 29.5882C26.7527 29.4793 26.707 29.3687 26.6644 29.2566H30.4195H30.9195V28.7566V25.1166V24.6166H30.4195H26.6644C26.707 24.5046 26.7527 24.394 26.8013 24.285C28.2236 23.5624 29.3853 22.4007 30.1079 20.9784C30.918 20.6173 31.8153 20.4166 32.7595 20.4166C36.3604 20.4166 39.2795 23.3357 39.2795 26.9366C39.2795 30.5375 36.3604 33.4566 32.7595 33.4566C31.8153 33.4566 30.918 33.2559 30.1079 32.8949ZM20.7479 23.5349C20.0253 22.1126 18.8636 20.9509 17.4413 20.2282C17.0802 19.4181 16.8795 18.5208 16.8795 17.5766C16.8795 13.9757 19.7986 11.0566 23.3995 11.0566C27.0004 11.0566 29.9195 13.9757 29.9195 17.5766C29.9195 18.5208 29.7188 19.4181 29.3578 20.2282C27.9355 20.9509 26.7738 22.1126 26.0511 23.5349C25.9421 23.5835 25.8316 23.6291 25.7195 23.6718V19.9166V19.4166H25.2195H21.5795H21.0795V19.9166V23.6718C20.9675 23.6291 20.8569 23.5835 20.7479 23.5349ZM22.0795 28.2566V25.6166H24.7195V28.2566H22.0795ZM26.3732 28.2566C26.2856 27.8303 26.2395 27.3889 26.2395 26.9366C26.2395 26.4844 26.2856 26.0429 26.3732 25.6166H29.9195V28.2566H26.3732ZM24.7195 23.9629C24.2932 24.0506 23.8518 24.0966 23.3995 24.0966C22.9473 24.0966 22.5058 24.0506 22.0795 23.9629V20.4166H24.7195V23.9629Z" stroke="#34548D" stroke-opacity="0.1"/>
</svg>
