<svg width="47" height="55" viewBox="0 0 47 55" fill="none" xmlns="http://www.w3.org/2000/svg">
<rect x="0.200195" y="0.791992" width="46.8" height="53.235" fill="#FEFCE6"/>
<rect x="0.700195" y="1.29199" width="45.8" height="52.235" stroke="#F1DE0C" stroke-opacity="0.2"/>
<path d="M7.21973 25.5659C7.21973 25.5659 16.8311 29.0855 23.5997 25.5659C30.3683 22.0463 39.9797 25.5659 39.9797 25.5659V29.8978C39.9797 29.8978 30.6391 26.5136 23.5997 29.8978C16.5604 33.2821 7.21973 29.8978 7.21973 29.8978V25.5659Z" fill="#F1DE0C"/>
<path d="M36.7173 37.7415C36.7173 37.7415 30.1534 29.8877 22.5318 29.5515C14.9102 29.2153 8.3463 21.3615 8.3463 21.3615L10.5123 17.61C10.5123 17.61 16.9094 25.2111 24.6978 25.8C32.4861 26.3888 38.8832 33.99 38.8832 33.99L36.7173 37.7415Z" fill="#F1DE0C"/>
<path d="M29.94 42.9552C29.94 42.9552 28.1824 32.8717 21.75 28.7697C15.3176 24.6677 13.56 14.5842 13.56 14.5842L17.3115 12.4183C17.3115 12.4183 19.051 22.1996 25.5015 26.6038C31.952 31.0079 33.6915 40.7893 33.6915 40.7893L29.94 42.9552Z" fill="#F1DE0C"/>
<path d="M21.4638 44.0818C21.4638 44.0818 24.9835 34.4704 21.4638 27.7018C17.9442 20.9332 21.4638 11.3218 21.4638 11.3218L25.7957 11.3218C25.7957 11.3218 22.4115 20.6624 25.7957 27.7018C29.18 34.7411 25.7957 44.0818 25.7957 44.0818H21.4638Z" fill="#F1DE0C"/>
<path d="M13.56 40.8193C13.56 40.8193 21.4138 34.2554 21.75 26.6339C22.0862 19.0123 29.94 12.4484 29.94 12.4484L33.6916 14.6143C33.6916 14.6143 26.0904 21.0114 25.5016 28.7998C24.9127 36.5882 17.3116 42.9853 17.3116 42.9853L13.56 40.8193Z" fill="#F1DE0C"/>
<path d="M8.34631 34.0421C8.34631 34.0421 18.4298 32.2844 22.5318 25.8521C26.6338 19.4197 36.7173 17.6621 36.7173 17.6621L38.8832 21.4136C38.8832 21.4136 29.1019 23.1531 24.6978 29.6036C20.2936 36.0541 10.5123 37.7936 10.5123 37.7936L8.34631 34.0421Z" fill="#F1DE0C"/>
<path d="M8.95806 21.3019L10.6006 18.4569C10.7796 18.6493 11.0074 18.8877 11.2799 19.1603C12.013 19.8938 13.0725 20.8777 14.38 21.8808C14.9122 22.2891 15.4876 22.7023 16.1008 23.1038C16.7489 24.2807 17.524 25.4545 18.4458 26.523C17.3911 26.6347 16.3343 26.6524 15.3127 26.6068C14.4413 26.0792 13.6273 25.5075 12.8868 24.9349C11.6113 23.9486 10.5692 22.972 9.84625 22.2421C9.48504 21.8774 9.20419 21.5749 9.01445 21.3647C8.99466 21.3427 8.97586 21.3218 8.95806 21.3019ZM14.1196 14.8385L16.9646 13.1959C17.0234 13.452 17.1014 13.7723 17.2011 14.1447C17.4693 15.1465 17.8949 16.5283 18.5257 18.0508C18.7824 18.6705 19.0741 19.316 19.4044 19.9704C19.3782 21.2647 19.4556 22.6155 19.6975 23.9522C18.6919 23.5003 17.7398 22.968 16.8579 22.4028C16.4152 21.5781 16.0331 20.7483 15.7055 19.9491C15.094 18.4573 14.6798 17.0904 14.4187 16.0968C14.2882 15.6003 14.1962 15.198 14.137 14.921C14.1309 14.8921 14.125 14.8646 14.1196 14.8385ZM21.8213 11.8218L25.1065 11.8218C25.0294 12.073 24.9368 12.3894 24.8369 12.7617C24.5682 13.7634 24.2459 15.1729 24.0309 16.8068C23.9434 17.4718 23.8733 18.1767 23.8322 18.9086C23.1623 20.0164 22.554 21.2249 22.0951 22.5035C21.4502 21.6094 20.8918 20.6723 20.4106 19.7419C20.4395 18.8063 20.5236 17.8966 20.6395 17.0406C20.8558 15.4429 21.1806 14.0521 21.4512 13.061C21.5865 12.5659 21.7079 12.1715 21.7952 11.902C21.8043 11.8739 21.813 11.8471 21.8213 11.8218ZM29.9996 13.0601L32.8446 14.7027C32.6522 14.8817 32.4139 15.1094 32.1412 15.3819C31.4077 16.115 30.4238 17.1745 29.4207 18.4821C29.0124 19.0142 28.5992 19.5896 28.1976 20.2029C27.0636 20.8273 25.9325 21.5697 24.8958 22.4476C24.7844 21.3508 24.7693 20.2602 24.8178 19.2138C25.3107 18.418 25.8383 17.6722 26.3666 16.9889C27.3529 15.7134 28.3296 14.6712 29.0595 13.9483C29.4242 13.5871 29.7266 13.3062 29.9369 13.1165C29.9588 13.0967 29.9797 13.0779 29.9996 13.0601ZM36.463 18.2217L38.1056 21.0667C37.8495 21.1255 37.5292 21.2035 37.1568 21.3032C36.155 21.5713 34.7732 21.997 33.2507 22.6277C32.631 22.8845 31.9855 23.1762 31.3311 23.5065C30.0368 23.4803 28.6861 23.5577 27.3493 23.7996C27.8012 22.794 28.3334 21.8419 28.8987 20.96C29.7233 20.5173 30.5532 20.1352 31.3524 19.8076C32.8443 19.1961 34.2112 18.7819 35.2047 18.5208C35.7012 18.3903 36.1035 18.2983 36.3805 18.2391C36.4094 18.2329 36.4369 18.2271 36.463 18.2217ZM39.4797 25.9234V29.2085C39.2285 29.1314 38.9121 29.0388 38.5398 28.939C37.5381 28.6703 36.1286 28.348 34.4947 28.133C33.8311 28.0457 33.1279 27.9757 32.3977 27.9345C31.2898 27.2727 30.0789 26.6676 28.7923 26.2013C29.6882 25.5547 30.6272 24.9949 31.5597 24.5127C32.4952 24.5416 33.4049 24.6256 34.2609 24.7415C35.8586 24.9579 37.2494 25.2826 38.2405 25.5533C38.7356 25.6885 39.13 25.81 39.3995 25.8972C39.4276 25.9063 39.4544 25.9151 39.4797 25.9234ZM38.2707 34.0509L36.6305 36.8918C36.4463 36.6919 36.2105 36.4426 35.9278 36.1572C35.1819 35.4041 34.1067 34.3963 32.7885 33.377C32.2306 32.9457 31.6265 32.5101 30.9828 32.0899C30.3797 31.0337 29.6725 29.9799 28.8468 28.9986C29.9487 28.8863 31.0445 28.8712 32.0954 28.9202C32.9273 29.4288 33.7021 29.9718 34.4068 30.5125C35.6721 31.4832 36.6986 32.4364 37.4084 33.1465C37.763 33.5014 38.0379 33.7949 38.2233 33.9987C38.2398 34.0168 38.2556 34.0342 38.2707 34.0509ZM33.1305 40.5358L30.2897 42.176C30.2301 41.9107 30.1505 41.577 30.0484 41.1885C29.779 40.1632 29.3517 38.7529 28.7198 37.2111C28.4523 36.5586 28.1469 35.8793 27.7996 35.1936C27.8057 33.9287 27.7129 32.6099 27.4679 31.297C28.4408 31.7288 29.3682 32.2438 30.233 32.7962C30.7488 33.7216 31.1859 34.6522 31.5535 35.5394C32.1639 37.0128 32.5764 38.3516 32.8359 39.3214C32.9656 39.806 33.057 40.1976 33.1156 40.4668C33.1209 40.4908 33.1258 40.5138 33.1305 40.5358ZM25.4367 43.5818H22.1563C22.2374 43.3223 22.3353 42.9935 22.4411 42.606C22.7204 41.5833 23.0556 40.1483 23.2792 38.4971C23.3738 37.7984 23.4489 37.0574 23.491 36.2899C24.1287 35.1975 24.7078 34.0089 25.152 32.7495C25.7787 33.6099 26.3244 34.5196 26.7972 35.4304C26.7811 36.4896 26.6944 37.5141 26.5691 38.4663C26.3611 40.0474 26.0488 41.4131 25.7887 42.3828C25.6588 42.8673 25.542 43.2521 25.4582 43.5146C25.4508 43.538 25.4436 43.5604 25.4367 43.5818ZM17.2506 42.3727L14.4097 40.7326C14.6097 40.5483 14.8589 40.3126 15.1443 40.0299C15.8975 39.2839 16.9052 38.2087 17.9245 36.8905C18.3558 36.3327 18.7914 35.7286 19.2116 35.0849C20.31 34.4577 21.4058 33.718 22.4202 32.8493C22.5328 33.9078 22.5505 34.9685 22.5045 35.9937C21.961 36.903 21.3736 37.7469 20.789 38.5088C19.8183 39.7741 18.8651 40.8007 18.155 41.5104C17.8002 41.865 17.5067 42.1399 17.3028 42.3254C17.2847 42.3419 17.2673 42.3577 17.2506 42.3727ZM10.7657 37.2326L9.12555 34.3918C9.39082 34.3322 9.72455 34.2526 10.113 34.1505C11.1383 33.8811 12.5487 33.4538 14.0905 32.8219C14.7429 32.5544 15.4222 32.249 16.1079 31.9016C17.3728 31.9078 18.6917 31.815 20.0045 31.5699C19.5727 32.5429 19.0577 33.4703 18.5053 34.3351C17.5799 34.8509 16.6493 35.288 15.7621 35.6556C14.2888 36.266 12.95 36.6784 11.9801 36.938C11.4955 37.0677 11.1039 37.1591 10.8347 37.2177C10.8107 37.2229 10.7877 37.2279 10.7657 37.2326ZM7.71973 29.5387V26.2584C7.97924 26.3394 8.30805 26.4374 8.69554 26.5432C9.71817 26.8225 11.1532 27.1576 12.8044 27.3812C13.5038 27.4759 14.2454 27.5511 15.0137 27.5932C16.1068 28.2391 17.294 28.8212 18.5469 29.2579C17.688 29.883 16.7802 30.4274 15.8712 30.8992C14.8119 30.8832 13.7874 30.7965 12.8352 30.6712C11.2541 30.4631 9.88841 30.1509 8.91873 29.8908C8.43421 29.7608 8.04938 29.6441 7.78689 29.5603C7.76353 29.5528 7.74113 29.5456 7.71973 29.5387ZM19.4961 28.5149C18.7 28.2755 17.925 27.9683 17.179 27.6148C17.8758 27.5886 18.5817 27.5282 19.2864 27.4246C19.5138 27.6497 19.749 27.868 19.9921 28.0782C19.8299 28.2274 19.6644 28.373 19.4961 28.5149ZM20.7065 27.3736C20.6393 27.3163 20.5728 27.2583 20.5069 27.1996C20.5562 27.1885 20.6055 27.1773 20.6547 27.1658C20.6807 27.2254 20.7072 27.2849 20.7341 27.3442C20.7249 27.354 20.7157 27.3638 20.7065 27.3736ZM20.6702 28.8133C20.7074 28.7791 20.7444 28.7447 20.7813 28.7101C20.8336 28.7487 20.8862 28.787 20.9392 28.8249C20.9362 28.838 20.9331 28.8511 20.93 28.8642C20.8432 28.8481 20.7566 28.8311 20.6702 28.8133ZM19.7257 29.6184C20.0352 29.6996 20.348 29.7711 20.6637 29.8316C20.598 30.0413 20.5276 30.2495 20.4531 30.456C19.643 30.6408 18.8227 30.7606 18.008 30.8291C18.5941 30.4601 19.1711 30.0574 19.7257 29.6184ZM21.6142 30.1427C21.6307 30.09 21.647 30.0371 21.663 29.9842C21.7277 29.9915 21.7924 29.9984 21.8572 30.0047C21.8626 30.0226 21.868 30.0405 21.8734 30.0585C21.7872 30.0874 21.7008 30.1154 21.6142 30.1427ZM20.3208 33.206C20.6434 32.5944 20.9412 31.9583 21.2017 31.3019C21.5112 31.2205 21.8192 31.1297 22.1251 31.0286C22.1718 31.2384 22.2139 31.449 22.2517 31.6604C21.6425 32.2254 20.9921 32.7393 20.3208 33.206ZM23.1006 30.8085C23.091 30.7655 23.0813 30.7225 23.0713 30.6795C23.1384 30.6521 23.2053 30.6241 23.272 30.5955C23.2757 30.599 23.2793 30.6024 23.283 30.6059C23.2228 30.6741 23.162 30.7416 23.1006 30.8085ZM23.323 32.0186C23.5503 31.7934 23.7717 31.5607 23.9861 31.3202C24.1314 31.4785 24.2732 31.6399 24.4116 31.804C24.1666 32.598 23.8602 33.3683 23.5121 34.1081C23.4858 33.4172 23.4256 32.7173 23.323 32.0186ZM24.7208 30.6418C24.691 30.6094 24.6611 30.577 24.631 30.5448C24.6753 30.4875 24.7193 30.4298 24.7628 30.3717C24.7677 30.3728 24.7726 30.374 24.7775 30.3752C24.7595 30.4643 24.7405 30.5532 24.7208 30.6418ZM26.727 33.2935C26.3587 32.7084 25.9567 32.1324 25.5185 31.5786C25.6028 31.2699 25.6781 30.9577 25.7436 30.6422C25.9485 30.7067 26.152 30.7755 26.354 30.8485C26.5387 31.6586 26.6586 32.4788 26.727 33.2935ZM26.0406 29.6874C25.9986 29.6742 25.9565 29.6611 25.9143 29.6483C25.9188 29.6156 25.9231 29.5829 25.9273 29.5502C25.9485 29.5441 25.9696 29.538 25.9908 29.5321C26.0077 29.5838 26.0243 29.6355 26.0406 29.6874ZM27.1998 30.0998C27.1287 29.8292 27.0503 29.5596 26.9641 29.2915C27.195 29.2423 27.4266 29.1982 27.6586 29.1589C28.1843 29.7364 28.665 30.3493 29.1039 30.9807C28.4923 30.6581 27.8562 30.3603 27.1998 30.0998ZM26.8144 28.3011C26.7505 28.3145 26.6866 28.3283 26.6228 28.3424C26.5957 28.2744 26.5679 28.2065 26.5396 28.1388C26.5549 28.1229 26.5703 28.1071 26.5856 28.0913C26.6627 28.1605 26.7389 28.2304 26.8144 28.3011ZM30.2474 27.9049C29.5165 27.9277 28.7725 27.9863 28.0264 28.0904C27.7951 27.8525 27.5559 27.6207 27.3082 27.3964C27.4836 27.2383 27.6621 27.0842 27.8434 26.9342C28.6739 27.1991 29.4778 27.5302 30.2474 27.9049ZM26.6834 26.6135C26.6347 26.657 26.5863 26.7009 26.5381 26.745C26.4806 26.6997 26.4226 26.6548 26.3643 26.6103C26.3696 26.5889 26.3749 26.5675 26.3804 26.5462C26.4817 26.5675 26.5827 26.59 26.6834 26.6135ZM27.6276 25.825C27.3084 25.7346 26.9853 25.6535 26.6587 25.583C26.7318 25.3574 26.8098 25.1338 26.8921 24.9123C27.7419 24.7211 28.6077 24.605 29.4694 24.5471C28.8441 24.9341 28.2253 25.3591 27.6276 25.825ZM25.7225 25.2285C25.7034 25.2869 25.6846 25.3454 25.6661 25.404C25.5936 25.3935 25.5209 25.3836 25.4481 25.3742C25.4433 25.3576 25.4385 25.3409 25.4338 25.3242C25.5297 25.2912 25.6259 25.2593 25.7225 25.2285ZM27.1056 22.0349C26.7573 22.6832 26.4337 23.3612 26.149 24.0641C25.8276 24.1483 25.5084 24.2433 25.1922 24.35C25.1416 24.1139 25.0964 23.8771 25.0563 23.6399C25.6966 23.0494 26.3884 22.5159 27.1056 22.0349ZM24.2014 24.4985C24.2162 24.5687 24.2314 24.6388 24.2471 24.7089C24.1859 24.7349 24.1249 24.7613 24.0641 24.7883C24.0424 24.7675 24.0208 24.7466 23.9993 24.7257C24.0658 24.6492 24.1332 24.5735 24.2014 24.4985ZM23.9886 23.2769C23.7524 23.5105 23.5234 23.7524 23.303 24.0029C23.1411 23.8237 22.9836 23.6412 22.8302 23.4558C23.0894 22.6243 23.4218 21.8164 23.8025 21.0413C23.825 21.7768 23.8837 22.5258 23.9886 23.2769ZM22.5192 24.6269C22.567 24.6802 22.6153 24.7334 22.6639 24.7862C22.6239 24.8393 22.5843 24.8927 22.5451 24.9464C22.516 24.9392 22.4868 24.932 22.4577 24.9246C22.477 24.8251 22.4975 24.7258 22.5192 24.6269ZM20.445 21.8322C20.8323 22.458 21.2577 23.0772 21.724 23.6753C21.6363 23.9957 21.559 24.3196 21.4933 24.6468C21.2635 24.5725 21.0358 24.4932 20.8103 24.4094C20.619 23.5596 20.5029 22.6938 20.445 21.8322ZM21.1264 25.5791C21.1946 25.6014 21.263 25.6232 21.3315 25.6447C21.3187 25.7493 21.3071 25.8542 21.2968 25.9593C21.284 25.9632 21.2711 25.9671 21.2582 25.9709C21.2122 25.841 21.1683 25.7103 21.1264 25.5791ZM22.2173 27.1542C22.376 26.9534 22.5292 26.7475 22.6763 26.5363C22.9617 26.4229 23.2438 26.2991 23.522 26.1644C23.7498 26.2007 23.9792 26.2317 24.21 26.2569C24.418 26.4287 24.6316 26.5951 24.8507 26.7557C24.945 27.0084 25.0467 27.2593 25.1562 27.5079C25.1115 27.7739 25.0741 28.0421 25.0446 28.3121C24.8729 28.5201 24.7064 28.7336 24.5459 28.9527C24.3446 29.0278 24.1444 29.1076 23.9457 29.1923C23.6501 29.1461 23.3521 29.1097 23.0521 29.0842C22.8513 28.9255 22.6454 28.7723 22.4343 28.6252C22.3397 28.3874 22.238 28.1518 22.1287 27.9188C22.1658 27.6655 22.1955 27.4106 22.2173 27.1542ZM19.9621 25.1526C20.0565 25.5128 20.1644 25.8704 20.2872 26.224C20.0721 26.2721 19.8561 26.3154 19.6393 26.3541C19.0082 25.6837 18.4412 24.954 17.9328 24.1959C18.5811 24.5441 19.2591 24.8678 19.9621 25.1526Z" stroke="#F1DE0C" stroke-opacity="0.2"/>
</svg>
