<svg width="14" height="14" viewBox="0 0 14 14" fill="none" xmlns="http://www.w3.org/2000/svg">
<path d="M6.99916 7.12475C6.37059 7.12475 5.85631 6.61046 5.85631 5.98189C5.85631 5.35332 6.37059 4.83903 6.99916 4.83903C7.62773 4.83903 8.14202 5.35332 8.14202 5.98189C8.14202 6.61046 7.62773 7.12475 6.99916 7.12475ZM10.4277 6.09618C10.4277 4.02189 8.91345 2.55332 6.99916 2.55332C5.08488 2.55332 3.57059 4.02189 3.57059 6.09618C3.57059 7.43332 4.68488 9.20475 6.99916 11.319C9.31345 9.20475 10.4277 7.43332 10.4277 6.09618ZM6.99916 1.41046C9.39916 1.41046 11.5706 3.25046 11.5706 6.09618C11.5706 7.99332 10.0449 10.239 6.99916 12.839C3.95345 10.239 2.42773 7.99332 2.42773 6.09618C2.42773 3.25046 4.59916 1.41046 6.99916 1.41046Z" fill="#C1272D"/>
</svg>
