<svg width="32" height="33" viewBox="0 0 32 33" fill="none" xmlns="http://www.w3.org/2000/svg">
<circle cx="16" cy="16.792" r="15.4" fill="#C1272D" stroke="#C1272D" stroke-width="1.2"/>
<path d="M11.8 6.79199H20.2C23.4 6.79199 26 9.39199 26 12.592V20.992C26 22.5302 25.3889 24.0055 24.3012 25.0932C23.2135 26.1809 21.7383 26.792 20.2 26.792H11.8C8.6 26.792 6 24.192 6 20.992V12.592C6 11.0537 6.61107 9.57848 7.69878 8.49077C8.78649 7.40306 10.2617 6.79199 11.8 6.79199ZM11.6 8.79199C10.6452 8.79199 9.72955 9.17128 9.05442 9.84641C8.37928 10.5215 8 11.4372 8 12.392V21.192C8 23.182 9.61 24.792 11.6 24.792H20.4C21.3548 24.792 22.2705 24.4127 22.9456 23.7376C23.6207 23.0624 24 22.1468 24 21.192V12.392C24 10.402 22.39 8.79199 20.4 8.79199H11.6ZM21.25 10.292C21.5815 10.292 21.8995 10.4237 22.1339 10.6581C22.3683 10.8925 22.5 11.2105 22.5 11.542C22.5 11.8735 22.3683 12.1915 22.1339 12.4259C21.8995 12.6603 21.5815 12.792 21.25 12.792C20.9185 12.792 20.6005 12.6603 20.3661 12.4259C20.1317 12.1915 20 11.8735 20 11.542C20 11.2105 20.1317 10.8925 20.3661 10.6581C20.6005 10.4237 20.9185 10.292 21.25 10.292ZM16 11.792C17.3261 11.792 18.5979 12.3188 19.5355 13.2565C20.4732 14.1941 21 15.4659 21 16.792C21 18.1181 20.4732 19.3898 19.5355 20.3275C18.5979 21.2652 17.3261 21.792 16 21.792C14.6739 21.792 13.4021 21.2652 12.4645 20.3275C11.5268 19.3898 11 18.1181 11 16.792C11 15.4659 11.5268 14.1941 12.4645 13.2565C13.4021 12.3188 14.6739 11.792 16 11.792ZM16 13.792C15.2044 13.792 14.4413 14.1081 13.8787 14.6707C13.3161 15.2333 13 15.9963 13 16.792C13 17.5876 13.3161 18.3507 13.8787 18.9133C14.4413 19.4759 15.2044 19.792 16 19.792C16.7956 19.792 17.5587 19.4759 18.1213 18.9133C18.6839 18.3507 19 17.5876 19 16.792C19 15.9963 18.6839 15.2333 18.1213 14.6707C17.5587 14.1081 16.7956 13.792 16 13.792Z" fill="#F7F7F7"/>
</svg>
