<svg width="13" height="13" viewBox="0 0 13 13" fill="none" xmlns="http://www.w3.org/2000/svg">
<rect x="0.0849609" y="0.381958" width="12.3611" height="12.3611" fill="#D52802"/>
<path d="M5.65287 2.54335C5.90879 2.13554 6.50303 2.13554 6.75895 2.54335L7.37524 3.52539C7.5087 3.73806 7.75227 3.85536 8.00175 3.82711L9.15379 3.69664C9.6322 3.64247 10.0027 4.10706 9.84343 4.56141L9.45988 5.65554C9.37682 5.89248 9.43698 6.15605 9.61461 6.33348L10.4349 7.15285C10.7755 7.4931 10.6433 8.07243 10.1888 8.23119L9.09421 8.61351C8.85719 8.6963 8.68863 8.90766 8.66066 9.15717L8.53149 10.3094C8.47786 10.7878 7.94247 11.0457 7.53495 10.7893L6.5536 10.1719C6.34108 10.0382 6.07073 10.0382 5.85822 10.1719L4.87687 10.7893C4.46935 11.0457 3.93396 10.7878 3.88033 10.3094L3.75116 9.15717C3.72319 8.90766 3.55463 8.6963 3.31761 8.61351L2.22304 8.23119C1.76851 8.07243 1.63628 7.4931 1.97692 7.15285L2.7972 6.33348C2.97484 6.15605 3.035 5.89248 2.95194 5.65554L2.56839 4.56141C2.40912 4.10706 2.77962 3.64247 3.25802 3.69664L4.41007 3.82711C4.65955 3.85536 4.90312 3.73806 5.03658 3.52539L5.65287 2.54335Z" fill="#FDD3CB"/>
</svg>
