<svg width="40" height="41" viewBox="0 0 40 41" fill="none" xmlns="http://www.w3.org/2000/svg">
<rect y="0.791748" width="40" height="40" fill="#D52802"/>
<path d="M18.0157 7.78174C18.8439 6.46208 20.7668 6.46208 21.595 7.78174L23.5893 10.9596C24.0211 11.6478 24.8093 12.0273 25.6166 11.9359L29.3446 11.5138C30.8927 11.3384 32.0916 12.8418 31.5762 14.3121L30.3351 17.8527C30.0663 18.6194 30.261 19.4723 30.8358 20.0464L33.4902 22.6979C34.5925 23.7989 34.1646 25.6736 32.6937 26.1874L29.1518 27.4245C28.3848 27.6924 27.8393 28.3764 27.7488 29.1838L27.3308 32.9122C27.1573 34.4605 25.4248 35.2948 24.1061 34.4652L20.9305 32.4673C20.2428 32.0347 19.3679 32.0347 18.6803 32.4673L15.5046 34.4652C14.1859 35.2948 12.4534 34.4605 12.2799 32.9122L11.8619 29.1838C11.7714 28.3764 11.2259 27.6924 10.4589 27.4245L6.91698 26.1874C5.44612 25.6736 5.01823 23.7989 6.12052 22.6979L8.77494 20.0464C9.34976 19.4723 9.54443 18.6194 9.27566 17.8527L8.03452 14.3121C7.51912 12.8418 8.71803 11.3384 10.2661 11.5138L13.9941 11.9359C14.8014 12.0273 15.5896 11.6478 16.0215 10.9596L18.0157 7.78174Z" fill="#FDD3CB"/>
</svg>
