<svg width="13" height="13" viewBox="0 0 13 13" fill="none" xmlns="http://www.w3.org/2000/svg">
<rect x="0.553711" y="0.423615" width="12.3611" height="12.3611" fill="#D52802"/>
<path d="M6.12162 2.58506C6.37754 2.17725 6.97178 2.17725 7.2277 2.58506L7.84399 3.56711C7.97745 3.77977 8.22102 3.89708 8.4705 3.86882L9.62254 3.73836C10.101 3.68418 10.4714 4.14877 10.3122 4.60313L9.92863 5.69726C9.84557 5.93419 9.90573 6.19777 10.0834 6.3752L10.9037 7.19456C11.2443 7.53482 11.1121 8.11415 10.6575 8.27291L9.56296 8.65522C9.32594 8.73801 9.15738 8.94938 9.12941 9.19889L9.00024 10.3511C8.94661 10.8295 8.41122 11.0874 8.0037 10.831L7.02235 10.2136C6.80983 10.0799 6.53948 10.0799 6.32697 10.2136L5.34562 10.831C4.9381 11.0874 4.40271 10.8295 4.34908 10.3511L4.21991 9.19889C4.19194 8.94938 4.02338 8.73801 3.78636 8.65522L2.69179 8.27291C2.23726 8.11415 2.10503 7.53482 2.44567 7.19456L3.26595 6.3752C3.44359 6.19777 3.50375 5.9342 3.42069 5.69726L3.03714 4.60313C2.87787 4.14877 3.24837 3.68418 3.72677 3.73836L4.87882 3.86882C5.1283 3.89708 5.37187 3.77977 5.50533 3.56711L6.12162 2.58506Z" fill="#FDD3CB"/>
</svg>
