<svg width="14" height="13" viewBox="0 0 14 13" fill="none" xmlns="http://www.w3.org/2000/svg">
<rect x="0.722656" y="0.340271" width="12.3611" height="12.3611" fill="#FEFCE6"/>
<rect x="0.799913" y="0.417528" width="12.2066" height="12.2066" stroke="#F1DE0C" stroke-opacity="0.5" stroke-width="0.154514"/>
<path d="M2.57715 5.95805C2.57715 5.95805 5.11577 6.88767 6.90354 5.95805C8.6913 5.02843 11.2299 5.95805 11.2299 5.95805V7.10222C11.2299 7.10222 8.76281 6.20835 6.90354 7.10222C5.04426 7.99609 2.57715 7.10222 2.57715 7.10222V5.95805Z" fill="#F1DE0C"/>
<path d="M10.3682 9.17394C10.3682 9.17394 8.63453 7.09956 6.62147 7.01075C4.60841 6.92195 2.87471 4.84756 2.87471 4.84756L3.44679 3.85668C3.44679 3.85668 5.13644 5.86435 7.19355 6.01987C9.25067 6.1754 10.9403 8.18306 10.9403 8.18306L10.3682 9.17394Z" fill="#F1DE0C"/>
<path d="M8.57817 10.551C8.57817 10.551 8.11393 7.8877 6.41497 6.80426C4.71601 5.72082 4.25178 3.0575 4.25178 3.0575L5.24266 2.48541C5.24266 2.48541 5.7021 5.06893 7.40585 6.23218C9.1096 7.39542 9.56905 9.97894 9.56905 9.97894L8.57817 10.551Z" fill="#F1DE0C"/>
<path d="M6.3394 10.8486C6.3394 10.8486 7.26902 8.30995 6.33939 6.52219C5.40977 4.73443 6.33939 2.1958 6.33939 2.1958L7.48356 2.1958C7.48356 2.1958 6.5897 4.66292 7.48356 6.52219C8.37743 8.38146 7.48356 10.8486 7.48356 10.8486H6.3394Z" fill="#F1DE0C"/>
<path d="M4.25179 9.98689C4.25179 9.98689 6.32618 8.25318 6.41498 6.24012C6.50379 4.22706 8.57818 2.49336 8.57818 2.49336L9.56906 3.06544C9.56906 3.06544 7.56139 4.75509 7.40586 6.81221C7.25034 8.86932 5.24267 10.559 5.24267 10.559L4.25179 9.98689Z" fill="#F1DE0C"/>
<path d="M2.87471 8.19683C2.87471 8.19683 5.53803 7.73259 6.62147 6.03363C7.70491 4.33467 10.3682 3.87044 10.3682 3.87044L10.9403 4.86132C10.9403 4.86132 8.3568 5.32076 7.19356 7.02451C6.03031 8.72826 3.44679 9.18771 3.44679 9.18771L2.87471 8.19683Z" fill="#F1DE0C"/>
</svg>
