<svg width="13" height="13" viewBox="0 0 13 13" fill="none" xmlns="http://www.w3.org/2000/svg">
<rect x="0.640625" y="0.381958" width="12.3611" height="12.3611" fill="#FEFCE6"/>
<rect x="0.717882" y="0.459215" width="12.2066" height="12.2066" stroke="#F1DE0C" stroke-opacity="0.5" stroke-width="0.154514"/>
<path d="M2.49512 5.99974C2.49512 5.99974 5.03374 6.92936 6.82151 5.99974C8.60927 5.07012 11.1479 5.99974 11.1479 5.99974V7.14391C11.1479 7.14391 8.68078 6.25004 6.82151 7.14391C4.96223 8.03778 2.49512 7.14391 2.49512 7.14391V5.99974Z" fill="#F1DE0C"/>
<path d="M10.2862 9.21563C10.2862 9.21563 8.5525 7.14124 6.53944 7.05244C4.52638 6.96363 2.79268 4.88924 2.79268 4.88924L3.36476 3.89836C3.36476 3.89836 5.05441 5.90603 7.11152 6.06156C9.16864 6.21708 10.8583 8.22475 10.8583 8.22475L10.2862 9.21563Z" fill="#F1DE0C"/>
<path d="M8.49614 10.5927C8.49614 10.5927 8.0319 7.92938 6.33294 6.84595C4.63398 5.76251 4.16975 3.09919 4.16975 3.09919L5.16063 2.5271C5.16063 2.5271 5.62007 5.11062 7.32382 6.27386C9.02757 7.43711 9.48701 10.0206 9.48701 10.0206L8.49614 10.5927Z" fill="#F1DE0C"/>
<path d="M6.25736 10.8903C6.25736 10.8903 7.18699 8.35164 6.25736 6.56388C5.32774 4.77611 6.25736 2.23749 6.25736 2.23749L7.40153 2.23749C7.40153 2.23749 6.50766 4.7046 7.40153 6.56388C8.2954 8.42315 7.40153 10.8903 7.40153 10.8903H6.25736Z" fill="#F1DE0C"/>
<path d="M4.16976 10.0286C4.16976 10.0286 6.24414 8.29487 6.33295 6.28181C6.42175 4.26875 8.49614 2.53505 8.49614 2.53505L9.48702 3.10713C9.48702 3.10713 7.47935 4.79678 7.32383 6.85389C7.1683 8.91101 5.16064 10.6007 5.16064 10.6007L4.16976 10.0286Z" fill="#F1DE0C"/>
<path d="M2.79268 8.23851C2.79268 8.23851 5.456 7.77428 6.53944 6.07532C7.62288 4.37636 10.2862 3.91213 10.2862 3.91213L10.8583 4.90301C10.8583 4.90301 8.27477 5.36245 7.11152 7.0662C5.94828 8.76995 3.36476 9.22939 3.36476 9.22939L2.79268 8.23851Z" fill="#F1DE0C"/>
</svg>
