<svg width="13" height="13" viewBox="0 0 13 13" fill="none" xmlns="http://www.w3.org/2000/svg">
<rect x="0.0849609" y="0.423615" width="12.3611" height="12.3611" fill="#FEFCE6"/>
<rect x="0.162218" y="0.500871" width="12.2066" height="12.2066" stroke="#F1DE0C" stroke-opacity="0.5" stroke-width="0.154514"/>
<path d="M1.93945 6.04146C1.93945 6.04146 4.47808 6.97108 6.26584 6.04146C8.05361 5.11183 10.5922 6.04146 10.5922 6.04146V7.18563C10.5922 7.18563 8.12512 6.29176 6.26584 7.18563C4.40657 8.07949 1.93945 7.18563 1.93945 7.18563V6.04146Z" fill="#F1DE0C"/>
<path d="M9.73054 9.25735C9.73054 9.25735 7.99684 7.18296 5.98377 7.09415C3.97071 7.00535 2.23701 4.93096 2.23701 4.93096L2.8091 3.94008C2.8091 3.94008 4.49875 5.94775 6.55586 6.10327C8.61297 6.2588 10.3026 8.26647 10.3026 8.26647L9.73054 9.25735Z" fill="#F1DE0C"/>
<path d="M7.94047 10.6344C7.94047 10.6344 7.47624 7.9711 5.77728 6.88766C4.07832 5.80423 3.61408 3.1409 3.61408 3.1409L4.60496 2.56882C4.60496 2.56882 5.06441 5.15234 6.76816 6.31558C8.47191 7.47883 8.93135 10.0623 8.93135 10.0623L7.94047 10.6344Z" fill="#F1DE0C"/>
<path d="M5.7017 10.932C5.7017 10.932 6.63132 8.39336 5.7017 6.60559C4.77208 4.81783 5.7017 2.27921 5.7017 2.27921L6.84587 2.27921C6.84587 2.27921 5.952 4.74632 6.84587 6.60559C7.73974 8.46487 6.84587 10.932 6.84587 10.932H5.7017Z" fill="#F1DE0C"/>
<path d="M3.61409 10.0703C3.61409 10.0703 5.68848 8.33659 5.77729 6.32353C5.86609 4.31047 7.94048 2.57676 7.94048 2.57676L8.93136 3.14885C8.93136 3.14885 6.92369 4.8385 6.76817 6.89561C6.61264 8.95272 4.60497 10.6424 4.60497 10.6424L3.61409 10.0703Z" fill="#F1DE0C"/>
<path d="M2.23701 8.28023C2.23701 8.28023 4.90034 7.816 5.98378 6.11704C7.06721 4.41808 9.73054 3.95384 9.73054 3.95384L10.3026 4.94472C10.3026 4.94472 7.71911 5.40417 6.55586 7.10792C5.39262 8.81167 2.8091 9.27111 2.8091 9.27111L2.23701 8.28023Z" fill="#F1DE0C"/>
</svg>
