<svg width="40" height="40" viewBox="0 0 40 40" fill="none" xmlns="http://www.w3.org/2000/svg">
<rect width="40" height="40" fill="white"/>
<rect x="0.5" y="0.5" width="39" height="39" stroke="#34548D" stroke-opacity="0.1"/>
<path d="M18 18.4444H26V21.5556H18V18.4444Z" fill="#34548D"/>
<path d="M34 20C34 23.3137 31.3137 26 28 26C24.6863 26 22 23.3137 22 20C22 16.6863 24.6863 14 28 14C31.3137 14 34 16.6863 34 20Z" fill="#34548D"/>
<path d="M21.5556 18V26H18.4444V18H21.5556Z" fill="#34548D"/>
<path d="M20 34C16.6863 34 14 31.3137 14 28C14 24.6863 16.6863 22 20 22C23.3137 22 26 24.6863 26 28C26 31.3137 23.3137 34 20 34Z" fill="#34548D"/>
<path d="M22 18.4444H14V21.5556H22V18.4444Z" fill="#34548D"/>
<path d="M6 20C6 23.3137 8.68629 26 12 26C15.3137 26 18 23.3137 18 20C18 16.6863 15.3137 14 12 14C8.68629 14 6 16.6863 6 20Z" fill="#34548D"/>
<path d="M21.5556 22V14H18.4444V22H21.5556Z" fill="#34548D"/>
<path d="M20 6C16.6863 6 14 8.68629 14 12C14 15.3137 16.6863 18 20 18C23.3137 18 26 15.3137 26 12C26 8.68629 23.3137 6 20 6Z" fill="#34548D"/>
</svg>
