<svg width="47" height="54" viewBox="0 0 47 54" fill="none" xmlns="http://www.w3.org/2000/svg">
<rect width="46.8" height="53.235" fill="#D52802"/>
<path d="M21.077 11.6878C22.046 10.1438 24.2958 10.1438 25.2647 11.6878L27.598 15.4059C28.1033 16.211 29.0255 16.6551 29.97 16.5482L34.3318 16.0542C36.143 15.8491 37.5458 17.6081 36.9427 19.3283L35.4906 23.4708C35.1762 24.3678 35.4039 25.3657 36.0764 26.0375L39.1821 29.1397C40.4718 30.4279 39.9712 32.6213 38.2503 33.2224L34.1062 34.6698C33.2088 34.9833 32.5706 35.7835 32.4647 36.7282L31.9757 41.0905C31.7726 42.902 29.7456 43.8781 28.2027 42.9074L24.4872 40.5699C23.6826 40.0637 22.6591 40.0637 21.8545 40.5699L18.139 42.9074C16.5961 43.8781 14.5691 42.902 14.366 41.0905L13.877 36.7282C13.7711 35.7835 13.133 34.9833 12.2355 34.6698L8.09146 33.2224C6.37056 32.6213 5.86993 30.4279 7.15961 29.1397L10.2653 26.0375C10.9378 25.3657 11.1656 24.3678 10.8511 23.4708L9.39898 19.3283C8.79596 17.6081 10.1987 15.8491 12.01 16.0542L16.3717 16.5482C17.3162 16.6551 18.2384 16.211 18.7437 15.4059L21.077 11.6878Z" fill="white"/>
</svg>
