<svg width="40" height="40" viewBox="0 0 40 40" fill="none" xmlns="http://www.w3.org/2000/svg">
<rect y="3.05176e-05" width="40" height="40" fill="#FEFCE6"/>
<rect x="0.5" y="0.500031" width="39" height="39" stroke="#F1DE0C" stroke-opacity="0.5"/>
<path d="M6 18.1745C6 18.1745 14.2149 21.1827 20 18.1745C25.7851 15.1663 34 18.1745 34 18.1745V21.877C34 21.877 26.0165 18.9845 20 21.877C13.9835 24.7695 6 21.877 6 21.877V18.1745Z" fill="#F1DE0C"/>
<path d="M31.2116 28.581C31.2116 28.581 25.6014 21.8684 19.0872 21.581C12.5731 21.2936 6.96289 14.581 6.96289 14.581L8.81413 11.3745C8.81413 11.3745 14.2818 17.8713 20.9385 18.3745C27.5952 18.8778 33.0628 25.3745 33.0628 25.3745L31.2116 28.581Z" fill="#F1DE0C"/>
<path d="M25.419 33.0372C25.419 33.0372 23.9168 24.4188 18.419 20.9128C12.9213 17.4068 11.419 8.78844 11.419 8.78844L14.6255 6.9372C14.6255 6.9372 16.1122 15.2974 21.6255 19.0616C27.1387 22.8258 28.6255 31.1859 28.6255 31.1859L25.419 33.0372Z" fill="#F1DE0C"/>
<path d="M18.1745 34C18.1745 34 21.1827 25.7852 18.1745 20C15.1662 14.2149 18.1745 6.00003 18.1745 6.00003L21.8769 6.00003C21.8769 6.00003 18.9844 13.9835 21.8769 20C24.7695 26.0166 21.8769 34 21.8769 34H18.1745Z" fill="#F1DE0C"/>
<path d="M11.4191 31.2116C11.4191 31.2116 18.1317 25.6014 18.4191 19.0873C18.7064 12.5731 25.4191 6.96292 25.4191 6.96292L28.6255 8.81416C28.6255 8.81416 22.1288 14.2818 21.6255 20.9385C21.1222 27.5952 14.6255 33.0629 14.6255 33.0629L11.4191 31.2116Z" fill="#F1DE0C"/>
<path d="M6.96289 25.4191C6.96289 25.4191 15.5813 23.9168 19.0872 18.4191C22.5932 12.9213 31.2116 11.4191 31.2116 11.4191L33.0628 14.6255C33.0628 14.6255 24.7027 16.1123 20.9385 21.6255C17.1743 27.1388 8.81413 28.6255 8.81413 28.6255L6.96289 25.4191Z" fill="#F1DE0C"/>
</svg>
