<svg width="40" height="40" viewBox="0 0 40 40" fill="none" xmlns="http://www.w3.org/2000/svg">
<rect y="0.00012207" width="40" height="40" fill="white"/>
<rect x="0.5" y="0.500122" width="39" height="39" stroke="#34548D" stroke-opacity="0.1"/>
<path d="M18 18.4447H26V21.5559H18V18.4447Z" fill="#34548D"/>
<path d="M34 20.0003C34 23.314 31.3137 26.0003 28 26.0003C24.6863 26.0003 22 23.314 22 20.0003C22 16.6866 24.6863 14.0003 28 14.0003C31.3137 14.0003 34 16.6866 34 20.0003Z" fill="#34548D"/>
<path d="M21.5556 18.0003V26.0003H18.4444V18.0003H21.5556Z" fill="#34548D"/>
<path d="M20 34.0003C16.6863 34.0003 14 31.314 14 28.0003C14 24.6866 16.6863 22.0003 20 22.0003C23.3137 22.0003 26 24.6866 26 28.0003C26 31.314 23.3137 34.0003 20 34.0003Z" fill="#34548D"/>
<path d="M22 18.4447H14V21.5559H22V18.4447Z" fill="#34548D"/>
<path d="M6 20.0003C6 23.314 8.68629 26.0003 12 26.0003C15.3137 26.0003 18 23.314 18 20.0003C18 16.6866 15.3137 14.0003 12 14.0003C8.68629 14.0003 6 16.6866 6 20.0003Z" fill="#34548D"/>
<path d="M21.5556 22.0003V14.0003H18.4444V22.0003H21.5556Z" fill="#34548D"/>
<path d="M20 6.00031C16.6863 6.00031 14 8.6866 14 12.0003C14 15.314 16.6863 18.0003 20 18.0003C23.3137 18.0003 26 15.314 26 12.0003C26 8.6866 23.3137 6.00031 20 6.00031Z" fill="#34548D"/>
</svg>
