<svg width="40" height="41" viewBox="0 0 40 41" fill="none" xmlns="http://www.w3.org/2000/svg">
<rect y="0.709229" width="40" height="40" fill="white"/>
<rect x="0.5" y="1.20923" width="39" height="39" stroke="#34548D" stroke-opacity="0.1"/>
<path d="M18 19.1537H26V22.2648H18V19.1537Z" fill="#34548D"/>
<path d="M34 20.7092C34 24.0229 31.3137 26.7092 28 26.7092C24.6863 26.7092 22 24.0229 22 20.7092C22 17.3955 24.6863 14.7092 28 14.7092C31.3137 14.7092 34 17.3955 34 20.7092Z" fill="#34548D"/>
<path d="M21.5556 18.7092V26.7092H18.4444V18.7092H21.5556Z" fill="#34548D"/>
<path d="M20 34.7092C16.6863 34.7092 14 32.0229 14 28.7092C14 25.3955 16.6863 22.7092 20 22.7092C23.3137 22.7092 26 25.3955 26 28.7092C26 32.0229 23.3137 34.7092 20 34.7092Z" fill="#34548D"/>
<path d="M22 19.1537H14V22.2648H22V19.1537Z" fill="#34548D"/>
<path d="M6 20.7092C6 24.0229 8.68629 26.7092 12 26.7092C15.3137 26.7092 18 24.0229 18 20.7092C18 17.3955 15.3137 14.7092 12 14.7092C8.68629 14.7092 6 17.3955 6 20.7092Z" fill="#34548D"/>
<path d="M21.5556 22.7092V14.7092H18.4444V22.7092H21.5556Z" fill="#34548D"/>
<path d="M20 6.70923C16.6863 6.70923 14 9.39552 14 12.7092C14 16.0229 16.6863 18.7092 20 18.7092C23.3137 18.7092 26 16.0229 26 12.7092C26 9.39552 23.3137 6.70923 20 6.70923Z" fill="#34548D"/>
</svg>
