<svg width="32" height="33" viewBox="0 0 32 33" fill="none" xmlns="http://www.w3.org/2000/svg">
<path d="M8.83999 21.3849V21.9849H9.43999H12.904V31.9115C5.88798 30.4705 0.6 24.2165 0.6 16.7263C0.6 8.17144 7.53402 1.22988 16 1.22988C24.4659 1.22988 31.4 8.17144 31.4 16.7263L31.4 16.7276C31.4082 20.4175 30.1023 23.9884 27.7185 26.7958C25.4876 29.4231 22.4504 31.2196 19.096 31.9108V21.9849H22.224H22.7384L22.8169 21.4765L23.5369 16.8179L23.6438 16.1263H22.944H19.096V13.7062C19.096 13.1593 19.2314 12.6921 19.5101 12.3694C19.7746 12.063 20.2432 11.8002 21.104 11.8002H23.12H23.72V11.2002V7.23229V6.72435L23.219 6.64052L23.12 7.23229C23.219 6.64052 23.2189 6.64051 23.2189 6.6405L23.2187 6.64048L23.2183 6.64041L23.2169 6.64018L23.2122 6.6394L23.1951 6.6366L23.131 6.62641C23.0756 6.61772 22.9951 6.60543 22.8934 6.59076C22.6902 6.56142 22.4015 6.52244 22.0575 6.48349C21.3719 6.40588 20.4553 6.32707 19.552 6.32707C17.5989 6.32707 15.92 6.9202 14.7289 8.11611C13.5374 9.31238 12.904 11.0415 12.904 13.1761V16.1263H9.43999H8.83999V16.7263V21.3849Z" fill="#C1272D" stroke="#C1272D" stroke-width="1.2"/>
</svg>
