<svg width="42" height="43" viewBox="0 0 42 43" fill="none" xmlns="http://www.w3.org/2000/svg">
<circle cx="21" cy="21.7092" r="20" fill="#FEFCE6" stroke="#C1272D" stroke-width="2"/>
<path d="M15.2047 30.3252C12.5198 30.3252 11 28.1976 11 24.4488C11 19.6363 13.3303 16.1408 17.7376 13.7092L19.2573 16.3941C16.1672 18.2178 14.6474 20.2442 14.6474 23.5876L15.2047 27.7416L12.6717 24.4995C13.4316 23.8409 14.1915 23.4357 15.2047 23.4357C17.0284 23.4357 18.5988 24.6515 18.5988 26.7285C18.5988 28.9575 17.1803 30.3252 15.2047 30.3252ZM26.2989 30.3252C23.6646 30.3252 22.1449 28.1976 22.1449 24.4488C22.1449 19.6363 24.4752 16.1408 28.8825 13.7092L30.3516 16.3941C27.312 18.2178 25.843 20.2442 25.843 23.5876L26.2989 27.7416L23.8166 24.4995C24.5765 23.8409 25.3364 23.4357 26.2989 23.4357C28.1226 23.4357 29.7437 24.6515 29.7437 26.7285C29.7437 28.9575 28.3252 30.3252 26.2989 30.3252Z" fill="#C1272D"/>
</svg>
