<svg width="47" height="54" viewBox="0 0 47 54" fill="none" xmlns="http://www.w3.org/2000/svg">
<rect x="0.199219" y="0.629883" width="46.8" height="53.235" fill="#FEFCE6"/>
<rect x="0.699219" y="1.12988" width="45.8" height="52.235" stroke="#F1DE0C" stroke-opacity="0.2"/>
<path d="M7.21875 25.4038C7.21875 25.4038 16.8302 28.9234 23.5987 25.4038C30.3673 21.8842 39.9787 25.4038 39.9787 25.4038V29.7357C39.9787 29.7357 30.6381 26.3515 23.5987 29.7357C16.5594 33.1199 7.21875 29.7357 7.21875 29.7357V25.4038Z" fill="#F1DE0C"/>
<path d="M36.7163 37.5794C36.7163 37.5794 30.1524 29.7256 22.5308 29.3894C14.9092 29.0532 8.34533 21.1994 8.34533 21.1994L10.5113 17.4479C10.5113 17.4479 16.9084 25.049 24.6968 25.6379C32.4851 26.2267 38.8823 33.8279 38.8823 33.8279L36.7163 37.5794Z" fill="#F1DE0C"/>
<path d="M29.939 42.7931C29.939 42.7931 28.1814 32.7096 21.749 28.6076C15.3166 24.5056 13.559 14.4221 13.559 14.4221L17.3105 12.2562C17.3105 12.2562 19.05 22.0375 25.5005 26.4417C31.9511 30.8458 33.6905 40.6271 33.6905 40.6271L29.939 42.7931Z" fill="#F1DE0C"/>
<path d="M21.4629 43.9197C21.4629 43.9197 24.9825 34.3083 21.4629 27.5397C17.9433 20.7711 21.4629 11.1597 21.4629 11.1597L25.7948 11.1597C25.7948 11.1597 22.4105 20.5003 25.7948 27.5397C29.179 34.579 25.7948 43.9197 25.7948 43.9197H21.4629Z" fill="#F1DE0C"/>
<path d="M13.559 40.6572C13.559 40.6572 21.4128 34.0933 21.749 26.4717C22.0853 18.8502 29.939 12.2862 29.939 12.2862L33.6906 14.4522C33.6906 14.4522 26.0894 20.8493 25.5006 28.6377C24.9118 36.4261 17.3106 42.8232 17.3106 42.8232L13.559 40.6572Z" fill="#F1DE0C"/>
<path d="M8.34533 33.88C8.34533 33.88 18.4289 32.1223 22.5308 25.69C26.6328 19.2576 36.7163 17.5 36.7163 17.5L38.8823 21.2515C38.8823 21.2515 29.1009 22.991 24.6968 29.4415C20.2927 35.892 10.5113 37.6315 10.5113 37.6315L8.34533 33.88Z" fill="#F1DE0C"/>
<path d="M8.95709 21.1398L10.5997 18.2948C10.7786 18.4872 11.0064 18.7256 11.2789 18.9982C12.012 19.7317 13.0715 20.7156 14.379 21.7187C14.9112 22.127 15.4866 22.5402 16.0998 22.9417C16.7479 24.1186 17.523 25.2924 18.4448 26.3609C17.3901 26.4726 16.3333 26.4903 15.3117 26.4447C14.4404 25.9171 13.6264 25.3453 12.8858 24.7728C11.6103 23.7865 10.5682 22.8099 9.84527 22.0799C9.48406 21.7152 9.20322 21.4128 9.01348 21.2026C8.99368 21.1806 8.97488 21.1597 8.95709 21.1398ZM14.1186 14.6764L16.9636 13.0338C17.0224 13.2899 17.1005 13.6102 17.2001 13.9826C17.4683 14.9844 17.8939 16.3662 18.5247 17.8887C18.7814 18.5084 19.0732 19.1539 19.4034 19.8083C19.3772 21.1026 19.4546 22.4533 19.6965 23.7901C18.691 23.3382 17.7388 22.8059 16.8569 22.2407C16.4142 21.416 16.0321 20.5862 15.7045 19.787C15.093 18.2952 14.6788 16.9282 14.4177 15.9347C14.2873 15.4382 14.1952 15.0359 14.1361 14.7589C14.1299 14.73 14.1241 14.7025 14.1186 14.6764ZM21.8204 11.6597L25.1055 11.6597C25.0284 11.9109 24.9358 12.2273 24.8359 12.5996C24.5672 13.6013 24.2449 15.0108 24.03 16.6447C23.9424 17.3097 23.8724 18.0146 23.8312 18.7465C23.1614 19.8543 22.553 21.0628 22.0941 22.3414C21.4492 21.4472 20.8908 20.5102 20.4096 19.5798C20.4386 18.6442 20.5226 17.7345 20.6385 16.8785C20.8548 15.2808 21.1796 13.89 21.4503 12.8989C21.5855 12.4038 21.707 12.0093 21.7942 11.7399C21.8033 11.7118 21.812 11.685 21.8204 11.6597ZM29.9986 12.898L32.8436 14.5406C32.6513 14.7196 32.4129 14.9473 32.1402 15.2198C31.4067 15.9529 30.4228 17.0124 29.4197 18.32C29.0114 18.8521 28.5983 19.4275 28.1967 20.0408C27.0627 20.6652 25.9316 21.4076 24.8948 22.2855C24.7834 21.1887 24.7683 20.098 24.8168 19.0517C25.3097 18.2559 25.8373 17.51 26.3657 16.8267C27.3519 15.5513 28.3286 14.5091 29.0585 13.7862C29.4232 13.425 29.7256 13.1441 29.9359 12.9544C29.9578 12.9346 29.9787 12.9158 29.9986 12.898ZM36.4621 18.0596L38.1046 20.9046C37.8485 20.9634 37.5282 21.0414 37.1558 21.1411C36.154 21.4092 34.7722 21.8348 33.2497 22.4656C32.63 22.7224 31.9845 23.0141 31.3301 23.3444C30.0358 23.3182 28.6851 23.3955 27.3483 23.6375C27.8002 22.6319 28.3325 21.6798 28.8977 20.7979C29.7224 20.3552 30.5522 19.973 31.3514 19.6455C32.8433 19.034 34.2102 18.6198 35.2038 18.3587C35.7002 18.2282 36.1025 18.1362 36.3795 18.077C36.4084 18.0708 36.4359 18.065 36.4621 18.0596ZM39.4787 25.7613V29.0464C39.2276 28.9693 38.9111 28.8767 38.5388 28.7769C37.5371 28.5082 36.1277 28.1859 34.4937 27.9709C33.8302 27.8836 33.1269 27.8136 32.3968 27.7724C31.2888 27.1106 30.0779 26.5055 28.7913 26.0392C29.6872 25.3926 30.6262 24.8327 31.5587 24.3506C32.4942 24.3795 33.404 24.4635 34.2599 24.5794C35.8576 24.7958 37.2485 25.1205 38.2395 25.3912C38.7346 25.5264 39.1291 25.6479 39.3985 25.7351C39.4266 25.7442 39.4534 25.753 39.4787 25.7613ZM38.2697 33.8888L36.6295 36.7297C36.4453 36.5298 36.2095 36.2805 35.9269 35.9951C35.1809 35.2419 34.1057 34.2342 32.7875 33.2149C32.2297 32.7836 31.6255 32.348 30.9818 31.9278C30.3788 30.8716 29.6716 29.8178 28.8458 28.8365C29.9477 28.7242 31.0435 28.7091 32.0945 28.7581C32.9263 29.2667 33.7011 29.8097 34.4058 30.3504C35.6711 31.3211 36.6977 32.2743 37.4074 32.9844C37.762 33.3392 38.0369 33.6327 38.2223 33.8366C38.2388 33.8547 38.2546 33.8721 38.2697 33.8888ZM33.1296 40.3737L30.2887 42.0139C30.2291 41.7486 30.1496 41.4149 30.0475 41.0264C29.778 40.0011 29.3508 38.5908 28.7188 37.049C28.4514 36.3965 28.1459 35.7172 27.7986 35.0315C27.8047 33.7666 27.7119 32.4478 27.4669 31.1349C28.4398 31.5667 29.3672 32.0816 30.2321 32.6341C30.7478 33.5594 31.185 34.4901 31.5526 35.3773C32.163 36.8507 32.5754 38.1895 32.835 39.1593C32.9647 39.6439 33.056 40.0355 33.1147 40.3047C33.1199 40.3287 33.1249 40.3517 33.1296 40.3737ZM25.4357 43.4197H22.1553C22.2364 43.1601 22.3343 42.8313 22.4401 42.4439C22.7194 41.4212 23.0546 39.9862 23.2782 38.335C23.3728 37.6362 23.448 36.8953 23.49 36.1278C24.1278 35.0354 24.7068 33.8468 25.151 32.5873C25.7778 33.4477 26.3234 34.3574 26.7962 35.2683C26.7801 36.3275 26.6934 37.352 26.5681 38.3042C26.3601 39.8853 26.0479 41.251 25.7878 42.2207C25.6578 42.7052 25.5411 43.09 25.4573 43.3525C25.4498 43.3759 25.4426 43.3983 25.4357 43.4197ZM17.2496 42.2106L14.4087 40.5705C14.6087 40.3862 14.8579 40.1504 15.1433 39.8678C15.8965 39.1218 16.9043 38.0466 17.9235 36.7284C18.3548 36.1706 18.7904 35.5665 19.2106 34.9228C20.3091 34.2956 21.4048 33.5558 22.4192 32.6872C22.5318 33.7457 22.5495 34.8064 22.5035 35.8316C21.96 36.7409 21.3727 37.5848 20.7881 38.3467C19.8173 39.612 18.8641 40.6386 18.154 41.3483C17.7992 41.7029 17.5057 41.9778 17.3019 42.1632C17.2837 42.1798 17.2663 42.1956 17.2496 42.2106ZM10.7648 37.0705L9.12458 34.2297C9.38985 34.1701 9.72358 34.0905 10.1121 33.9884C11.1373 33.719 12.5477 33.2917 14.0895 32.6597C14.7419 32.3923 15.4212 32.0869 16.1069 31.7395C17.3718 31.7457 18.6907 31.6528 20.0035 31.4078C19.5718 32.3808 19.0568 33.3082 18.5043 34.173C17.579 34.6888 16.6484 35.1259 15.7611 35.4935C14.2878 36.1039 12.949 36.5163 11.9792 36.7759C11.4946 36.9056 11.1029 36.9969 10.8337 37.0556C10.8097 37.0608 10.7868 37.0658 10.7648 37.0705ZM7.71875 29.3766V26.0963C7.97827 26.1773 8.30707 26.2753 8.69456 26.3811C9.71719 26.6604 11.1522 26.9955 12.8034 27.2191C13.5028 27.3138 14.2445 27.389 15.0127 27.4311C16.1058 28.0769 17.293 28.6591 18.5459 29.0958C17.6871 29.7209 16.7792 30.2653 15.8702 30.7371C14.8109 30.7211 13.7864 30.6344 12.8342 30.5091C11.2531 30.301 9.88744 29.9888 8.91776 29.7287C8.43323 29.5987 8.0484 29.482 7.78592 29.3982C7.76255 29.3907 7.74016 29.3835 7.71875 29.3766ZM19.4951 28.3528C18.6991 28.1134 17.924 27.8062 17.178 27.4526C17.8748 27.4265 18.5807 27.3661 19.2854 27.2625C19.5129 27.4876 19.748 27.7059 19.9911 27.9161C19.8289 28.0653 19.6634 28.2108 19.4951 28.3528ZM20.7055 27.2115C20.6384 27.1542 20.5718 27.0961 20.5059 27.0375C20.5552 27.0264 20.6045 27.0152 20.6537 27.0036C20.6797 27.0633 20.7062 27.1228 20.7331 27.1821C20.7239 27.1919 20.7147 27.2017 20.7055 27.2115ZM20.6692 28.6511C20.7064 28.6169 20.7434 28.5826 20.7803 28.548C20.8326 28.5866 20.8853 28.6249 20.9383 28.6628C20.9352 28.6759 20.9321 28.689 20.929 28.7021C20.8422 28.686 20.7556 28.669 20.6692 28.6511ZM19.7248 29.4563C20.0343 29.5375 20.347 29.609 20.6627 29.6695C20.597 29.8792 20.5267 30.0874 20.4521 30.2939C19.642 30.4787 18.8217 30.5985 18.007 30.6669C18.5932 30.298 19.1701 29.8953 19.7248 29.4563ZM21.6132 29.9805C21.6297 29.9278 21.646 29.875 21.662 29.8221C21.7267 29.8294 21.7914 29.8363 21.8562 29.8426C21.8617 29.8605 21.8671 29.8784 21.8724 29.8963C21.7862 29.9253 21.6998 29.9533 21.6132 29.9805ZM20.3198 33.0438C20.6424 32.4323 20.9402 31.7962 21.2007 31.1398C21.5102 31.0584 21.8182 30.9676 22.1241 30.8665C22.1708 31.0762 22.2129 31.2869 22.2508 31.4983C21.6416 32.0633 20.9911 32.5772 20.3198 33.0438ZM23.0996 30.6464C23.09 30.6033 23.0803 30.5604 23.0703 30.5174C23.1374 30.49 23.2043 30.462 23.271 30.4334C23.2747 30.4369 23.2784 30.4403 23.282 30.4438C23.2219 30.5119 23.161 30.5795 23.0996 30.6464ZM23.3221 31.8565C23.5494 31.6313 23.7707 31.3986 23.9851 31.1581C24.1304 31.3164 24.2722 31.4778 24.4107 31.6419C24.1656 32.4359 23.8593 33.2062 23.5112 33.9459C23.4848 33.255 23.4246 32.5552 23.3221 31.8565ZM24.7198 30.4797C24.69 30.4473 24.6601 30.4149 24.63 30.3827C24.6743 30.3254 24.7183 30.2677 24.7618 30.2096C24.7667 30.2107 24.7716 30.2119 24.7765 30.2131C24.7585 30.3022 24.7396 30.3911 24.7198 30.4797ZM26.726 33.1314C26.3577 32.5463 25.9557 31.9703 25.5175 31.4165C25.6018 31.1078 25.6772 30.7956 25.7426 30.4801C25.9475 30.5446 26.1511 30.6134 26.353 30.6863C26.5377 31.4964 26.6576 32.3167 26.726 33.1314ZM26.0396 29.5252C25.9976 29.512 25.9555 29.499 25.9133 29.4862C25.9178 29.4535 25.9221 29.4208 25.9263 29.3881C25.9475 29.382 25.9687 29.3759 25.9898 29.37C26.0067 29.4216 26.0233 29.4734 26.0396 29.5252ZM27.1989 29.9377C27.1277 29.667 27.0493 29.3974 26.9631 29.1294C27.194 29.0802 27.4256 29.036 27.6576 28.9968C28.1833 29.5743 28.664 30.1872 29.1029 30.8186C28.4914 30.496 27.8553 30.1982 27.1989 29.9377ZM26.8134 28.139C26.7495 28.1524 26.6857 28.1661 26.6219 28.1803C26.5947 28.1123 26.567 28.0444 26.5387 27.9767C26.554 27.9608 26.5693 27.945 26.5846 27.9292C26.6617 27.9983 26.7379 28.0683 26.8134 28.139ZM30.2464 27.7428C29.5155 27.7656 28.7715 27.8242 28.0254 27.9283C27.7942 27.6904 27.5549 27.4586 27.3073 27.2343C27.4826 27.0761 27.6611 26.9221 27.8424 26.7721C28.6729 27.037 29.4769 27.3681 30.2464 27.7428ZM26.6824 26.4514C26.6338 26.4949 26.5853 26.5388 26.5372 26.5829C26.4796 26.5376 26.4216 26.4927 26.3633 26.4482C26.3686 26.4268 26.374 26.4054 26.3794 26.3841C26.4807 26.4054 26.5817 26.4279 26.6824 26.4514ZM27.6267 25.6629C27.3075 25.5724 26.9844 25.4914 26.6577 25.4209C26.7308 25.1953 26.8088 24.9717 26.8912 24.7502C27.7409 24.559 28.6068 24.4428 29.4684 24.385C28.8431 24.772 28.2243 25.1969 27.6267 25.6629ZM25.7215 25.0664C25.7024 25.1248 25.6836 25.1833 25.6651 25.2419C25.5926 25.2314 25.5199 25.2215 25.4471 25.2121C25.4423 25.1954 25.4376 25.1788 25.4328 25.1621C25.5287 25.129 25.6249 25.0972 25.7215 25.0664ZM27.1046 21.8728C26.7564 22.5211 26.4327 23.1991 26.148 23.902C25.8266 23.9862 25.5074 24.0812 25.1912 24.1879C25.1406 23.9518 25.0954 23.715 25.0553 23.4778C25.6956 22.8873 26.3874 22.3538 27.1046 21.8728ZM24.2004 24.3364C24.2152 24.4066 24.2304 24.4767 24.2461 24.5468C24.1849 24.5728 24.1239 24.5992 24.0631 24.6261C24.0415 24.6054 24.0199 24.5845 23.9983 24.5636C24.0648 24.4871 24.1322 24.4113 24.2004 24.3364ZM23.9876 23.1148C23.7514 23.3484 23.5224 23.5903 23.302 23.8408C23.1401 23.6616 22.9826 23.4791 22.8292 23.2937C23.0885 22.4622 23.4208 21.6543 23.8015 20.8791C23.824 21.6147 23.8827 22.3637 23.9876 23.1148ZM22.5182 24.4647C22.5661 24.5181 22.6143 24.5713 22.6629 24.6241C22.623 24.6772 22.5834 24.7305 22.5442 24.7843C22.515 24.7771 22.4859 24.7698 22.4568 24.7625C22.4761 24.663 22.4966 24.5637 22.5182 24.4647ZM20.444 21.6701C20.8313 22.2958 21.2567 22.9151 21.7231 23.5132C21.6353 23.8336 21.558 24.1575 21.4923 24.4847C21.2625 24.4104 21.0348 24.3311 20.8093 24.2473C20.6181 23.3975 20.5019 22.5317 20.444 21.6701ZM21.1255 25.4169C21.1936 25.4392 21.262 25.4611 21.3305 25.4826C21.3177 25.5872 21.3061 25.6921 21.2958 25.7972C21.283 25.8011 21.2701 25.805 21.2572 25.8088C21.2112 25.6789 21.1673 25.5482 21.1255 25.4169ZM22.2163 26.9921C22.375 26.7913 22.5282 26.5854 22.6753 26.3742C22.9607 26.2608 23.2428 26.137 23.521 26.0023C23.7489 26.0386 23.9782 26.0696 24.209 26.0948C24.4171 26.2665 24.6306 26.433 24.8497 26.5936C24.944 26.8463 25.0457 27.0972 25.1552 27.3458C25.1105 27.6118 25.0731 27.88 25.0436 28.15C24.8719 28.358 24.7055 28.5715 24.5449 28.7906C24.3436 28.8657 24.1435 28.9455 23.9447 29.0302C23.6491 28.984 23.3511 28.9476 23.0511 28.9221C22.8503 28.7634 22.6444 28.6102 22.4333 28.4631C22.3388 28.2253 22.237 27.9896 22.1277 27.7567C22.1648 27.5034 22.1945 27.2485 22.2163 26.9921ZM19.9611 24.9904C20.0555 25.3507 20.1635 25.7083 20.2862 26.0619C20.0712 26.11 19.8551 26.1533 19.6383 26.192C19.0073 25.5216 18.4402 24.7919 17.9319 24.0338C18.5802 24.382 19.2581 24.7057 19.9611 24.9904Z" stroke="#F1DE0C" stroke-opacity="0.2"/>
</svg>
