<svg width="47" height="54" viewBox="0 0 47 54" fill="none" xmlns="http://www.w3.org/2000/svg">
<rect y="0.629883" width="46.8" height="53.235" fill="#D52802"/>
<path d="M21.079 12.3177C22.0479 10.7737 24.2977 10.7737 25.2667 12.3177L27.6 16.0358C28.1053 16.8409 29.0275 17.285 29.972 17.1781L34.3337 16.6841C36.145 16.479 37.5477 18.238 36.9447 19.9582L35.4926 24.1007C35.1781 24.9977 35.4059 25.9956 36.0784 26.6674L39.1841 29.7695C40.4737 31.0578 39.9731 33.2512 38.2522 33.8522L34.1081 35.2997C33.2107 35.6131 32.5725 36.4134 32.4666 37.3581L31.9776 41.7203C31.7746 43.5318 29.7476 44.508 28.2046 43.5373L24.4892 41.1998C23.6846 40.6936 22.661 40.6936 21.8564 41.1998L18.141 43.5373C16.5981 44.508 14.5711 43.5318 14.368 41.7203L13.879 37.3581C13.7731 36.4134 13.1349 35.6131 12.2375 35.2997L8.09341 33.8522C6.37251 33.2512 5.87188 31.0578 7.16156 29.7695L10.2672 26.6674C10.9398 25.9956 11.1675 24.9977 10.8531 24.1007L9.40093 19.9582C8.79791 18.238 10.2006 16.479 12.0119 16.6841L16.3736 17.1781C17.3182 17.285 18.2404 16.8409 18.7457 16.0358L21.079 12.3177Z" fill="white"/>
</svg>
