<svg width="47" height="55" viewBox="0 0 47 55" fill="none" xmlns="http://www.w3.org/2000/svg">
<rect y="0.864746" width="46.8" height="53.235" fill="white"/>
<rect x="0.5" y="1.36475" width="45.8" height="52.235" stroke="#34548D" stroke-opacity="0.1"/>
<path d="M21.0595 25.9545H30.4195V29.5945H21.0595V25.9545Z" fill="#375291"/>
<path d="M39.7795 27.7745C39.7795 31.6516 36.6366 34.7945 32.7595 34.7945C28.8825 34.7945 25.7395 31.6516 25.7395 27.7745C25.7395 23.8975 28.8825 20.7545 32.7595 20.7545C36.6366 20.7545 39.7795 23.8975 39.7795 27.7745Z" fill="#375291"/>
<path d="M25.2195 25.4345V34.7945H21.5795V25.4345H25.2195Z" fill="#375291"/>
<path d="M23.3995 44.1545C19.5225 44.1545 16.3795 41.0116 16.3795 37.1345C16.3795 33.2575 19.5225 30.1145 23.3995 30.1145C27.2766 30.1145 30.4195 33.2575 30.4195 37.1345C30.4195 41.0116 27.2766 44.1545 23.3995 44.1545Z" fill="#375291"/>
<path d="M25.7395 25.9545H16.3795V29.5945H25.7395V25.9545Z" fill="#375291"/>
<path d="M7.01953 27.7745C7.01953 31.6516 10.1625 34.7945 14.0395 34.7945C17.9166 34.7945 21.0595 31.6516 21.0595 27.7745C21.0595 23.8975 17.9166 20.7545 14.0395 20.7545C10.1625 20.7545 7.01953 23.8975 7.01953 27.7745Z" fill="#375291"/>
<path d="M25.2195 30.1145V20.7545H21.5795V30.1145H25.2195Z" fill="#375291"/>
<path d="M23.3995 11.3945C19.5225 11.3945 16.3795 14.5375 16.3795 18.4145C16.3795 22.2916 19.5225 25.4345 23.3995 25.4345C27.2766 25.4345 30.4195 22.2916 30.4195 18.4145C30.4195 14.5375 27.2766 11.3945 23.3995 11.3945Z" fill="#375291"/>
<path d="M20.1347 25.4545H16.3795H15.8795V25.9545V29.5945V30.0945H16.3795H20.1347C20.092 30.2066 20.0463 30.3171 19.9978 30.4261C18.5755 31.1488 17.4138 32.3105 16.6911 33.7328C15.881 34.0938 14.9837 34.2945 14.0395 34.2945C10.4386 34.2945 7.51953 31.3754 7.51953 27.7745C7.51953 24.1736 10.4386 21.2545 14.0395 21.2545C14.9837 21.2545 15.881 21.4552 16.6911 21.8163C17.4138 23.2386 18.5755 24.4003 19.9978 25.1229C20.0463 25.2319 20.092 25.3425 20.1347 25.4545ZM20.5595 27.7745C20.5595 28.2268 20.5135 28.6682 20.4258 29.0945H16.8795V26.4545H20.4258C20.5135 26.8808 20.5595 27.3223 20.5595 27.7745ZM20.7479 31.1763C20.8569 31.1277 20.9675 31.082 21.0795 31.0394V34.7945V35.2945H21.5795H25.2195H25.7195V34.7945V31.0394C25.8316 31.082 25.9421 31.1277 26.0511 31.1763C26.7738 32.5986 27.9355 33.7603 29.3578 34.4829C29.7188 35.293 29.9195 36.1903 29.9195 37.1345C29.9195 40.7354 27.0004 43.6545 23.3995 43.6545C19.7986 43.6545 16.8795 40.7354 16.8795 37.1345C16.8795 36.1903 17.0802 35.293 17.4413 34.4829C18.8636 33.7603 20.0253 32.5986 20.7479 31.1763ZM22.0795 30.7482C22.5058 30.6606 22.9473 30.6145 23.3995 30.6145C23.8518 30.6145 24.2932 30.6606 24.7195 30.7482V34.2945H22.0795V30.7482ZM30.1079 33.7328C29.3853 32.3105 28.2236 31.1488 26.8013 30.4261C26.7527 30.3171 26.707 30.2066 26.6644 30.0945H30.4195H30.9195V29.5945V25.9545V25.4545H30.4195H26.6644C26.707 25.3425 26.7527 25.2319 26.8013 25.1229C28.2236 24.4003 29.3853 23.2386 30.1079 21.8163C30.918 21.4552 31.8153 21.2545 32.7595 21.2545C36.3604 21.2545 39.2795 24.1736 39.2795 27.7745C39.2795 31.3754 36.3604 34.2945 32.7595 34.2945C31.8153 34.2945 30.918 34.0938 30.1079 33.7328ZM20.7479 24.3728C20.0253 22.9505 18.8636 21.7888 17.4413 21.0661C17.0802 20.256 16.8795 19.3587 16.8795 18.4145C16.8795 14.8136 19.7986 11.8945 23.3995 11.8945C27.0004 11.8945 29.9195 14.8136 29.9195 18.4145C29.9195 19.3587 29.7188 20.256 29.3578 21.0661C27.9355 21.7888 26.7738 22.9505 26.0511 24.3728C25.9421 24.4213 25.8316 24.467 25.7195 24.5097V20.7545V20.2545H25.2195H21.5795H21.0795V20.7545V24.5097C20.9675 24.467 20.8569 24.4213 20.7479 24.3728ZM22.0795 29.0945V26.4545H24.7195V29.0945H22.0795ZM26.3732 29.0945C26.2856 28.6682 26.2395 28.2268 26.2395 27.7745C26.2395 27.3223 26.2856 26.8808 26.3732 26.4545H29.9195V29.0945H26.3732ZM24.7195 24.8008C24.2932 24.8885 23.8518 24.9345 23.3995 24.9345C22.9473 24.9345 22.5058 24.8885 22.0795 24.8008V21.2545H24.7195V24.8008Z" stroke="#34548D" stroke-opacity="0.1"/>
</svg>
