<svg width="32" height="33" viewBox="0 0 32 33" fill="none" xmlns="http://www.w3.org/2000/svg">
<circle cx="16" cy="16.6299" r="15.4" fill="#C1272D" stroke="#C1272D" stroke-width="1.2"/>
<path d="M11.8 6.62988H20.2C23.4 6.62988 26 9.22988 26 12.4299V20.8299C26 22.3681 25.3889 23.8434 24.3012 24.9311C23.2135 26.0188 21.7383 26.6299 20.2 26.6299H11.8C8.6 26.6299 6 24.0299 6 20.8299V12.4299C6 10.8916 6.61107 9.41637 7.69878 8.32866C8.78649 7.24095 10.2617 6.62988 11.8 6.62988ZM11.6 8.62988C10.6452 8.62988 9.72955 9.00917 9.05442 9.6843C8.37928 10.3594 8 11.2751 8 12.2299V21.0299C8 23.0199 9.61 24.6299 11.6 24.6299H20.4C21.3548 24.6299 22.2705 24.2506 22.9456 23.5755C23.6207 22.9003 24 21.9847 24 21.0299V12.2299C24 10.2399 22.39 8.62988 20.4 8.62988H11.6ZM21.25 10.1299C21.5815 10.1299 21.8995 10.2616 22.1339 10.496C22.3683 10.7304 22.5 11.0484 22.5 11.3799C22.5 11.7114 22.3683 12.0293 22.1339 12.2638C21.8995 12.4982 21.5815 12.6299 21.25 12.6299C20.9185 12.6299 20.6005 12.4982 20.3661 12.2638C20.1317 12.0293 20 11.7114 20 11.3799C20 11.0484 20.1317 10.7304 20.3661 10.496C20.6005 10.2616 20.9185 10.1299 21.25 10.1299ZM16 11.6299C17.3261 11.6299 18.5979 12.1567 19.5355 13.0943C20.4732 14.032 21 15.3038 21 16.6299C21 17.956 20.4732 19.2277 19.5355 20.1654C18.5979 21.1031 17.3261 21.6299 16 21.6299C14.6739 21.6299 13.4021 21.1031 12.4645 20.1654C11.5268 19.2277 11 17.956 11 16.6299C11 15.3038 11.5268 14.032 12.4645 13.0943C13.4021 12.1567 14.6739 11.6299 16 11.6299ZM16 13.6299C15.2044 13.6299 14.4413 13.946 13.8787 14.5086C13.3161 15.0712 13 15.8342 13 16.6299C13 17.4255 13.3161 18.1886 13.8787 18.7512C14.4413 19.3138 15.2044 19.6299 16 19.6299C16.7956 19.6299 17.5587 19.3138 18.1213 18.7512C18.6839 18.1886 19 17.4255 19 16.6299C19 15.8342 18.6839 15.0712 18.1213 14.5086C17.5587 13.946 16.7956 13.6299 16 13.6299Z" fill="#F7F7F7"/>
</svg>
