<svg width="40" height="40" viewBox="0 0 40 40" fill="none" xmlns="http://www.w3.org/2000/svg">
<rect y="0.00012207" width="40" height="40" fill="#D52802"/>
<path d="M18.0157 6.99005C18.8439 5.67039 20.7668 5.67039 21.595 6.99005L23.5893 10.1679C24.0211 10.8561 24.8093 11.2357 25.6166 11.1442L29.3446 10.7221C30.8927 10.5468 32.0916 12.0501 31.5762 13.5204L30.3351 17.061C30.0663 17.8277 30.261 18.6806 30.8358 19.2548L33.4902 21.9062C34.5925 23.0072 34.1646 24.8819 32.6937 25.3957L29.1518 26.6328C28.3848 26.9007 27.8393 27.5847 27.7488 28.3921L27.3308 32.1205C27.1573 33.6688 25.4248 34.5031 24.1061 33.6735L20.9305 31.6756C20.2428 31.243 19.3679 31.243 18.6803 31.6756L15.5046 33.6735C14.1859 34.5031 12.4534 33.6688 12.2799 32.1205L11.8619 28.3921C11.7714 27.5847 11.2259 26.9007 10.4589 26.6328L6.91698 25.3957C5.44612 24.8819 5.01823 23.0072 6.12052 21.9062L8.77494 19.2548C9.34976 18.6806 9.54443 17.8277 9.27566 17.061L8.03452 13.5204C7.51912 12.0501 8.71803 10.5468 10.2661 10.7221L13.9941 11.1442C14.8014 11.2357 15.5896 10.8561 16.0215 10.1679L18.0157 6.99005Z" fill="#FDD3CB"/>
</svg>
