<svg width="40" height="40" viewBox="0 0 40 40" fill="none" xmlns="http://www.w3.org/2000/svg">
<rect y="0.00012207" width="40" height="40" fill="#FEFCE6"/>
<rect x="0.25" y="0.250122" width="39.5" height="39.5" stroke="#F1DE0C" stroke-opacity="0.5" stroke-width="0.5"/>
<path d="M6 18.1748C6 18.1748 14.2149 21.183 20 18.1748C25.7851 15.1666 34 18.1748 34 18.1748V21.8773C34 21.8773 26.0165 18.9847 20 21.8773C13.9835 24.7698 6 21.8773 6 21.8773V18.1748Z" fill="#F1DE0C"/>
<path d="M31.2116 28.5813C31.2116 28.5813 25.6014 21.8686 19.0872 21.5813C12.5731 21.2939 6.96289 14.5813 6.96289 14.5813L8.81413 11.3748C8.81413 11.3748 14.2818 17.8715 20.9385 18.3748C27.5952 18.8781 33.0628 25.3748 33.0628 25.3748L31.2116 28.5813Z" fill="#F1DE0C"/>
<path d="M25.419 33.0374C25.419 33.0374 23.9168 24.419 18.419 20.9131C12.9213 17.4071 11.419 8.78872 11.419 8.78872L14.6255 6.93748C14.6255 6.93748 16.1122 15.2976 21.6255 19.0618C27.1387 22.826 28.6255 31.1862 28.6255 31.1862L25.419 33.0374Z" fill="#F1DE0C"/>
<path d="M18.1745 34.0003C18.1745 34.0003 21.1827 25.7854 18.1745 20.0003C15.1662 14.2152 18.1745 6.00031 18.1745 6.00031L21.8769 6.00031C21.8769 6.00031 18.9844 13.9838 21.8769 20.0003C24.7695 26.0168 21.8769 34.0003 21.8769 34.0003H18.1745Z" fill="#F1DE0C"/>
<path d="M11.4191 31.2119C11.4191 31.2119 18.1317 25.6017 18.4191 19.0875C18.7064 12.5734 25.4191 6.96319 25.4191 6.96319L28.6255 8.81443C28.6255 8.81443 22.1288 14.2821 21.6255 20.9388C21.1222 27.5955 14.6255 33.0631 14.6255 33.0631L11.4191 31.2119Z" fill="#F1DE0C"/>
<path d="M6.96289 25.4194C6.96289 25.4194 15.5813 23.9171 19.0872 18.4194C22.5932 12.9216 31.2116 11.4194 31.2116 11.4194L33.0628 14.6258C33.0628 14.6258 24.7027 16.1125 20.9385 21.6258C17.1743 27.1391 8.81413 28.6258 8.81413 28.6258L6.96289 25.4194Z" fill="#F1DE0C"/>
</svg>
