<svg width="47" height="54" viewBox="0 0 47 54" fill="none" xmlns="http://www.w3.org/2000/svg">
<rect y="0.000244141" width="46.8" height="53.235" fill="#D52802"/>
<path d="M21.077 11.6883C22.046 10.1443 24.2958 10.1443 25.2647 11.6883L27.598 15.4064C28.1033 16.2115 29.0255 16.6556 29.97 16.5487L34.3318 16.0547C36.143 15.8496 37.5458 17.6086 36.9427 19.3288L35.4906 23.4713C35.1762 24.3683 35.4039 25.3662 36.0764 26.038L39.1821 29.1401C40.4718 30.4284 39.9712 32.6218 38.2503 33.2228L34.1062 34.6703C33.2088 34.9838 32.5706 35.784 32.4647 36.7287L31.9757 41.0909C31.7726 42.9024 29.7456 43.8786 28.2027 42.9079L24.4872 40.5704C23.6826 40.0642 22.6591 40.0642 21.8545 40.5704L18.139 42.9079C16.5961 43.8786 14.5691 42.9024 14.366 41.0909L13.877 36.7287C13.7711 35.784 13.133 34.9838 12.2355 34.6703L8.09146 33.2229C6.37056 32.6218 5.86993 30.4284 7.15961 29.1402L10.2653 26.038C10.9378 25.3662 11.1656 24.3683 10.8511 23.4713L9.39898 19.3288C8.79596 17.6086 10.1987 15.8496 12.01 16.0547L16.3717 16.5487C17.3162 16.6556 18.2384 16.2115 18.7437 15.4064L21.077 11.6883Z" fill="white"/>
</svg>
