<svg width="47" height="54" viewBox="0 0 47 54" fill="none" xmlns="http://www.w3.org/2000/svg">
<rect width="46.8" height="53.235" fill="#D52802"/>
<path d="M21.079 11.6878C22.0479 10.1438 24.2977 10.1438 25.2667 11.6878L27.6 15.4059C28.1053 16.211 29.0275 16.6551 29.972 16.5482L34.3337 16.0542C36.145 15.8491 37.5477 17.6081 36.9447 19.3283L35.4926 23.4708C35.1781 24.3678 35.4059 25.3657 36.0784 26.0375L39.1841 29.1397C40.4737 30.4279 39.9731 32.6213 38.2522 33.2224L34.1081 34.6698C33.2107 34.9833 32.5725 35.7835 32.4666 36.7282L31.9776 41.0905C31.7746 42.902 29.7476 43.8781 28.2046 42.9074L24.4892 40.5699C23.6846 40.0637 22.661 40.0637 21.8564 40.5699L18.141 42.9074C16.5981 43.8781 14.5711 42.902 14.368 41.0905L13.879 36.7282C13.7731 35.7835 13.1349 34.9833 12.2375 34.6698L8.09341 33.2224C6.37251 32.6213 5.87188 30.4279 7.16156 29.1397L10.2672 26.0375C10.9398 25.3657 11.1675 24.3678 10.8531 23.4708L9.40093 19.3283C8.79791 17.6081 10.2006 15.8491 12.0119 16.0542L16.3736 16.5482C17.3182 16.6551 18.2404 16.211 18.7457 15.4059L21.079 11.6878Z" fill="white"/>
</svg>
